# Blender v2.69 (sub 0) OBJ File: 'cart.blend'
# www.blender.org
o cart_Cube.001
v 3.809146 2.057799 -0.902366
v -3.791512 2.058182 -0.902365
v -3.791511 2.058172 0.886548
v 3.809146 2.058215 0.886546
v 4.008997 2.057830 -1.082266
v 3.951083 1.800290 -0.978941
v 3.951084 1.800289 0.947880
v -3.945591 1.799793 0.947882
v -3.945592 1.799793 -1.000648
v 3.314312 -1.612111 -0.698940
v -3.306604 -1.612111 0.703798
v -3.306605 -1.612111 -0.699753
v 3.314312 -1.612111 0.703797
v -3.991979 2.058111 1.024375
v 4.009616 2.057563 1.024373
v 4.008752 1.758214 1.023707
v -3.991678 1.757775 1.023710
v -3.992008 2.057973 -1.082263
v -3.990922 1.757755 -1.080613
v 4.008564 1.758480 -1.080523
v 3.404789 -2.000413 0.802956
v 3.406757 -2.000126 -0.796290
v 3.407615 -1.612595 -0.798188
v 3.405647 -1.612138 0.802870
v -3.367586 -2.000507 0.802727
v -3.367221 -1.612233 0.802770
v -3.365713 -2.000315 -0.796288
v -3.366839 -1.612784 -0.799552
v 3.808669 1.758658 0.887613
v -3.790594 1.757219 0.887615
v -3.790595 1.757228 -0.902908
v 3.808669 1.758268 -0.902910
v 3.769734 1.800290 -1.079677
v -3.818329 1.799793 -1.101384
v 3.132962 -1.612111 -0.799677
v -3.179341 -1.612111 -0.800490
v 3.769910 1.800289 0.885536
v 3.133138 -1.612111 0.641453
v -3.810755 1.799793 0.875931
v -3.171768 -1.612111 0.631848
vt 0.104788 0.899122
vt 0.215965 0.899044
vt 0.096927 0.906523
vt 0.231087 0.897037
vt 0.754988 0.897204
vt 0.223822 0.906278
vt 0.171756 0.950469
vt 0.813699 0.950468
vt 0.187790 0.964902
vt 0.038870 0.082919
vt 0.188491 0.044030
vt 0.239597 0.318509
vt 0.822055 0.044030
vt 0.973341 0.083437
vt 0.770805 0.318476
vt 0.817488 0.829587
vt 0.175536 0.829446
vt 0.175564 0.805347
vt 0.006500 0.828865
vt 0.986487 0.828791
vt 0.817426 0.805573
vt 0.223880 0.937052
vt 0.191619 0.840510
vt 0.801400 0.840644
vt 0.020880 0.845003
vt 0.164422 0.845493
vt 0.760622 0.906464
vt 0.887617 0.906442
vt 0.760641 0.937237
vt 0.972136 0.844896
vt 0.828626 0.845614
vt 0.768466 0.901660
vt 0.879708 0.901667
vt 0.828666 0.869645
vt 0.164425 0.869642
vt 0.797613 0.964902
vt 0.187828 0.988934
vt 0.188492 0.407828
vt 0.239533 0.682540
vt 0.127919 0.712730
vt 0.797298 0.407828
vt 0.950119 0.450418
vt 0.856674 0.713505
vt 0.130672 0.346820
vt 0.879779 0.346861
vt 0.006713 0.804776
vt 0.986231 0.804777
vt 0.097127 0.937237
vt 0.887374 0.937157
vt 0.972305 0.868925
vt 0.020754 0.869151
vt 0.797538 0.989047
vt 0.036289 0.448998
vt 0.745980 0.682624
vn 0.005187 0.999987 0.000000
vn 0.000000 1.000000 0.000268
vn 0.000018 1.000000 0.000193
vn 0.983031 -0.183439 -0.000001
vn 0.000005 -0.071347 0.997452
vn -0.982911 -0.184081 0.000000
vn 0.000000 -0.002216 0.999998
vn -1.000000 -0.001007 0.000014
vn 0.999996 -0.002889 -0.000294
vn 0.999997 -0.002210 0.001230
vn -0.000006 1.000000 0.000441
vn -0.001049 0.999999 0.000006
vn -1.000000 0.000943 -0.000238
vn -0.000365 1.000000 -0.000233
vn -0.011175 0.999938 0.000000
vn -0.999999 0.001593 -0.000000
vn 0.999995 0.003046 -0.000000
vn 0.000000 -0.001814 0.999998
vn -0.000015 -0.000111 1.000000
vn -0.983029 0.183448 0.000120
vn -0.002856 0.082308 0.996603
vn 0.982855 0.184340 -0.003765
vn 0.000603 1.000000 -0.000285
vn -0.000014 0.999999 0.001226
vn 0.000051 0.999999 -0.001221
vn 0.983031 -0.183439 -0.000000
vn 0.000000 -0.071356 0.997451
vn 0.000000 -0.002225 0.999997
vn -0.999993 -0.003617 -0.000359
vn 0.999999 -0.001447 -0.000089
vn 0.999997 -0.002208 0.001230
vn 0.000068 0.999989 0.004629
vn -0.000352 1.000000 -0.000065
vn -0.999995 -0.002919 -0.001172
vn 0.003165 0.999995 0.000126
vn -0.002578 0.999997 -0.000345
vn 0.000001 -0.001806 0.999998
vn -0.000034 0.000221 1.000000
vn -0.983032 0.183433 0.000088
vn -0.000128 0.087825 0.996136
vn 0.982981 0.183636 -0.005198
s off
f 10/1/1 13/2/1 23/3/1
f 13/4/2 11/5/2 24/6/2
f 5/7/3 18/8/3 1/9/3
f 6/10/4 7/11/4 13/12/4
f 7/11/5 8/13/5 13/12/5
f 8/13/6 9/14/6 11/15/6
f 15/16/7 14/17/7 17/18/7
f 14/17/8 18/19/8 17/18/8
f 5/20/9 15/16/9 16/21/9
f 23/3/10 24/6/10 21/22/10
f 3/23/11 14/17/11 4/24/11
f 2/25/12 18/19/12 3/26/12
f 26/27/13 28/28/13 25/29/13
f 1/30/14 4/31/14 5/20/14
f 11/32/15 12/33/15 28/28/15
f 4/31/16 1/30/16 29/34/16
f 2/25/17 3/26/17 30/35/17
f 1/9/18 2/36/18 32/37/18
f 24/6/19 26/27/19 25/29/19
f 33/38/20 35/39/20 38/40/20
f 33/38/21 34/41/21 35/39/21
f 39/42/22 40/43/22 34/41/22
f 13/2/23 24/6/23 23/3/23
f 11/5/24 26/27/24 24/6/24
f 18/8/25 2/36/25 1/9/25
f 10/44/26 6/10/26 13/12/26
f 8/13/27 11/15/27 13/12/27
f 9/14/6 12/45/6 11/15/6
f 16/21/28 15/16/28 17/18/28
f 18/19/29 19/46/29 17/18/29
f 20/47/30 5/20/30 16/21/30
f 22/48/31 23/3/31 21/22/31
f 14/17/32 15/16/32 4/24/32
f 18/19/33 14/17/33 3/26/33
f 28/28/34 27/49/34 25/29/34
f 4/31/35 15/16/35 5/20/35
f 26/27/36 11/32/36 28/28/36
f 1/30/16 32/50/16 29/34/16
f 31/51/17 2/25/17 30/35/17
f 2/36/37 31/52/37 32/37/37
f 21/22/38 24/6/38 25/29/38
f 37/53/39 33/38/39 38/40/39
f 34/41/40 36/54/40 35/39/40
f 40/43/41 36/54/41 34/41/41
