# Blender v2.69 (sub 0) OBJ File: 'cart.blend'
# www.blender.org
o cart_Cube.001
v 3.809146 2.057799 -0.902366
v -3.791512 2.058182 -0.902365
v -3.791511 2.058172 0.886548
v 3.809146 2.058215 0.886546
v 4.008997 2.057830 -1.082266
v 3.951083 1.800290 -0.978941
v 3.951084 1.800289 0.947880
v -3.945591 1.799793 0.947882
v -3.945592 1.799793 -1.000648
v 3.314312 -1.612111 -0.698940
v -3.306604 -1.612111 0.703798
v -3.306605 -1.612111 -0.699753
v 3.314312 -1.612111 0.703797
v -3.991979 2.058111 1.024375
v 4.009616 2.057563 1.024373
v 4.008752 1.758214 1.023707
v -3.991678 1.757775 1.023710
v -3.992008 2.057973 -1.082263
v -3.990922 1.757755 -1.080613
v 4.008564 1.758480 -1.080523
v 3.404789 -2.000413 0.802956
v 3.406757 -2.000126 -0.796290
v 3.407615 -1.612595 -0.798188
v 3.405647 -1.612138 0.802870
v -3.367586 -2.000507 0.802727
v -3.367221 -1.612233 0.802770
v -3.365713 -2.000315 -0.796288
v -3.366839 -1.612784 -0.799552
v 3.808669 1.758658 0.887613
v -3.790594 1.757219 0.887615
v -3.790595 1.757228 -0.902908
v 3.808669 1.758268 -0.902910
v 3.769734 1.800290 -1.079677
v -3.818329 1.799793 -1.101384
v 3.132962 -1.612111 -0.799677
v -3.179341 -1.612111 -0.800490
v 3.769910 1.800289 0.885536
v 3.133138 -1.612111 0.641453
v -3.810755 1.799793 0.875931
v -3.171768 -1.612111 0.631848
vt 0.878625 0.899264
vt 0.766513 0.899378
vt 0.886550 0.891799
vt 0.751264 0.901407
vt 0.222955 0.901404
vt 0.758587 0.892086
vt 0.178225 0.957251
vt 0.820120 0.957251
vt 0.194259 0.971684
vt 0.038888 0.079387
vt 0.188498 0.040501
vt 0.239601 0.314960
vt 0.822015 0.040501
vt 0.973290 0.079904
vt 0.770769 0.314926
vt 0.818738 0.935362
vt 0.176834 0.935221
vt 0.176862 0.911124
vt 0.007810 0.934641
vt 0.987724 0.934566
vt 0.818676 0.911350
vt 0.758519 0.861054
vt 0.192916 0.946284
vt 0.802651 0.946418
vt 0.022189 0.950777
vt 0.165720 0.951267
vt 0.217272 0.892068
vt 0.089204 0.892129
vt 0.217243 0.861035
vt 0.973374 0.950670
vt 0.829874 0.951388
vt 0.209362 0.896915
vt 0.097182 0.896942
vt 0.829915 0.975417
vt 0.165724 0.975414
vt 0.804035 0.971684
vt 0.194296 0.995714
vt 0.184629 0.404959
vt 0.235666 0.679650
vt 0.124061 0.709838
vt 0.793389 0.404959
vt 0.946199 0.447545
vt 0.852760 0.710613
vt 0.758676 0.733235
vt 0.130684 0.343268
vt 0.879734 0.343309
vt 0.008024 0.910553
vt 0.987468 0.910554
vt 0.886338 0.860826
vt 0.089440 0.861155
vt 0.973543 0.974697
vt 0.022063 0.974923
vt 0.803960 0.995827
vt 0.032438 0.446126
vt 0.742075 0.679734
vt 0.217392 0.733235
vn 0.005187 0.999987 0.000000
vn 0.000000 1.000000 0.000268
vn 0.000018 1.000000 0.000193
vn 0.983031 -0.183439 -0.000001
vn 0.000005 -0.071347 0.997452
vn -0.982911 -0.184081 0.000000
vn 0.000000 -0.002216 0.999998
vn -1.000000 -0.001007 0.000014
vn 0.999996 -0.002889 -0.000294
vn 0.999997 -0.002210 0.001230
vn -0.000006 1.000000 0.000441
vn -0.001049 0.999999 0.000006
vn -1.000000 0.000943 -0.000238
vn -0.000365 1.000000 -0.000233
vn -0.011175 0.999938 0.000000
vn -0.999999 0.001593 -0.000000
vn 0.999995 0.003046 -0.000000
vn 0.000000 -0.001814 0.999998
vn -0.000015 -0.000111 1.000000
vn -0.983029 0.183448 0.000120
vn -0.002856 0.082308 0.996603
vn 0.982855 0.184340 -0.003765
vn 0.000014 -1.000000 -0.000180
vn 0.000603 1.000000 -0.000285
vn -0.000014 0.999999 0.001226
vn 0.000051 0.999999 -0.001221
vn 0.983031 -0.183439 -0.000000
vn 0.000000 -0.071356 0.997451
vn 0.000000 -0.002225 0.999997
vn -0.999993 -0.003617 -0.000359
vn 0.999999 -0.001447 -0.000089
vn 0.999997 -0.002208 0.001230
vn 0.000068 0.999989 0.004629
vn -0.000352 1.000000 -0.000065
vn -0.999995 -0.002919 -0.001172
vn 0.003165 0.999995 0.000126
vn -0.002578 0.999997 -0.000345
vn 0.000001 -0.001806 0.999998
vn -0.000034 0.000221 1.000000
vn -0.983032 0.183433 0.000088
vn -0.000128 0.087825 0.996136
vn 0.982981 0.183636 -0.005198
vn 0.000028 -1.000000 -0.000121
s off
f 10/1/1 13/2/1 23/3/1
f 13/4/2 11/5/2 24/6/2
f 5/7/3 18/8/3 1/9/3
f 6/10/4 7/11/4 13/12/4
f 7/11/5 8/13/5 13/12/5
f 8/13/6 9/14/6 11/15/6
f 15/16/7 14/17/7 17/18/7
f 14/17/8 18/19/8 17/18/8
f 5/20/9 15/16/9 16/21/9
f 23/3/10 24/6/10 21/22/10
f 3/23/11 14/17/11 4/24/11
f 2/25/12 18/19/12 3/26/12
f 26/27/13 28/28/13 25/29/13
f 1/30/14 4/31/14 5/20/14
f 11/32/15 12/33/15 28/28/15
f 4/31/16 1/30/16 29/34/16
f 2/25/17 3/26/17 30/35/17
f 1/9/18 2/36/18 32/37/18
f 24/6/19 26/27/19 25/29/19
f 33/38/20 35/39/20 38/40/20
f 33/38/21 34/41/21 35/39/21
f 39/42/22 40/43/22 34/41/22
f 21/22/23 25/29/23 22/44/23
f 13/2/24 24/6/24 23/3/24
f 11/5/25 26/27/25 24/6/25
f 18/8/26 2/36/26 1/9/26
f 10/45/27 6/10/27 13/12/27
f 8/13/28 11/15/28 13/12/28
f 9/14/6 12/46/6 11/15/6
f 16/21/29 15/16/29 17/18/29
f 18/19/30 19/47/30 17/18/30
f 20/48/31 5/20/31 16/21/31
f 22/49/32 23/3/32 21/22/32
f 14/17/33 15/16/33 4/24/33
f 18/19/34 14/17/34 3/26/34
f 28/28/35 27/50/35 25/29/35
f 4/31/36 15/16/36 5/20/36
f 26/27/37 11/32/37 28/28/37
f 1/30/16 32/51/16 29/34/16
f 31/52/17 2/25/17 30/35/17
f 2/36/38 31/53/38 32/37/38
f 21/22/39 24/6/39 25/29/39
f 37/54/40 33/38/40 38/40/40
f 34/41/41 36/55/41 35/39/41
f 40/43/42 36/55/42 34/41/42
f 25/29/43 27/56/43 22/44/43
