# Blender v2.69 (sub 0) OBJ File: 'gems.blend'
# www.blender.org
o GEM_0_Cube
v -0.522753 0.000464 0.353795
v -1.076315 -0.000464 -0.000656
v -0.000384 -1.076396 -0.000656
v 0.000384 -0.522673 0.353795
v 0.000384 0.523601 0.353795
v -0.000384 1.075468 -0.000656
v 1.075548 -0.000464 -0.000656
v 0.523520 0.000464 0.353795
vt 0.074003 0.878728
vt 0.002930 0.877360
vt 0.123796 0.754751
vt 0.175231 0.878088
vt 0.124307 0.827802
vt 0.124946 0.929074
vt 0.246149 0.875828
vt 0.125111 0.997490
vn -0.474192 -0.474192 0.741811
vn 0.474915 -0.474915 0.740885
vn 0.475791 0.475791 0.739760
vn -0.475067 0.475067 0.740691
vn 0.000000 0.000000 1.000000
s off
f 1/1/1 2/2/1 3/3/1
f 8/4/2 4/5/2 3/3/2
f 5/6/3 8/4/3 7/7/3
f 6/8/4 2/2/4 5/6/4
f 8/4/5 5/6/5 4/5/5
f 4/5/1 1/1/1 3/3/1
f 7/7/2 8/4/2 3/3/2
f 6/8/3 5/6/3 7/7/3
f 2/2/4 1/1/4 5/6/4
f 5/6/5 1/1/5 4/5/5
