# Blender v2.69 (sub 0) OBJ File: 'gems.blend'
# www.blender.org
o GEM_1_PLATE_Cube.004
v -0.435821 1.173618 0.003582
v -0.435821 -1.174298 0.003582
v 0.479606 1.173618 0.003582
v 0.479606 -1.174298 0.003582
v -0.992245 0.656758 0.003582
v 0.996515 0.656758 0.003582
v -0.992245 -0.664054 0.003582
v 0.996515 -0.664054 0.003582
vt 0.335144 0.483646
vt 0.465796 0.436500
vt 0.418646 0.483646
vt 0.465796 0.316022
vt 0.418646 0.269479
vt 0.335144 0.269479
vt 0.284390 0.436500
vt 0.284390 0.316021
vn 0.000000 0.000000 1.000000
s off
f 1/1/1 6/2/1 3/3/1
f 8/4/1 6/2/1 1/1/1
f 4/5/1 8/4/1 2/6/1
f 8/4/1 1/1/1 2/6/1
f 1/1/1 5/7/1 7/8/1
f 2/6/1 1/1/1 7/8/1
