# Blender v2.69 (sub 0) OBJ File: 'gems.blend'
# www.blender.org
o GEM_3_Cube.002
v -0.372764 1.003813 0.003064
v -0.372764 -1.004395 0.003064
v -0.221820 0.604898 0.364066
v -0.221820 -0.605479 0.364066
v 0.410214 1.003813 0.003064
v 0.250092 -0.605479 0.364066
v 0.410214 -1.004395 0.003064
v 0.250092 0.604898 0.364066
v -0.510788 0.338450 0.364066
v -0.848682 0.561734 0.003064
v 0.852334 0.561734 0.003064
v 0.514440 0.338450 0.364066
v -0.848682 -0.567975 0.003064
v 0.852334 -0.567975 0.003064
v 0.514440 -0.342443 0.364066
v -0.510788 -0.342443 0.364066
vt 0.425704 0.820875
vt 0.477309 0.881184
vt 0.424067 0.986730
vt 0.427454 0.685304
vt 0.478225 0.621403
vt 0.425199 0.516928
vt 0.401171 0.629561
vt 0.352697 0.630468
vt 0.400243 0.874662
vt 0.353233 0.873071
vt 0.273474 0.617351
vt 0.332659 0.513607
vt 0.323898 0.684385
vt 0.273474 0.879598
vt 0.326020 0.817625
vt 0.332156 0.988509
vn 0.475821 0.475866 0.739693
vn 0.730087 0.000000 0.683354
vn 0.472049 -0.478216 0.740594
vn 0.000000 -0.670993 0.741463
vn 0.000000 0.670993 0.741463
vn -0.456208 -0.497498 0.737814
vn -0.730087 0.000000 0.683354
vn -0.460050 0.495265 0.736930
vn 0.000000 0.000000 1.000000
vn 0.479161 0.475386 0.737844
vn 0.475373 -0.477744 0.738770
vn 0.000000 -0.670993 0.741464
vn 0.000000 0.670994 0.741463
vn -0.453116 -0.497786 0.739524
vn -0.456941 0.495561 0.738664
s off
f 12/1/1 11/2/1 5/3/1
f 12/1/2 15/4/2 14/5/2
f 14/5/3 15/4/3 7/6/3
f 6/7/4 4/8/4 7/6/4
f 8/9/5 5/3/5 3/10/5
f 13/11/6 2/12/6 16/13/6
f 10/14/7 13/11/7 9/15/7
f 10/14/8 9/15/8 1/16/8
f 3/10/9 12/1/9 8/9/9
f 8/9/10 12/1/10 5/3/10
f 11/2/2 12/1/2 14/5/2
f 15/4/11 6/7/11 7/6/11
f 4/8/12 2/12/12 7/6/12
f 5/3/13 1/16/13 3/10/13
f 2/12/14 4/8/14 16/13/14
f 13/11/7 16/13/7 9/15/7
f 9/15/15 3/10/15 1/16/15
f 3/10/9 15/4/9 12/1/9
f 4/8/9 6/7/9 15/4/9
f 4/8/9 15/4/9 3/10/9
f 16/13/9 4/8/9 3/10/9
f 9/15/9 16/13/9 3/10/9
