# Blender v2.69 (sub 0) OBJ File: 'gems.blend'
# www.blender.org
o GEM_1_PLATE_Cube.004
v -0.436064 1.174273 0.003584
v -0.436064 -1.174953 0.003584
v 0.479873 1.174273 0.003584
v 0.479873 -1.174953 0.003584
v -0.992799 0.657124 0.003584
v 0.997071 0.657124 0.003584
v -0.992799 -0.664424 0.003584
v 0.997071 -0.664424 0.003584
vt 0.333379 0.975076
vt 0.465919 0.879421
vt 0.418087 0.975076
vt 0.465919 0.634979
vt 0.418087 0.540549
vt 0.333379 0.540549
vt 0.281890 0.879420
vt 0.281890 0.634979
vn 0.000000 0.000000 1.000000
s off
f 1/1/1 6/2/1 3/3/1
f 8/4/1 6/2/1 1/1/1
f 4/5/1 8/4/1 2/6/1
f 8/4/1 1/1/1 2/6/1
f 1/1/1 5/7/1 7/8/1
f 2/6/1 1/1/1 7/8/1
