# Blender v2.69 (sub 0) OBJ File: 'gems.blend'
# www.blender.org
o GEM_1_Plane.008
v -0.863205 -0.534974 0.001510
v 0.000600 1.004625 0.001511
v -0.863205 0.537746 0.001510
v 0.866805 -0.534975 0.001511
v 0.000600 -0.996314 0.001510
v 0.866805 0.537745 0.001511
v -0.465417 -0.287781 0.366201
v 0.000968 0.543479 0.366201
v -0.465417 0.291402 0.366201
v 0.468649 -0.287782 0.366201
v 0.000968 -0.536867 0.366201
v 0.468649 0.291401 0.366201
vt 0.874478 0.990595
vt 0.768883 0.871100
vt 0.875144 0.854798
vt 0.772333 0.617711
vt 0.827612 0.689810
vt 0.827885 0.807415
vt 0.876642 0.511846
vt 0.980246 0.621444
vt 0.876094 0.644391
vt 0.981405 0.874959
vt 0.922952 0.809137
vt 0.924290 0.691547
vn -0.317803 0.587988 0.743823
vn -0.675777 -0.000000 0.737106
vn 0.314411 -0.590337 0.743403
vn 0.317162 0.588432 0.743744
vn -0.315051 -0.589896 0.743483
vn 0.675437 -0.000000 0.737417
vn -0.000001 -0.000000 1.000000
vn -0.317803 0.587988 0.743822
vn 0.317162 0.588433 0.743744
vn -0.000000 -0.000000 1.000000
s off
f 2/1/1 3/2/1 8/3/1
f 1/4/2 7/5/2 9/6/2
f 5/7/3 4/8/3 11/9/3
f 6/10/4 2/1/4 8/3/4
f 5/7/5 11/9/5 1/4/5
f 4/8/6 6/10/6 12/11/6
f 10/12/7 12/11/7 11/9/7
f 3/2/8 9/6/8 8/3/8
f 3/2/2 1/4/2 9/6/2
f 4/8/3 10/12/3 11/9/3
f 12/11/9 6/10/9 8/3/9
f 11/9/5 7/5/5 1/4/5
f 10/12/6 4/8/6 12/11/6
f 12/11/7 8/3/7 11/9/7
f 8/3/7 9/6/7 7/5/7
f 11/9/10 8/3/10 7/5/10
