# Blender v2.69 (sub 0) OBJ File: 'gems.blend'
# www.blender.org
o GEM_3_PLATE_Plane.000
v -1.012238 -0.627338 0.001770
v 0.000704 1.178074 0.001772
v -1.012237 0.630588 0.001771
v 1.016459 -0.627339 0.001771
v 0.000703 -1.168328 0.001771
v 1.016460 0.630587 0.001772
vt 0.976981 0.314056
vt 0.976981 0.436752
vt 0.877906 0.261290
vt 0.877906 0.490153
vt 0.779106 0.436752
vt 0.779106 0.314057
vn -0.000001 -0.000000 1.000000
vn -0.000000 -0.000000 1.000000
s off
f 4/1/1 6/2/1 5/3/1
f 6/2/2 2/4/2 5/3/2
f 2/4/1 3/5/1 1/6/1
f 5/3/2 2/4/2 1/6/2
