# Blender v2.69 (sub 0) OBJ File: 'gems.blend'
# www.blender.org
o GEM_4_Cube.001
v -0.571938 -0.918718 0.002946
v -0.861219 -0.518170 0.002946
v 0.826679 -0.024987 0.002946
v 0.861219 -0.518170 0.002946
v -0.826678 -0.024987 0.002946
v -0.462569 0.542930 0.012817
v 0.462570 0.542930 0.012817
v -0.000000 1.015003 0.002946
v 0.571938 -0.918718 0.002947
v -0.000000 -1.015741 0.002946
v -0.345714 -0.630480 0.359285
v -0.520573 -0.388364 0.359285
v 0.499695 -0.084118 0.359285
v 0.520573 -0.388364 0.359285
v -0.499695 -0.084118 0.359285
v -0.279605 0.266057 0.349414
v 0.279606 0.266057 0.349414
v 0.000000 0.556789 0.359285
v 0.345714 -0.630480 0.359285
v 0.000000 -0.689127 0.359285
vt 0.017321 0.569244
vt 0.068751 0.589492
vt 0.071768 0.619654
vt 0.018765 0.630098
vt 0.060329 0.697722
vt 0.223255 0.629679
vt 0.169815 0.619777
vt 0.223785 0.568250
vt 0.181491 0.698312
vt 0.120589 0.747215
vt 0.149378 0.656588
vt 0.051927 0.521495
vt 0.119780 0.505638
vt 0.119990 0.559013
vt 0.188033 0.520394
vt 0.154611 0.564488
vt 0.092519 0.656031
vt 0.085557 0.564886
vt 0.171818 0.589233
vt 0.120870 0.684858
vn -0.730999 0.050164 0.680532
vn -0.641345 0.399803 0.654854
vn 0.731587 0.051237 0.679820
vn 0.506180 0.510525 0.695086
vn -0.124089 -0.731487 0.670469
vn 0.124089 -0.731487 0.670469
vn -0.506181 0.510525 0.695086
vn -0.576615 -0.416438 0.702918
vn 0.576615 -0.416439 0.702918
vn 0.641345 0.399803 0.654854
vn -0.000000 -0.033933 0.999424
vn -0.731587 0.051238 0.679820
vn -0.618597 0.407729 0.671636
vn 0.730999 0.050163 0.680532
vn 0.554421 0.510899 0.656962
vn 0.124088 -0.731487 0.670469
vn -0.554422 0.510898 0.656962
vn -0.576615 -0.416438 0.702919
vn 0.576615 -0.416438 0.702919
vn 0.618597 0.407729 0.671636
vn -0.000000 0.028178 0.999603
vn 0.000000 0.000000 1.000000
s off
f 2/1/1 12/2/1 15/3/1
f 5/4/2 15/3/2 6/5/2
f 3/6/3 13/7/3 4/8/3
f 7/9/4 8/10/4 17/11/4
f 1/12/5 10/13/5 20/14/5
f 9/15/6 19/16/6 20/14/6
f 6/5/7 16/17/7 8/10/7
f 1/12/8 11/18/8 12/2/8
f 4/8/9 14/19/9 9/15/9
f 3/6/10 7/9/10 13/7/10
f 17/11/11 18/20/11 16/17/11
f 5/4/12 2/1/12 15/3/12
f 15/3/13 16/17/13 6/5/13
f 13/7/14 14/19/14 4/8/14
f 8/10/15 18/20/15 17/11/15
f 11/18/5 1/12/5 20/14/5
f 10/13/16 9/15/16 20/14/16
f 16/17/17 18/20/17 8/10/17
f 2/1/18 1/12/18 12/2/18
f 14/19/19 19/16/19 9/15/19
f 7/9/20 17/11/20 13/7/20
f 13/7/21 17/11/21 16/17/21
f 13/7/21 16/17/21 15/3/21
f 20/14/22 12/2/22 11/18/22
f 20/14/22 15/3/22 12/2/22
f 13/7/22 15/3/22 20/14/22
f 14/19/22 13/7/22 20/14/22
f 19/16/22 14/19/22 20/14/22
