# Blender v2.69 (sub 0) OBJ File: 'gems.blend'
# www.blender.org
o GEM_4_PLATE_Cube.005
v -0.663237 -1.029763 0.003417
v -0.998697 -0.565275 0.003417
v 0.958643 0.006636 0.003417
v 0.998697 -0.565275 0.003417
v -0.958642 0.006636 0.003416
v -0.536410 0.665211 0.014863
v 0.536411 0.665211 0.014863
v -0.000000 1.212642 0.003416
v 0.663237 -1.029763 0.003417
v -0.000000 -1.142274 0.003417
vt 0.174717 0.188304
vt 0.121733 0.240904
vt 0.070233 0.186849
vt 0.216733 0.124727
vt 0.030005 0.122127
vt 0.124927 0.011532
vt 0.026880 0.066373
vt 0.060181 0.021590
vt 0.189368 0.023390
vt 0.221410 0.069082
vn -0.000000 0.020906 0.999781
vn -0.000000 -0.017378 0.999849
vn -0.000000 0.000000 1.000000
s off
f 7/1/1 8/2/1 6/3/1
f 3/4/2 7/1/2 6/3/2
f 3/4/2 6/3/2 5/5/2
f 10/6/3 2/7/3 1/8/3
f 9/9/3 4/10/3 10/6/3
f 10/6/3 4/10/3 2/7/3
f 4/10/3 3/4/3 2/7/3
f 3/4/3 5/5/3 2/7/3
