# Blender v2.69 (sub 0) OBJ File: 'gems.blend'
# www.blender.org
o GEM_5_Plane.003
v -0.480003 -0.638417 0.002798
v 0.474922 -0.638429 0.002798
v 0.975513 0.614443 0.002799
v -0.980593 0.614526 0.002799
v -0.484290 0.979314 0.002800
v 0.006406 -0.976492 0.002798
v 0.486459 0.979231 0.002800
v -0.919415 -0.000308 0.002799
v 0.914334 -0.000355 0.002799
v -0.302704 -0.363860 0.334576
v 0.298944 -0.363867 0.334576
v 0.614340 0.425501 0.334577
v -0.618099 0.425553 0.334577
v -0.305510 0.655387 0.334577
v 0.003757 -0.576863 0.334576
v 0.306108 0.655334 0.334577
v -0.579554 0.038179 0.334576
v 0.575794 0.038149 0.334576
vt 0.491335 0.245651
vt 0.437543 0.258657
vt 0.408748 0.173594
vt 0.261194 0.238872
vt 0.314702 0.082349
vt 0.346019 0.171853
vt 0.379755 0.008979
vt 0.441278 0.086846
vt 0.318449 0.485901
vt 0.343822 0.383470
vt 0.433712 0.485901
vt 0.492300 0.395533
vt 0.315516 0.255229
vt 0.258157 0.391547
vt 0.407632 0.385474
vt 0.378331 0.127671
vt 0.440747 0.339784
vt 0.311074 0.336738
vn 0.610288 -0.420278 0.671502
vn -0.609309 -0.419581 0.672826
vn -0.406703 -0.585147 0.701567
vn 0.417611 -0.578760 0.700455
vn 0.000061 0.715538 0.698574
vn 0.694246 -0.069085 0.716414
vn -0.692875 -0.068945 0.717754
vn 0.400683 0.537176 0.742223
vn -0.397232 0.540443 0.741706
vn 0.000000 -0.000000 1.000000
vn -0.609309 -0.419580 0.672826
vn 0.400650 0.537315 0.742140
vn -0.397264 0.540306 0.741789
vn 0.000001 -0.000001 1.000000
vn 0.000000 -0.000001 1.000000
vn -0.000001 -0.000001 1.000000
s off
f 9/1/1 18/2/1 11/3/1
f 8/4/2 1/5/2 10/6/2
f 1/5/3 6/7/3 10/6/3
f 2/8/4 11/3/4 6/7/4
f 5/9/5 14/10/5 7/11/5
f 9/1/6 3/12/6 18/2/6
f 8/4/7 17/13/7 4/14/7
f 7/11/8 16/15/8 3/12/8
f 5/9/9 4/14/9 14/10/9
f 11/3/10 10/6/10 15/16/10
f 2/8/1 9/1/1 11/3/1
f 17/13/11 8/4/11 10/6/11
f 6/7/3 15/16/3 10/6/3
f 11/3/4 15/16/4 6/7/4
f 14/10/5 16/15/5 7/11/5
f 3/12/6 12/17/6 18/2/6
f 17/13/7 13/18/7 4/14/7
f 16/15/12 12/17/12 3/12/12
f 4/14/13 13/18/13 14/10/13
f 13/18/14 17/13/14 14/10/14
f 14/10/15 17/13/15 16/15/15
f 16/15/16 18/2/16 12/17/16
f 16/15/15 17/13/15 18/2/15
f 17/13/15 10/6/15 11/3/15
f 18/2/15 17/13/15 11/3/15
