# Blender v2.69 (sub 0) OBJ File: 'gems.blend'
# www.blender.org
o GEM_6.007_Plane.028
v -0.980647 -0.405632 -0.163529
v 0.975459 -0.405644 -0.163529
v 0.975459 0.405007 -0.163528
v -0.980647 0.405090 -0.163528
v -0.404835 0.979351 -0.163528
v -0.404835 -0.976455 -0.163529
v 0.406767 0.979268 -0.163528
v 0.406767 -0.976467 -0.163529
v -0.407842 -0.405854 0.124421
v 0.409469 -0.406159 0.124421
v 0.409469 0.404031 0.124422
v -0.407842 0.405723 0.124422
v 0.409469 -0.001064 0.202635
v 0.000813 0.404877 0.202636
v -0.407842 -0.000065 0.202635
v 0.000813 -0.406007 0.202635
vt 0.418326 0.161525
vt 0.422332 0.021224
vt 0.488034 0.152800
vt 0.332274 0.161527
vt 0.261901 0.152748
vt 0.328369 0.021142
vt 0.328343 0.472992
vt 0.375293 0.329132
vt 0.422317 0.472928
vt 0.488044 0.340631
vt 0.417185 0.246583
vt 0.261873 0.340623
vt 0.333393 0.246767
vt 0.375302 0.164247
vt 0.332254 0.332011
vt 0.418335 0.331654
vn 0.413483 -0.411939 0.811996
vn -0.409219 -0.412796 0.813719
vn 0.000055 0.537519 0.843252
vn 0.543184 -0.000001 0.839614
vn -0.538604 -0.000001 0.842559
vn -0.000008 -0.540177 0.841552
vn -0.409831 0.410938 0.814352
vn 0.413187 0.409180 0.813540
vn -0.184328 0.186017 0.965101
vn -0.184767 -0.186003 0.965020
vn 0.184622 -0.186316 0.964988
vn 0.185062 0.186298 0.964907
vn -0.442780 0.169696 0.880426
vn -0.167645 0.442982 0.880717
vn 0.169524 0.441784 0.880959
vn 0.446643 0.169613 0.878488
vn -0.000000 -0.000001 1.000000
vn -0.442682 -0.169707 0.880473
vn -0.168522 -0.444792 0.879636
vn 0.168189 -0.444927 0.879632
vn 0.447001 -0.169581 0.878312
s off
f 10/1/1 8/2/1 2/3/1
f 9/4/2 1/5/2 6/6/2
f 5/7/3 14/8/3 7/9/3
f 2/3/4 3/10/4 13/11/4
f 4/12/5 1/5/5 15/13/5
f 6/6/6 8/2/6 16/14/6
f 12/15/7 5/7/7 4/12/7
f 11/16/8 3/10/8 7/9/8
f 15/13/9 14/8/9 12/15/9
f 15/13/10 9/4/10 16/14/10
f 13/11/11 16/14/11 10/1/11
f 13/11/12 11/16/12 14/8/12
f 15/13/13 12/15/13 4/12/13
f 12/15/14 14/8/14 5/7/14
f 7/9/15 14/8/15 11/16/15
f 3/10/16 11/16/16 13/11/16
f 16/14/17 13/11/17 15/13/17
f 9/4/18 15/13/18 1/5/18
f 16/14/19 9/4/19 6/6/19
f 10/1/20 16/14/20 8/2/20
f 13/11/21 10/1/21 2/3/21
f 13/11/17 14/8/17 15/13/17
