# Blender v2.69 (sub 0) OBJ File: 'gems.blend'
# www.blender.org
o GEM_6_Plane.004
v 0.683545 -0.683545 0.001869
v -0.683545 -0.683545 0.001869
v 0.683545 0.683545 0.001870
v -0.683545 0.683545 0.001870
v 0.000000 0.978039 0.001870
v -0.978039 0.000000 0.001870
v 0.978039 0.000000 0.001870
v 0.000000 -0.978039 0.001869
v 0.377185 -0.377185 0.345694
v -0.377185 -0.377185 0.345694
v 0.377185 0.377185 0.345694
v -0.377185 0.377185 0.345694
v 0.000000 0.539730 0.345694
v -0.539730 0.000000 0.345694
v 0.539730 0.000000 0.345694
v 0.000000 -0.539730 0.345694
vt 0.569021 0.199960
vt 0.600793 0.132084
vt 0.647470 0.134871
vt 0.650535 0.360530
vt 0.682070 0.289999
vt 0.677985 0.486655
vt 0.603201 0.357194
vt 0.577424 0.486655
vt 0.504390 0.348396
vt 0.574436 0.006633
vt 0.672704 0.008138
vt 0.744591 0.142152
vt 0.682328 0.197023
vt 0.567679 0.294538
vt 0.505579 0.148236
vt 0.745922 0.339663
vn 0.000000 -0.000000 1.000000
vn 0.257040 0.596461 0.760372
vn -0.257040 0.596461 0.760372
vn -0.596439 0.256965 0.760414
vn 0.256966 -0.596439 0.760414
vn 0.596438 -0.256967 0.760414
vn 0.596461 0.257040 0.760371
vn -0.596461 -0.257041 0.760371
vn -0.256966 -0.596439 0.760414
vn -0.000000 -0.000001 1.000000
vn 0.256966 0.596438 0.760414
vn -0.256966 0.596438 0.760414
vn -0.596461 0.257040 0.760371
vn 0.257040 -0.596461 0.760371
vn 0.596461 -0.257041 0.760371
vn 0.596439 0.256965 0.760414
vn -0.596438 -0.256967 0.760414
vn -0.257040 -0.596461 0.760371
s off
f 10/1/1 16/2/1 9/3/1
f 13/4/2 11/5/2 5/6/2
f 13/4/3 5/6/3 12/7/3
f 12/7/4 4/8/4 6/9/4
f 8/10/5 1/11/5 9/3/5
f 9/3/6 1/11/6 7/12/6
f 15/13/7 7/12/7 11/5/7
f 10/1/8 14/14/8 6/9/8
f 10/1/9 2/15/9 8/10/9
f 14/14/10 10/1/10 12/7/10
f 10/1/10 9/3/10 12/7/10
f 9/3/10 15/13/10 11/5/10
f 12/7/10 9/3/10 13/4/10
f 9/3/10 11/5/10 13/4/10
f 11/5/11 3/16/11 5/6/11
f 5/6/12 4/8/12 12/7/12
f 14/14/13 12/7/13 6/9/13
f 16/2/14 8/10/14 9/3/14
f 15/13/15 9/3/15 7/12/15
f 7/12/16 3/16/16 11/5/16
f 2/15/17 10/1/17 6/9/17
f 16/2/18 10/1/18 8/10/18
