# Blender v2.69 (sub 0) OBJ File: 'gems.blend'
# www.blender.org
o GEM_6_PLATE_Plane.005
v 0.807469 -0.807469 0.002208
v -0.807469 -0.807469 0.002208
v 0.807469 0.807469 0.002209
v -0.807469 0.807469 0.002209
v 0.000000 1.155354 0.002209
v -1.155354 0.000000 0.002209
v 1.155354 0.000000 0.002209
v 0.000000 -1.155354 0.002208
vt 0.625684 0.007906
vt 0.705629 0.042523
vt 0.545613 0.042229
vt 0.545319 0.202244
vt 0.705334 0.202538
vt 0.625263 0.236861
vt 0.739951 0.122594
vt 0.510996 0.122173
vn 0.000000 -0.000000 1.000000
vn 0.000000 -0.000001 1.000000
s off
f 8/1/1 1/2/1 2/3/1
f 4/4/1 3/5/1 5/6/1
f 1/2/2 7/7/2 3/5/2
f 2/3/2 1/2/2 3/5/2
f 6/8/2 2/3/2 3/5/2
f 4/4/2 6/8/2 3/5/2
