# Blender v2.69 (sub 0) OBJ File: 'gems.blend'
# www.blender.org
o HINT_Plane.010
v -0.436336 0.302061 -0.011314
v -0.433336 -0.298726 -0.011315
v 0.511914 -0.083815 -0.011315
v 0.511914 0.082834 -0.011314
v -0.892825 -0.000003 -0.011314
v -0.491320 -0.082584 -0.011315
v -0.494247 0.082709 -0.011314
v 0.901184 -0.000554 -0.011314
v 0.444227 0.302439 -0.011314
v 0.451164 -0.302350 -0.011315
vt 0.961215 0.249372
vt 0.923535 0.232930
vt 0.917737 0.190538
vt 0.831516 0.306943
vt 0.787412 0.248053
vt 0.825993 0.264396
vt 0.923469 0.265220
vt 0.916824 0.307716
vt 0.832045 0.190538
vt 0.826342 0.232372
vn -0.000002 0.000002 1.000000
vn -0.000001 0.000001 1.000000
vn 0.000002 0.000002 1.000000
vn -0.000000 -0.000006 1.000000
vn 0.000001 0.000001 1.000000
vn 0.000000 -0.000005 1.000000
s off
f 8/1/1 3/2/1 10/3/1
f 1/4/2 5/5/2 7/6/2
f 4/7/3 8/1/3 9/8/3
f 4/7/4 3/2/4 8/1/4
f 5/5/5 2/9/5 6/10/5
f 7/6/6 5/5/6 6/10/6
f 4/7/4 7/6/4 3/2/4
f 7/6/6 6/10/6 3/2/6
