# Blender v2.69 (sub 0) OBJ File: 'gems.blend'
# www.blender.org
o HINT_Plane.010
v -0.549708 0.596017 -0.011314
v -0.546708 -0.595338 -0.011315
v 0.611797 -0.152439 -0.011315
v 0.611797 0.147031 -0.011314
v -1.258000 -0.000003 -0.011314
v -0.609474 -0.151208 -0.011315
v -0.612400 0.146906 -0.011314
v 1.274118 -0.000554 -0.011314
v 0.565890 0.596395 -0.011314
v 0.572828 -0.598962 -0.011315
v 0.611797 -0.000491 0.035666
v -0.610937 0.000062 0.035666
vt 0.921624 0.631988
vt 0.826779 0.631610
vt 0.921497 0.623378
vt 0.827123 0.614562
vt 0.921694 0.614823
vt 0.827109 0.623115
vt 0.958435 0.623517
vt 0.915518 0.652919
vt 0.916383 0.593977
vt 0.789150 0.622959
vt 0.831826 0.652528
vt 0.832320 0.593976
vn -0.000031 0.303446 0.952849
vn -0.000299 -0.296604 0.955001
vn 0.000138 0.304719 0.952442
vn -0.000134 -0.295394 0.955375
vn 0.000001 0.000001 1.000000
vn 0.067464 0.302755 0.950678
vn 0.067584 -0.294719 0.953191
vn -0.000001 0.000001 1.000000
vn -0.000001 0.000000 1.000000
vn -0.069033 0.303367 0.950370
vn -0.069129 -0.296502 0.952527
vn 0.000001 0.000000 1.000000
s off
f 4/1/1 7/2/1 11/3/1
f 6/4/2 3/5/2 12/6/2
f 7/2/3 12/6/3 11/3/3
f 3/5/4 11/3/4 12/6/4
f 4/1/5 8/7/5 9/8/5
f 11/3/6 8/7/6 4/1/6
f 11/3/7 3/5/7 8/7/7
f 3/5/8 10/9/8 8/7/8
f 5/10/9 7/2/9 1/11/9
f 7/2/10 5/10/10 12/6/10
f 12/6/11 5/10/11 6/4/11
f 6/4/12 5/10/12 2/12/12
