# Blender v2.69 (sub 0) OBJ File: 'gems.blend'
# www.blender.org
o MARKER_Plane.013
v 1.004525 -1.004141 0.002200
v -0.999896 -1.004141 0.002200
v 1.004525 1.008744 0.002201
v -0.999896 1.008744 0.002201
v 0.824700 -0.824316 0.003712
v -0.820071 -0.824316 0.003712
v 0.824700 0.828919 0.003713
v -0.820071 0.828919 0.003713
v 0.913522 0.917741 0.076291
v 0.916554 -0.916170 0.076264
v -0.907904 -0.912148 0.076298
v -0.911059 0.919907 0.076272
v -0.841637 1.096630 0.000001
v -0.690211 0.901102 0.001645
v -0.767095 0.999770 0.080543
v 0.772949 0.997942 0.080558
v 0.850202 1.096630 0.000001
v 0.698064 0.901102 0.001645
v -1.087427 0.857867 0.000001
v -0.891899 0.705000 0.001645
v -0.990458 0.782722 0.080543
v -1.087427 -0.893060 -0.000001
v -0.891899 -0.733082 0.001644
v -0.987713 -0.810909 0.080565
v -0.882761 -1.092029 -0.000001
v -0.723956 -0.896501 0.001644
v -0.801111 -0.992414 0.080565
v 0.875804 -1.092029 -0.000001
v 0.719073 -0.896501 0.001644
v 0.799565 -0.995942 0.080535
v 1.092029 0.876021 0.000001
v 0.896501 0.719910 0.001645
v 0.993411 0.796686 0.080557
v 0.996019 -0.780544 0.080534
v 1.092029 -0.855134 -0.000001
v 0.896501 -0.701933 0.001644
vt 0.982591 0.710908
vt 0.973496 0.724711
vt 0.969356 0.701742
vt 0.769527 0.539570
vt 0.778660 0.527920
vt 0.782524 0.549031
vt 0.794388 0.733176
vt 0.778328 0.723910
vt 0.803536 0.720085
vt 0.960701 0.518413
vt 0.974072 0.527412
vt 0.951105 0.531707
vt 0.970511 0.504659
vt 0.986027 0.515362
vt 0.996463 0.721089
vt 0.985808 0.736949
vt 0.755617 0.528912
vt 0.766272 0.515518
vt 0.784838 0.746851
vt 0.766256 0.735794
vt 0.957573 0.734044
vt 0.948663 0.720818
vt 0.967446 0.747943
vt 0.769390 0.708431
vt 0.782628 0.699286
vt 0.755617 0.717919
vt 0.790937 0.518804
vt 0.800272 0.531933
vt 0.780390 0.504861
vt 0.983191 0.542808
vt 0.996997 0.533208
vt 0.969805 0.552157
vt 0.962092 0.713331
vt 0.790042 0.539261
vt 0.789961 0.712457
vt 0.962448 0.539099
vn 0.113987 -0.003632 0.993469
vn 0.042756 0.051119 0.997772
vn -0.560468 -0.119273 0.819543
vn -0.121067 -0.001892 0.992615
vn -0.018067 -0.019837 0.999634
vn 0.551963 0.137470 0.822459
vn 0.006012 0.111087 0.993774
vn -0.060884 0.063784 0.996094
vn 0.101504 -0.564830 0.818941
vn 0.001617 -0.128880 0.991638
vn 0.058473 -0.049593 0.997040
vn -0.118216 0.548548 0.827720
vn 0.187150 -0.539543 0.820895
vn 0.383767 -0.361229 0.849845
vn 0.531382 0.180494 0.827681
vn 0.353358 0.374091 0.857434
vn -0.512382 -0.198161 0.835582
vn -0.358064 -0.365822 0.859049
vn -0.163466 0.553350 0.816751
vn -0.366511 0.372416 0.852629
vn -0.007904 0.103763 0.994568
vn -0.106433 -0.570227 0.814563
vn 0.164504 0.543481 0.823144
vn -0.113681 -0.004944 0.993500
vn 0.562586 -0.104818 0.820067
vn -0.549510 0.168090 0.818404
vn 0.000122 -0.118107 0.992981
vn 0.133103 0.554999 0.821133
vn -0.193239 -0.516789 0.834019
vn 0.118839 0.003449 0.992889
vn 0.552109 -0.170535 0.816145
vn -0.558206 0.105018 0.823029
vn -0.340183 -0.367192 0.865705
vn 0.352251 0.361249 0.863376
vn 0.343492 -0.351130 0.871046
vn -0.358650 0.330808 0.872890
s 1
f 33/1/1 9/2/2 32/3/3
f 24/4/4 11/5/5 23/6/6
f 15/7/7 12/8/8 14/9/9
f 30/10/10 10/11/11 29/12/12
f 28/13/13 1/14/14 30/10/10
f 31/15/15 3/16/16 33/1/1
f 22/17/17 2/18/18 24/4/4
f 13/19/19 4/20/20 15/7/7
f 16/21/21 15/7/7 18/22/22
f 17/23/23 13/19/19 15/7/7
f 9/2/2 16/21/21 18/22/22
f 3/16/16 17/23/23 16/21/21
f 12/8/8 21/24/24 20/25/25
f 4/20/20 19/26/26 21/24/24
f 21/24/24 24/4/4 23/6/6
f 19/26/26 22/17/17 21/24/24
f 11/5/5 27/27/27 26/28/28
f 2/18/18 25/29/29 27/27/27
f 27/27/27 30/10/10 26/28/28
f 25/29/29 28/13/13 30/10/10
f 34/30/30 33/1/1 32/3/3
f 35/31/31 31/15/15 34/30/30
f 10/11/11 34/30/30 36/32/32
f 1/14/14 35/31/31 34/30/30
f 9/2/2 7/33/33 32/3/3
f 11/5/5 6/34/34 23/6/6
f 12/8/8 8/35/35 14/9/9
f 10/11/11 5/36/36 29/12/12
f 1/14/14 10/11/11 30/10/10
f 3/16/16 9/2/2 33/1/1
f 2/18/18 11/5/5 24/4/4
f 4/20/20 12/8/8 15/7/7
f 15/7/7 14/9/9 18/22/22
f 16/21/21 17/23/23 15/7/7
f 7/33/33 9/2/2 18/22/22
f 9/2/2 3/16/16 16/21/21
f 8/35/35 12/8/8 20/25/25
f 12/8/8 4/20/20 21/24/24
f 20/25/25 21/24/24 23/6/6
f 22/17/17 24/4/4 21/24/24
f 6/34/34 11/5/5 26/28/28
f 11/5/5 2/18/18 27/27/27
f 30/10/10 29/12/12 26/28/28
f 27/27/27 25/29/29 30/10/10
f 36/32/32 34/30/30 32/3/3
f 31/15/15 33/1/1 34/30/30
f 5/36/36 10/11/11 36/32/32
f 10/11/11 1/14/14 34/30/30
