# Blender v2.69 (sub 0) OBJ File: 'mine_entrance.blend'
# www.blender.org
o Cylinder_Cylinder.003
v 0.000000 1.000004 -5.590169
v 0.000000 0.999996 5.590170
v 0.382683 0.923883 -5.590169
v 0.382683 0.923876 5.590170
v 0.707107 0.707110 -5.590169
v 0.707107 0.707103 5.590170
v 0.923880 0.382687 -5.590169
v 0.923880 0.382680 5.590170
v 1.000000 0.000004 -5.590170
v 1.000000 -0.000004 5.590170
v 0.923880 -0.382680 -5.590170
v 0.923880 -0.382687 5.590169
v 0.707107 -0.707103 -5.590170
v 0.707107 -0.707110 5.590169
v 0.382683 -0.923876 -5.590170
v 0.382683 -0.923883 5.590169
v 0.000000 -0.999996 -5.590170
v 0.000000 -1.000004 5.590169
v -0.382683 -0.923876 -5.590170
v -0.382683 -0.923883 5.590169
v -0.707107 -0.707103 -5.590170
v -0.707107 -0.707111 5.590169
v -0.923880 -0.382680 -5.590170
v -0.923880 -0.382687 5.590169
v -1.000000 0.000004 -5.590170
v -1.000000 -0.000004 5.590170
v -0.923879 0.382687 -5.590169
v -0.923879 0.382680 5.590170
v -0.707107 0.707111 -5.590169
v -0.707107 0.707103 5.590170
v -0.382683 0.923883 -5.590169
v -0.382683 0.923876 5.590170
vt 0.999884 0.383918
vt 0.000111 0.383914
vt 0.999885 0.349028
vt 0.000110 0.349023
vt 0.999885 0.314137
vt 0.000110 0.314132
vt 0.999886 0.279247
vt 0.000110 0.279240
vt 0.999887 0.244357
vt 0.000110 0.244349
vt 0.999887 0.209466
vt 0.000110 0.209458
vt 0.999888 0.174576
vt 0.000110 0.174566
vt 0.999888 0.139686
vt 0.000110 0.139675
vt 0.999889 0.104795
vt 0.000110 0.104784
vt 0.999889 0.069905
vt 0.000110 0.069892
vt 0.999890 0.035014
vt 0.000111 0.035001
vt 0.999890 0.000124
vt 0.999881 0.558369
vt 0.000111 0.558369
vt 0.999882 0.523479
vt 0.000111 0.523478
vt 0.999882 0.488589
vt 0.000111 0.488587
vt 0.999883 0.453699
vt 0.105259 0.733997
vt 0.070369 0.733997
vt 0.137494 0.720645
vt 0.999884 0.418808
vt 0.000111 0.418805
vt 0.000111 0.453696
vt 0.245997 0.558589
vt 0.280887 0.558589
vt 0.213762 0.571941
vt 0.000111 0.000110
vt 0.013462 0.596612
vt 0.000110 0.663738
vt 0.000110 0.628847
vt 0.013462 0.695973
vt 0.038134 0.571941
vt 0.038134 0.720645
vt 0.070369 0.558589
vt 0.175518 0.628847
vt 0.137494 0.571941
vt 0.162166 0.596612
vt 0.105259 0.558589
vt 0.162166 0.695973
vt 0.175518 0.663738
vt 0.313122 0.720645
vt 0.351146 0.663738
vt 0.337794 0.695973
vt 0.351146 0.628847
vt 0.280887 0.733997
vt 0.175738 0.628847
vt 0.189090 0.695973
vt 0.175738 0.663738
vt 0.213761 0.720645
vt 0.189090 0.596612
vt 0.245996 0.733997
vt 0.337794 0.596612
vt 0.313122 0.571941
vn 0.195090 0.980785 0.000001
vn 0.555570 0.831470 0.000001
vn 0.831470 0.555570 0.000000
vn 0.980785 0.195090 0.000000
vn 0.980785 -0.195090 -0.000000
vn 0.831470 -0.555570 -0.000000
vn 0.555570 -0.831470 -0.000001
vn 0.195090 -0.980785 -0.000001
vn -0.195090 -0.980785 -0.000001
vn -0.555570 -0.831470 -0.000001
vn -0.831469 -0.555571 -0.000000
vn -0.980785 -0.195090 -0.000000
vn -0.980785 0.195091 0.000000
vn -0.831469 0.555571 0.000000
vn 0.000000 0.000000 1.000000
vn -0.195090 0.980785 0.000001
vn -0.555570 0.831470 0.000001
vn -0.000000 0.000000 -1.000000
vn -0.831470 -0.555570 -0.000000
vn -0.980785 0.195090 0.000000
vn 0.000008 -0.000001 1.000000
vn 0.000001 -0.000001 1.000000
vn 0.000000 -0.000001 1.000000
vn 0.000002 -0.000001 1.000000
vn -0.000001 -0.000000 1.000000
vn 0.000001 0.000000 1.000000
vn 0.000003 -0.000000 1.000000
vn -0.000003 0.000002 -1.000000
vn -0.000003 0.000001 -1.000000
vn 0.000008 0.000001 -1.000000
vn 0.000004 0.000001 -1.000000
vn 0.000000 0.000001 -1.000000
vn -0.000002 0.000001 -1.000000
vn 0.000001 0.000001 -1.000000
vn 0.000002 0.000001 -1.000000
s off
f 1/1/1 2/2/1 3/3/1
f 3/3/2 4/4/2 5/5/2
f 5/5/3 6/6/3 7/7/3
f 7/7/4 8/8/4 9/9/4
f 9/9/5 10/10/5 11/11/5
f 11/11/6 12/12/6 13/13/6
f 13/13/7 14/14/7 15/15/7
f 15/15/8 16/16/8 17/17/8
f 17/17/9 18/18/9 19/19/9
f 19/19/10 20/20/10 21/21/10
f 21/21/11 22/22/11 23/23/11
f 23/24/12 24/25/12 25/26/12
f 25/26/13 26/27/13 27/28/13
f 27/28/14 28/29/14 29/30/14
f 4/31/15 2/32/15 6/33/15
f 31/34/16 32/35/16 1/1/16
f 29/30/17 30/36/17 31/34/17
f 1/37/18 3/38/18 31/39/18
f 2/2/1 4/4/1 3/3/1
f 4/4/2 6/6/2 5/5/2
f 6/6/3 8/8/3 7/7/3
f 8/8/4 10/10/4 9/9/4
f 10/10/5 12/12/5 11/11/5
f 12/12/6 14/14/6 13/13/6
f 14/14/7 16/16/7 15/15/7
f 16/16/8 18/18/8 17/17/8
f 18/18/9 20/20/9 19/19/9
f 20/20/10 22/22/10 21/21/10
f 22/22/19 24/40/19 23/23/19
f 24/25/12 26/27/12 25/26/12
f 26/27/20 28/29/20 27/28/20
f 28/29/14 30/36/14 29/30/14
f 24/41/21 28/42/21 26/43/21
f 24/41/22 30/44/22 28/42/22
f 22/45/23 30/44/23 24/41/23
f 32/46/24 30/44/24 22/45/24
f 32/46/23 22/45/23 20/47/23
f 2/32/23 32/46/23 20/47/23
f 6/33/25 2/32/25 20/47/25
f 12/48/15 16/49/15 14/50/15
f 12/48/25 18/51/25 16/49/25
f 12/48/26 20/47/26 18/51/26
f 8/52/27 6/33/27 20/47/27
f 10/53/23 8/52/23 20/47/23
f 12/48/23 10/53/23 20/47/23
f 32/35/16 2/2/16 1/1/16
f 30/36/17 32/35/17 31/34/17
f 15/54/18 11/55/18 13/56/18
f 15/54/28 9/57/28 11/55/28
f 17/58/29 9/57/29 15/54/29
f 27/59/30 23/60/30 25/61/30
f 27/59/31 21/62/31 23/60/31
f 29/63/32 21/62/32 27/59/32
f 29/63/33 19/64/33 21/62/33
f 29/63/34 17/58/34 19/64/34
f 29/63/32 9/57/32 17/58/32
f 29/63/35 7/65/35 9/57/35
f 5/66/18 7/65/18 29/63/18
f 3/38/18 5/66/18 31/39/18
f 5/66/18 29/63/18 31/39/18
