# Blender v2.69 (sub 0) OBJ File: 'mine.blend'
# www.blender.org
o pickaxe_Cube.001
v -0.003187 -2.159867 0.085271
v -0.003187 0.647865 0.085271
v -0.102107 -2.159867 0.060296
v -0.102107 0.647865 0.060296
v -0.143082 -2.159867 0.000001
v -0.143082 0.647865 0.000001
v -0.102107 -2.159867 -0.060294
v -0.102107 0.647865 -0.060294
v -0.003187 -2.159867 -0.085269
v -0.003187 0.647865 -0.085269
v 0.095734 -2.159867 -0.060294
v 0.095734 0.647865 -0.060294
v 0.136708 -2.159867 0.000001
v 0.136708 0.647865 0.000001
v 0.095734 -2.159867 0.060296
v 0.095734 0.647865 0.060296
v 0.138103 0.576551 -0.131469
v 0.123645 0.314010 -0.131469
v -0.121241 0.314010 -0.131469
v -0.135699 0.576551 -0.131469
v 0.138103 0.576551 0.131470
v 0.123645 0.314010 0.131470
v -0.121242 0.314010 0.131470
v -0.135699 0.576551 0.131470
v 1.512721 -0.088464 -0.000002
v 1.227215 0.054333 -0.048872
v 0.957827 0.171258 -0.071799
v 0.678595 0.252448 -0.094726
v 0.394187 0.297297 -0.117653
v 0.434710 0.529088 -0.117653
v 0.734373 0.433503 -0.094726
v 1.016985 0.302103 -0.071799
v 1.278336 0.137641 -0.048872
v 1.227215 0.054333 0.048870
v 0.957827 0.171258 0.071798
v 0.678596 0.252448 0.094726
v 0.394187 0.297297 0.117653
v 1.278335 0.137641 0.048870
v 1.016985 0.302103 0.071798
v 0.734373 0.433503 0.094726
v 0.434710 0.529088 0.117653
v -0.432277 0.529088 0.117653
v -0.731940 0.433503 0.094726
v -1.014551 0.302103 0.071798
v -1.275902 0.137641 0.048870
v -0.391754 0.297297 0.117653
v -0.676162 0.252448 0.094726
v -0.955393 0.171258 0.071798
v -1.224781 0.054333 0.048870
v -1.275902 0.137641 -0.048872
v -1.014551 0.302103 -0.071799
v -0.731940 0.433503 -0.094726
v -0.432276 0.529088 -0.117653
v -0.391753 0.297297 -0.117653
v -0.676162 0.252448 -0.094726
v -0.955393 0.171258 -0.071799
v -1.224781 0.054333 -0.048872
v -1.510288 -0.088464 -0.000002
vt 0.838202 0.619530
vt 0.011713 0.619525
vt 0.838202 0.589496
vt 0.011713 0.589493
vt 0.838202 0.568036
vt 0.011713 0.568033
vt 0.838203 0.546575
vt 0.011713 0.546574
vt 0.838203 0.516542
vt 0.838201 0.722508
vt 0.011713 0.722508
vt 0.838201 0.692477
vt 0.011713 0.692475
vt 0.838201 0.671019
vt 0.084697 0.974576
vt 0.084697 0.953117
vt 0.104649 0.982476
vt 0.838202 0.649560
vt 0.011713 0.649557
vt 0.011713 0.671016
vt 0.036144 0.982476
vt 0.016193 0.974576
vt 0.016193 0.953117
vt 0.545079 0.846759
vt 0.472993 0.846759
vt 0.545078 0.924158
vt 0.459726 0.832293
vt 0.540323 0.832293
vt 0.459725 0.754894
vt 0.581066 0.496317
vt 0.576812 0.419034
vt 0.500468 0.496315
vt 0.425940 0.105793
vt 0.430195 0.183076
vt 0.506538 0.105794
vt 0.765840 0.186652
vt 0.748460 0.225180
vt 0.828018 0.259639
vt 0.656553 0.414109
vt 0.624867 0.850826
vt 0.540322 0.754893
vt 0.628744 0.758959
vt 0.913036 0.302142
vt 0.843036 0.235101
vt 0.682396 0.147941
vt 0.666003 0.201243
vt 0.341008 0.400864
vt 0.258547 0.376927
vt 0.324616 0.454169
vt 0.178982 0.342469
vt 0.241167 0.415458
vt 0.163964 0.367010
vt 0.093953 0.299968
vt 0.136406 0.899835
vt 0.136408 0.871062
vt 0.042433 0.885443
vt 0.222857 0.864317
vt 0.308458 0.857571
vt 0.308456 0.913340
vt 0.096100 0.779209
vt 0.000246 0.793593
vt 0.096100 0.807978
vt 0.186990 0.772461
vt 0.186990 0.814728
vt 0.278728 0.765711
vt 0.278728 0.821477
vt 0.424993 0.414104
vt 0.413073 0.482337
vt 0.393213 0.850824
vt 0.393211 0.920090
vt 0.371314 0.758962
vt 0.371315 0.828226
vt 0.338544 0.119768
vt 0.250083 0.147934
vt 0.266475 0.201240
vt 0.502281 0.183076
vt 0.582021 0.188003
vt 0.166630 0.186644
vt 0.184010 0.225178
vt 0.104437 0.259638
vt 0.089418 0.235093
vt 0.019393 0.302143
vt 0.350462 0.188002
vt 0.593941 0.119772
vt 0.628744 0.828226
vt 0.721334 0.765707
vt 0.624868 0.920091
vt 0.709619 0.857574
vt 0.668471 0.482342
vt 0.740538 0.400871
vt 0.721335 0.821477
vt 0.813081 0.772455
vt 0.813081 0.814728
vt 0.903985 0.779205
vt 0.903985 0.807979
vt 0.999861 0.793593
vt 0.709621 0.913340
vt 0.795216 0.864320
vt 0.795218 0.906588
vt 0.881657 0.871063
vt 0.881659 0.899833
vt 0.975620 0.885439
vt 0.917582 0.367015
vt 0.987591 0.299968
vt 0.902564 0.342475
vt 0.822999 0.376934
vt 0.840379 0.415465
vt 0.756930 0.454175
vt 0.504726 0.419032
vt 0.011713 0.516542
vt 0.132865 0.972190
vt 0.104649 0.930670
vt 0.132865 0.920384
vt 0.152817 0.928284
vt 0.152817 0.949743
vt 0.064360 0.972190
vt 0.036144 0.930670
vt 0.084312 0.949743
vt 0.084312 0.928284
vt 0.064360 0.920384
vt 0.472993 0.924158
vt 0.222855 0.906588
vn -0.244794 -0.000000 0.969575
vn -0.827095 0.000000 0.562063
vn -0.827095 0.000000 -0.562063
vn -0.244794 0.000000 -0.969575
vn 0.244794 0.000000 -0.969575
vn 0.827095 0.000000 -0.562063
vn 0.000000 1.000000 -0.000002
vn 0.244794 0.000000 0.969575
vn 0.827095 0.000000 0.562063
vn 0.000000 -1.000000 0.000000
vn -0.000000 -1.000000 -0.000001
vn 0.000000 1.000000 0.000001
vn -0.000001 0.000001 -1.000000
vn 0.000001 -0.000001 1.000000
vn 0.070933 -0.032070 0.996965
vn 0.050828 -0.002799 -0.998703
vn -0.061658 -0.998097 -0.000000
vn 0.158010 0.987438 0.000001
vn 0.129458 -0.079440 0.988398
vn 0.075126 -0.023144 0.996905
vn -0.075124 -0.023143 -0.996906
vn -0.070930 -0.032069 -0.996966
vn -0.129455 -0.079439 -0.988398
vn 0.447321 -0.894373 -0.000001
vn 0.398153 -0.917319 -0.000001
vn 0.279199 -0.960233 -0.000001
vn -0.694279 0.719706 0.000001
vn -0.532599 0.846367 0.000000
vn -0.421605 0.906780 0.000000
vn -0.078202 -0.013671 -0.996844
vn 0.155768 -0.987794 -0.000000
vn -0.303889 0.952707 0.000000
vn -0.069481 -0.021405 0.997354
vn 0.050830 -0.002800 0.998703
vn -0.158025 0.987435 0.000000
vn -0.066856 -0.030227 0.997305
vn -0.129458 -0.079440 0.988398
vn -0.045271 -0.007915 0.998943
vn -0.063115 -0.038729 0.997254
vn 0.078205 -0.013673 0.996844
vn 0.303889 0.952707 0.000000
vn -0.155768 -0.987794 -0.000000
vn 0.078202 -0.013671 -0.996844
vn 0.421605 0.906780 0.000000
vn 0.532600 0.846367 0.000000
vn 0.694279 0.719706 0.000001
vn -0.279199 -0.960233 -0.000000
vn -0.398153 -0.917319 -0.000000
vn -0.447322 -0.894373 -0.000001
vn 0.129455 -0.079439 -0.988398
vn 0.070930 -0.032069 -0.996966
vn 0.075124 -0.023143 -0.996906
vn -0.050833 -0.002799 -0.998703
vn 0.061665 -0.998097 -0.000000
vn -0.000000 1.000000 -0.000001
vn -0.000000 1.000000 0.000000
vn 0.000000 -1.000000 -0.000002
vn 0.000000 -1.000000 0.000001
vn 0.000000 -1.000000 0.000012
vn 0.063115 -0.038730 0.997254
vn 0.045264 -0.007913 -0.998944
vn -0.061659 -0.998097 -0.000000
vn 0.158009 0.987438 -0.000000
vn 0.066856 -0.030227 0.997305
vn -0.066853 -0.030226 -0.997305
vn -0.063113 -0.038728 -0.997255
vn 0.398152 -0.917319 -0.000000
vn 0.279199 -0.960233 -0.000000
vn -0.532600 0.846367 0.000001
vn -0.069479 -0.021404 -0.997354
vn 0.155768 -0.987794 -0.000001
vn -0.303889 0.952707 0.000001
vn -0.078205 -0.013673 0.996844
vn 0.045266 -0.007914 0.998944
vn -0.158025 0.987435 0.000001
vn -0.075126 -0.023144 0.996905
vn -0.050837 -0.002800 0.998703
vn -0.070933 -0.032070 0.996965
vn 0.069481 -0.021405 0.997354
vn -0.155767 -0.987794 -0.000000
vn 0.069479 -0.021404 -0.997354
vn 0.532599 0.846368 0.000001
vn -0.398152 -0.917319 -0.000001
vn 0.063113 -0.038728 -0.997255
vn 0.066853 -0.030225 -0.997305
vn -0.045268 -0.007913 -0.998944
vn 0.061665 -0.998097 -0.000001
s off
f 1/1/1 2/2/1 3/3/1
f 3/3/2 4/4/2 5/5/2
f 5/5/3 6/6/3 7/7/3
f 7/7/4 8/8/4 9/9/4
f 9/10/5 10/11/5 11/12/5
f 11/12/6 12/13/6 13/14/6
f 6/15/7 4/16/7 8/17/7
f 15/18/8 16/19/8 1/1/8
f 13/14/9 14/20/9 15/18/9
f 3/21/10 5/22/10 7/23/10
f 22/24/11 23/25/11 18/26/11
f 24/27/12 21/28/12 20/29/12
f 17/30/13 18/31/13 20/32/13
f 24/33/14 23/34/14 21/35/14
f 39/36/15 35/37/15 34/38/15
f 18/31/16 17/30/16 29/39/16
f 22/24/17 18/26/17 37/40/17
f 17/41/18 21/28/18 30/42/18
f 34/38/19 25/43/19 38/44/19
f 40/45/20 36/46/20 35/37/20
f 55/47/21 56/48/21 52/49/21
f 56/48/22 57/50/22 51/51/22
f 50/52/23 57/50/23 58/53/23
f 57/54/24 49/55/24 58/56/24
f 48/57/25 49/55/25 57/54/25
f 47/58/26 48/57/26 55/59/26
f 50/60/27 58/61/27 45/62/27
f 51/63/28 50/60/28 44/64/28
f 52/65/29 51/63/29 43/66/29
f 54/67/30 55/47/30 53/68/30
f 46/69/31 47/58/31 54/70/31
f 53/71/32 52/65/32 42/72/32
f 42/73/33 43/74/33 47/75/33
f 21/35/34 22/76/34 37/77/34
f 20/29/35 53/71/35 24/27/35
f 43/74/36 44/78/36 48/79/36
f 49/80/37 45/81/37 58/82/37
f 24/33/38 42/73/38 46/83/38
f 44/78/39 45/81/39 49/80/39
f 41/84/40 37/77/40 36/46/40
f 30/42/41 41/85/41 31/86/41
f 37/40/42 29/87/42 36/88/42
f 29/39/43 30/89/43 28/90/43
f 31/86/44 40/91/44 32/92/44
f 32/92/45 39/93/45 33/94/45
f 33/94/46 38/95/46 25/96/46
f 36/88/47 28/97/47 35/98/47
f 35/98/48 27/99/48 34/100/48
f 26/101/49 25/102/49 34/100/49
f 33/103/50 25/104/50 26/105/50
f 27/106/51 32/107/51 26/105/51
f 28/90/52 31/108/52 27/106/52
f 19/109/53 54/67/53 20/32/53
f 23/25/54 46/69/54 54/70/54
f 2/2/1 4/4/1 3/3/1
f 4/4/2 6/6/2 5/5/2
f 6/6/3 8/8/3 7/7/3
f 8/8/4 10/110/4 9/9/4
f 10/11/5 12/13/5 11/12/5
f 12/13/6 14/20/6 13/14/6
f 8/17/55 4/16/55 10/111/55
f 4/16/55 2/112/55 10/111/55
f 2/112/56 16/113/56 10/111/56
f 16/113/7 14/114/7 10/111/7
f 14/114/56 12/115/56 10/111/56
f 16/19/8 2/2/8 1/1/8
f 14/20/9 16/19/9 15/18/9
f 1/116/10 3/21/10 7/23/10
f 1/116/57 7/23/57 9/117/57
f 15/118/58 1/116/58 9/117/58
f 13/119/57 15/118/57 9/117/57
f 11/120/59 13/119/59 9/117/59
f 23/25/11 19/121/11 18/26/11
f 21/28/12 17/41/12 20/29/12
f 18/31/13 19/109/13 20/32/13
f 23/34/14 22/76/14 21/35/14
f 38/44/60 39/36/60 34/38/60
f 17/30/61 30/89/61 29/39/61
f 18/26/62 29/87/62 37/40/62
f 21/28/63 41/85/63 30/42/63
f 39/36/64 40/45/64 35/37/64
f 56/48/65 51/51/65 52/49/65
f 57/50/66 50/52/66 51/51/66
f 56/122/67 48/57/67 57/54/67
f 48/57/68 56/122/68 55/59/68
f 50/60/69 45/62/69 44/64/69
f 51/63/29 44/64/29 43/66/29
f 55/47/70 52/49/70 53/68/70
f 47/58/71 55/59/71 54/70/71
f 52/65/72 43/66/72 42/72/72
f 46/83/73 42/73/73 47/75/73
f 41/84/74 21/35/74 37/77/74
f 53/71/75 42/72/75 24/27/75
f 47/75/76 43/74/76 48/79/76
f 23/34/77 24/33/77 46/83/77
f 48/79/78 44/78/78 49/80/78
f 40/45/79 41/84/79 36/46/79
f 41/85/41 40/91/41 31/86/41
f 29/87/80 28/97/80 36/88/80
f 30/89/81 31/108/81 28/90/81
f 40/91/44 39/93/44 32/92/44
f 39/93/82 38/95/82 33/94/82
f 28/97/47 27/99/47 35/98/47
f 27/99/83 26/101/83 34/100/83
f 32/107/84 33/103/84 26/105/84
f 31/108/85 32/107/85 27/106/85
f 54/67/86 53/68/86 20/32/86
f 19/121/87 23/25/87 54/70/87
