# Blender v2.69 (sub 0) OBJ File: 'cart.blend'
# www.blender.org
o railroad_Cube.005
v 4.093184 -0.363000 1.816541
v 2.614045 -0.363000 1.816542
v 2.614043 -0.363000 -1.783458
v 4.093183 -0.363000 -1.783459
v 4.093184 0.122001 1.816541
v 2.614045 0.122001 1.816542
v 2.614043 0.122001 -1.783458
v 4.093183 0.122001 -1.783459
v -2.551797 -0.363000 1.816541
v -4.030936 -0.363000 1.816541
v -4.030938 -0.363000 -1.783459
v -2.551798 -0.363000 -1.783459
v -2.551797 0.122001 1.816541
v -4.030936 0.122001 1.816541
v -4.030938 0.122001 -1.783459
v -2.551798 0.122001 -1.783459
v 0.774458 -0.363000 1.816540
v -0.717996 -0.363000 1.816540
v -0.717997 -0.363000 -1.783460
v 0.774457 -0.363000 -1.783460
v 0.774458 0.122001 1.816540
v -0.717996 0.122001 1.816540
v -0.717997 0.122001 -1.783460
v 0.774457 0.122001 -1.783460
v 5.006191 0.632695 1.267635
v 5.006190 0.632695 0.957889
v 5.006190 0.126886 1.267635
v -4.997644 0.461804 1.208808
v -4.997644 0.499931 1.267242
v -4.997644 0.499931 -0.958139
v -4.997644 0.461804 -1.016572
v 5.006190 0.126886 -0.957745
v 5.006190 0.632695 -1.267492
v 5.006191 0.632695 -0.957745
v 5.006190 0.461800 -1.016578
v -4.997644 0.632700 -0.957739
v -4.997644 0.632700 -1.267486
v -4.997645 0.126890 -0.957739
v 5.006191 0.499927 -0.958145
v 5.006190 0.461800 1.208803
v -4.997644 0.632700 1.267641
v -4.997644 0.632700 0.957895
v -4.997645 0.126890 1.267641
v 5.006191 0.499927 1.267236
vt 0.000234 0.601871
vt 0.156668 0.601871
vt 0.000234 0.655080
vt 0.395660 0.548193
vt 0.790620 0.548193
vt 0.395660 0.601403
vt 0.790620 0.391759
vt 0.395660 0.391759
vt 0.790620 0.338549
vt 0.000234 0.655548
vt 0.156668 0.655548
vt 0.000234 0.708758
vt 0.000234 0.548193
vt 0.395193 0.548193
vt 0.000234 0.601403
vt 0.395193 0.391759
vt 0.000234 0.391759
vt 0.395193 0.338549
vt 0.238759 0.709225
vt 0.395193 0.709225
vt 0.238759 0.762435
vt 0.395660 0.811515
vt 0.790620 0.811515
vt 0.395660 0.864725
vt 0.790620 0.655080
vt 0.395660 0.655080
vt 0.790620 0.601870
vt 0.000483 0.069063
vt 0.999512 0.069063
vt 0.000556 0.051626
vt 0.000738 0.034192
vt 0.999767 0.034192
vt 0.000738 0.000234
vt 0.000483 0.099995
vt 0.999512 0.099997
vt 0.000483 0.269153
vt 0.999512 0.269154
vt 0.000483 0.238220
vt 0.000738 0.203350
vt 0.999766 0.203350
vt 0.000738 0.169391
vt 0.999512 0.238220
vt 0.000555 0.220784
vt 0.999584 0.220783
vt 0.999584 0.051626
vt 0.156668 0.655080
vt 0.790620 0.601403
vt 0.395660 0.338549
vt 0.156668 0.708758
vt 0.395193 0.601403
vt 0.000234 0.338549
vt 0.395193 0.762435
vt 0.790620 0.864725
vt 0.395660 0.601870
vt 0.999766 0.000234
vt 0.999766 0.169391
vn 0.000000 0.000000 1.000000
vn -1.000000 0.000000 0.000000
vn 1.000000 0.000000 -0.000000
vn 0.000000 1.000000 0.000000
vn -1.000000 0.000000 0.000001
vn 0.000001 -0.003009 0.999995
vn 0.000001 0.173016 0.984919
vn -0.000000 -0.837489 0.546454
vn -0.000000 -0.837490 0.546452
s off
f 5/1/1 6/2/1 1/3/1
f 6/4/2 7/5/2 2/6/2
f 8/7/3 5/8/3 4/9/3
f 8/7/4 7/5/4 5/8/4
f 13/10/1 14/11/1 9/12/1
f 14/13/5 15/14/5 10/15/5
f 16/16/3 13/17/3 12/18/3
f 16/16/4 15/14/4 13/17/4
f 21/19/1 22/20/1 17/21/1
f 22/22/2 23/23/2 18/24/2
f 24/25/3 21/26/3 20/27/3
f 24/25/4 23/23/4 21/26/4
f 25/28/6 41/29/6 44/30/6
f 40/31/7 28/32/7 27/33/7
f 26/34/4 42/35/4 25/28/4
f 33/36/4 37/37/4 34/38/4
f 35/39/7 31/40/7 32/41/7
f 34/38/6 36/42/6 39/43/6
f 39/43/8 30/44/8 35/39/8
f 44/30/8 29/45/8 40/31/8
f 6/2/1 2/46/1 1/3/1
f 7/5/2 3/47/2 2/6/2
f 5/8/3 1/48/3 4/9/3
f 7/5/4 6/4/4 5/8/4
f 14/11/1 10/49/1 9/12/1
f 15/14/5 11/50/5 10/15/5
f 13/17/3 9/51/3 12/18/3
f 15/14/4 14/13/4 13/17/4
f 22/20/1 18/52/1 17/21/1
f 23/23/2 19/53/2 18/24/2
f 21/26/3 17/54/3 20/27/3
f 23/23/4 22/22/4 21/26/4
f 41/29/6 29/45/6 44/30/6
f 28/32/7 43/55/7 27/33/7
f 42/35/4 41/29/4 25/28/4
f 37/37/4 36/42/4 34/38/4
f 31/40/7 38/56/7 32/41/7
f 36/42/6 30/44/6 39/43/6
f 30/44/9 31/40/9 35/39/9
f 29/45/9 28/32/9 40/31/9
