# Blender v2.69 (sub 0) OBJ File: 'mine_rocks.blend'
# www.blender.org
o LowPolyRock
v 1.638874 0.509024 -0.043396
v 1.291656 -0.553676 1.089857
v 0.946951 -0.358822 1.312249
v -0.864137 -0.218915 1.425091
v 0.250338 0.352836 -1.629236
v -0.280090 1.584021 -0.362550
v 0.003838 -1.413745 1.070018
v -0.225212 -1.378122 0.883358
v 0.759202 -0.981958 1.244675
v 0.626235 -1.568411 0.929501
v 0.928228 -1.361957 0.820609
v 0.669051 -1.551919 -0.411498
v -1.304928 -1.204849 -0.105767
v -0.812723 -1.562276 -0.045486
v 0.041894 -1.189934 -1.306001
v -0.021885 -0.907011 -1.462962
v 1.643286 0.155527 -0.041231
v 1.484911 -0.450021 -0.516364
v 1.494377 -0.492531 -0.332903
v 0.427869 0.093127 1.656240
v 0.155464 -0.764187 1.576814
v 1.193159 -0.679733 1.165773
v -1.446717 -0.739029 0.518366
v -1.196233 -0.809057 0.964328
v -1.124016 0.028261 -1.266230
v -0.560109 -0.955353 -1.151228
v -0.016316 -0.171725 -1.654745
v 0.134321 -0.733931 -1.532908
v 1.085839 0.362785 1.264928
v 1.439479 -0.510813 0.881651
v -0.134858 0.751922 1.451619
v -1.561165 0.442771 -0.367645
v -1.528198 0.062015 -0.593147
v -1.544422 -0.251260 0.314888
v -0.952192 0.370821 -1.335682
v 1.354395 -0.355269 -0.741385
v 1.136988 0.085965 -1.262774
v -0.566477 1.345565 0.678658
v -0.322202 1.249827 0.919573
v -0.584741 1.272981 1.008768
v -0.750891 1.181678 1.247074
v 0.364427 0.866144 1.471231
v 0.180441 0.734508 1.586342
v -0.647268 1.439781 -0.189427
v -1.358472 0.859343 0.136580
v -1.124455 1.158394 -0.654597
v -1.366143 0.723691 0.942714
v -0.090156 1.694293 -0.861553
v 0.050017 1.664397 -0.896668
v -0.513325 1.309130 -0.753389
v -0.073049 0.935608 -1.289711
v 0.364946 1.535583 -0.615172
v 0.915638 1.306482 -0.457120
v 1.298461 1.197098 -0.258299
v 1.444519 0.995141 -0.531190
v 1.501630 1.010007 -0.371306
v 0.155464 -0.764187 1.576814
v 0.155464 -0.764187 1.576814
v 0.155464 -0.764187 1.576814
v 0.003838 -1.413745 1.070018
v 0.003838 -1.413745 1.070018
v 0.759202 -0.981958 1.244675
v 0.759202 -0.981958 1.244675
v 1.193159 -0.679733 1.165773
v 1.193159 -0.679733 1.165773
v 1.193159 -0.679733 1.165773
v 1.193159 -0.679733 1.165773
v -0.225212 -1.378122 0.883358
v -0.225212 -1.378122 0.883358
v 0.626235 -1.568411 0.929501
v 0.626235 -1.568411 0.929501
v 0.626235 -1.568411 0.929501
v 0.928228 -1.361957 0.820609
v 0.928228 -1.361957 0.820609
v 1.494377 -0.492531 -0.332903
v 1.494377 -0.492531 -0.332903
v 0.669051 -1.551919 -0.411498
v 0.669051 -1.551919 -0.411498
v 0.669051 -1.551919 -0.411498
v 0.669051 -1.551919 -0.411498
v -1.196233 -0.809057 0.964328
v -1.196233 -0.809057 0.964328
v -0.812723 -1.562276 -0.045486
v -0.812723 -1.562276 -0.045486
v -0.560109 -0.955353 -1.151228
v -0.560109 -0.955353 -1.151228
v -0.560109 -0.955353 -1.151228
v -1.304928 -1.204849 -0.105767
v -1.304928 -1.204849 -0.105767
v -1.304928 -1.204849 -0.105767
v 0.134321 -0.733931 -1.532908
v 0.134321 -0.733931 -1.532908
v 0.134321 -0.733931 -1.532908
v 0.041894 -1.189934 -1.306001
v 0.041894 -1.189934 -1.306001
v 0.041894 -1.189934 -1.306001
v -0.021885 -0.907011 -1.462962
v -0.021885 -0.907011 -1.462962
v 1.354395 -0.355269 -0.741385
v 1.354395 -0.355269 -0.741385
v 1.638874 0.509024 -0.043396
v 1.638874 0.509024 -0.043396
v 1.643286 0.155527 -0.041231
v 1.643286 0.155527 -0.041231
v 1.484911 -0.450021 -0.516364
v 1.484911 -0.450021 -0.516364
v 0.946951 -0.358822 1.312249
v 0.946951 -0.358822 1.312249
v 0.946951 -0.358822 1.312249
v 0.427869 0.093127 1.656240
v 0.427869 0.093127 1.656240
v -0.864137 -0.218915 1.425091
v -0.864137 -0.218915 1.425091
v 1.291656 -0.553676 1.089857
v 1.291656 -0.553676 1.089857
v -1.446717 -0.739029 0.518366
v -1.446717 -0.739029 0.518366
v -1.544422 -0.251260 0.314888
v -1.544422 -0.251260 0.314888
v -1.366143 0.723691 0.942714
v -1.366143 0.723691 0.942714
v -1.366143 0.723691 0.942714
v -0.952192 0.370821 -1.335682
v -0.952192 0.370821 -1.335682
v -0.952192 0.370821 -1.335682
v -1.124016 0.028261 -1.266230
v -1.124016 0.028261 -1.266230
v -1.528198 0.062015 -0.593147
v -1.528198 0.062015 -0.593147
v 0.250338 0.352836 -1.629236
v 0.250338 0.352836 -1.629236
v -0.016316 -0.171725 -1.654745
v -0.016316 -0.171725 -1.654745
v 1.085839 0.362785 1.264928
v 1.085839 0.362785 1.264928
v 1.439479 -0.510813 0.881651
v 1.439479 -0.510813 0.881651
v 0.180441 0.734508 1.586342
v 0.180441 0.734508 1.586342
v -1.561165 0.442771 -0.367645
v -1.561165 0.442771 -0.367645
v -1.561165 0.442771 -0.367645
v -1.358472 0.859343 0.136580
v -1.358472 0.859343 0.136580
v 1.136988 0.085965 -1.262774
v 1.136988 0.085965 -1.262774
v 1.136988 0.085965 -1.262774
v 1.444519 0.995141 -0.531190
v 1.444519 0.995141 -0.531190
v 0.364427 0.866144 1.471231
v 0.364427 0.866144 1.471231
v 0.364427 0.866144 1.471231
v -0.584741 1.272981 1.008768
v -0.584741 1.272981 1.008768
v -0.750891 1.181678 1.247074
v -0.750891 1.181678 1.247074
v -0.750891 1.181678 1.247074
v -0.134858 0.751922 1.451619
v -0.134858 0.751922 1.451619
v -0.280090 1.584021 -0.362550
v -0.280090 1.584021 -0.362550
v -0.280090 1.584021 -0.362550
v -0.566477 1.345565 0.678658
v -0.566477 1.345565 0.678658
v -0.566477 1.345565 0.678658
v -0.322202 1.249827 0.919573
v -0.322202 1.249827 0.919573
v 1.298461 1.197098 -0.258299
v 1.298461 1.197098 -0.258299
v -0.647268 1.439781 -0.189427
v -0.647268 1.439781 -0.189427
v -1.124455 1.158394 -0.654597
v -1.124455 1.158394 -0.654597
v -1.124455 1.158394 -0.654597
v -1.124455 1.158394 -0.654597
v -0.090156 1.694293 -0.861553
v -0.090156 1.694293 -0.861553
v -0.513325 1.309130 -0.753389
v -0.513325 1.309130 -0.753389
v -0.073049 0.935608 -1.289711
v -0.073049 0.935608 -1.289711
v 0.364946 1.535583 -0.615172
v 0.050017 1.664397 -0.896668
v 0.050017 1.664397 -0.896668
v 0.915638 1.306482 -0.457120
v 0.915638 1.306482 -0.457120
v 1.501630 1.010007 -0.371306
v 1.501630 1.010007 -0.371306
vt 0.826161 0.034806
vt 0.970779 0.083208
vt 0.783480 0.171002
vt 0.431900 0.079151
vt 0.386242 0.200638
vt 0.303857 0.155108
vt 0.524696 0.107836
vt 0.569754 0.000102
vt 0.656151 0.026451
vt 0.318469 0.249827
vt 0.312860 0.350606
vt 0.261748 0.332603
vt 0.677072 0.069777
vt 0.237802 0.464180
vt 0.231872 0.356270
vt 0.323842 0.397517
vt 0.617307 0.175677
vt 0.634774 0.247567
vt 0.539055 0.236194
vt 0.014733 0.393101
vt 0.162816 0.341297
vt 0.116278 0.464386
vt 0.242151 0.200714
vt 0.253011 0.103302
vt 0.380531 0.236389
vt 0.423152 0.333609
vt 0.491769 0.383032
vt 0.422811 0.529900
vt 0.496966 0.337515
vt 0.524492 0.318492
vt 0.265916 0.049693
vt 0.818826 0.185057
vt 0.796169 0.180407
vt 0.293646 0.226067
vt 0.260590 0.293504
vt 0.182287 0.238966
vt 0.544114 0.373307
vt 0.557111 0.329866
vt 0.616537 0.438188
vt 0.524491 0.143243
vt 0.519070 0.231752
vt 0.762827 0.305366
vt 0.587234 0.327198
vt 0.651890 0.147863
vt 0.679721 0.171436
vt 0.659470 0.162466
vt 0.246892 0.570091
vt 0.146011 0.128352
vt 0.783635 0.286074
vt 0.785446 0.340248
vt 0.771109 0.285229
vt 0.598675 0.465070
vt 0.637824 0.475157
vt 0.562479 0.475157
vt 0.959212 0.295914
vt 0.862280 0.237146
vt 0.331317 0.010882
vt 0.326557 0.090005
vt 0.979645 0.145083
vt 0.999898 0.225053
vt 0.347514 0.000102
vt 0.618465 0.102588
vt 0.103141 0.199867
vt 0.036866 0.276138
vt 0.000102 0.299679
vt 0.749615 0.222222
vt 0.218275 0.492557
vt 0.748788 0.250034
vt 0.769576 0.466482
vt 0.834330 0.452900
vt 0.808126 0.397103
vt 0.839067 0.436710
vt 0.923675 0.380540
vn 0.636036 -0.448947 -0.627618
vn 0.636028 -0.445363 -0.630175
vn 0.593207 -0.584572 -0.553517
vn -0.378440 0.539949 -0.751824
vn -0.330286 0.575044 -0.748489
vn -0.310429 0.610997 -0.728228
vn 0.147964 -0.566108 0.810943
vn 0.023672 -0.618394 0.785511
vn 0.134101 -0.572531 0.808842
vn -0.990956 -0.121880 -0.056140
vn -0.977076 -0.200130 -0.072603
vn -0.974240 -0.210687 -0.080420
vn 0.566296 -0.824164 0.007945
vn -0.429738 -0.794366 0.429310
vn -0.565350 -0.749529 0.344363
vn -0.526728 -0.754534 0.391455
vn 0.524238 -0.045135 0.850375
vn 0.476173 0.095889 0.874108
vn 0.463365 0.139339 0.875144
vn -0.222543 0.034522 0.974311
vn -0.275612 0.094561 0.956607
vn -0.167035 -0.038201 0.985211
vn -0.592024 0.796045 0.125780
vn -0.592895 0.796485 0.118688
vn -0.588959 0.796960 0.134096
vn -0.750812 -0.390904 -0.532424
vn -0.671241 -0.453385 -0.586411
vn -0.732836 -0.406186 -0.545861
vn -0.241623 -0.877365 -0.414546
vn -0.074609 -0.941487 -0.328689
vn -0.352454 -0.805245 -0.476820
vn 0.117462 -0.461391 -0.879387
vn -0.395571 -0.512135 -0.762392
vn -0.412507 0.902633 -0.122852
vn -0.356895 0.893968 -0.271010
vn -0.344381 0.889419 -0.300559
vn 0.997104 0.066800 0.036340
vn 0.862420 -0.504351 0.043140
vn 0.789396 -0.609640 -0.072059
vn -0.330765 -0.922966 -0.196794
vn -0.232350 -0.513962 0.825746
vn -0.488636 -0.575702 0.655593
vn -0.326993 -0.525398 0.785514
vn -0.975506 0.194060 0.103582
vn -0.987071 0.099650 0.125543
vn -0.974727 0.198490 0.102516
vn 0.405466 -0.211229 0.889370
vn 0.390944 -0.216267 0.894646
vn 0.386416 -0.161867 0.908010
vn -0.265873 0.655387 0.706951
vn -0.168151 0.714587 0.679037
vn -0.197137 0.698201 0.688224
vn -0.223921 0.277448 -0.934281
vn -0.231604 0.164360 -0.958825
vn -0.221891 0.301113 -0.927413
vn -0.852005 -0.070496 0.518766
vn -0.836308 -0.180458 0.517711
vn -0.850493 -0.057602 0.522824
vn 0.703278 0.577562 0.414515
vn 0.594133 0.667642 0.448619
vn 0.637652 0.633234 0.438651
vn -0.445347 -0.351592 -0.823437
vn -0.360977 -0.141394 -0.921794
vn -0.339942 -0.207652 -0.917235
vn 0.801660 -0.323755 0.502518
vn 0.003983 -0.999918 -0.012170
vn -0.101483 -0.988863 0.108861
vn -0.076044 -0.991455 0.105993
vn -0.308381 0.942205 0.130961
vn 0.585497 -0.535362 0.608753
vn 0.517081 -0.512194 0.685773
vn 0.545190 -0.522164 0.655829
vn -0.863326 0.500277 -0.066262
vn 0.466016 0.850034 -0.245501
vn 0.461902 0.805527 -0.371178
vn 0.464757 0.827171 -0.315895
vn 0.563475 0.056098 0.824226
vn 0.159743 0.962237 0.220414
vn 0.197171 0.944004 0.264537
vn 0.134959 0.960156 0.244716
vn -0.800688 0.288340 -0.525128
vn -0.811289 0.265934 -0.520663
vn -0.803278 0.279253 -0.526082
vn -0.241726 0.950425 0.195603
vn 0.380596 0.555831 -0.739052
vn 0.363648 0.596176 -0.715775
vn 0.453888 0.460368 -0.762920
vn 0.353885 0.764034 0.539460
vn 0.315099 0.757733 0.571448
vn 0.314683 0.757656 0.571779
vn 0.911573 0.041753 -0.409012
vn 0.922524 -0.001495 -0.385937
vn 0.932032 0.010501 -0.362224
vn -0.683633 0.722878 -0.100465
vn 0.769434 0.142695 0.622583
vn 0.842130 0.087471 0.532133
vn 0.523511 -0.044965 0.850832
vn 0.341886 -0.110633 -0.933206
vn 0.343092 -0.118097 -0.931848
vn 0.343496 -0.120623 -0.931376
vn 0.615570 -0.482594 -0.623038
vn 0.576434 -0.489310 -0.654447
vn 0.537621 -0.674444 -0.506052
vn -0.390125 0.573950 -0.719989
vn -0.113305 0.486376 -0.866372
vn -0.325163 0.459200 -0.826683
vn 0.270438 -0.502609 0.821125
vn -0.997235 -0.062933 -0.039530
vn -0.974494 -0.206205 -0.088553
vn -0.646299 -0.702237 0.298598
vn -0.569242 -0.715622 0.404783
vn 0.403595 0.213826 0.889601
vn 0.409216 0.234203 0.881868
vn -0.371566 0.141280 0.917594
vn -0.525317 0.148956 0.837767
vn -0.300459 0.039351 0.952983
vn -0.394826 -0.052349 0.917263
vn -0.565564 0.819656 0.091111
vn -0.630991 0.765995 0.122892
vn -0.584942 0.806509 0.085938
vn -0.817432 -0.326603 -0.474484
vn -0.422948 -0.765990 -0.484122
vn -0.450422 -0.729664 -0.514500
vn -0.281266 0.855835 -0.434092
vn 0.987349 -0.156532 0.025279
vn 0.963383 -0.267404 0.019679
vn 0.686390 -0.727059 0.015966
vn 0.826659 -0.554295 0.096912
vn -0.493987 -0.557204 0.667458
vn -0.386821 -0.509431 0.768667
vn -0.922590 0.381774 0.055463
vn 0.372058 -0.305391 0.876532
vn 0.374868 -0.197577 0.905780
vn -0.116824 0.741268 0.660965
vn -0.211496 0.401737 -0.890998
vn -0.861450 0.095312 0.498818
vn -0.855093 0.059995 0.514992
vn 0.754775 0.521414 0.398048
vn 0.792511 0.470822 0.387625
vn -0.334606 -0.023166 -0.942073
vn -0.360401 -0.250780 -0.898455
vn -0.314036 -0.193227 -0.929540
vn -0.221762 -0.971232 0.086772
vn -0.223914 -0.936253 0.270728
vn 0.478049 -0.497431 0.723900
vn 0.454406 0.767045 -0.452943
vn 0.258079 0.913605 0.314199
vn 0.232965 0.944664 0.230951
vn 0.201448 0.940729 0.272849
vn 0.202153 0.949877 0.238471
vn 0.223562 0.897042 0.381229
vn 0.244782 0.955697 0.163478
vn 0.234002 0.963269 0.131739
vn -0.804927 0.282410 -0.521859
vn -0.829204 0.229933 -0.509462
vn 0.699849 0.243893 -0.671363
vn 0.528645 0.434146 -0.729418
vn 0.418097 0.550221 -0.722808
vn 0.342231 0.637430 -0.690334
vn 0.271531 0.748562 0.604918
vn 0.880359 0.128083 -0.456687
vn 0.922447 0.016713 -0.385761
vn 0.939366 0.023577 -0.342106
vn 0.927394 0.009283 -0.373972
vn 0.939570 0.091463 0.329913
vn 0.974281 0.013536 0.224930
vn 0.740767 0.366070 0.563255
vn 0.345004 -0.130176 -0.929530
s 1
f 12/1/1 15/2/2 19/3/3
f 180/4/4 124/5/5 173/6/6
f 21/7/7 7/8/8 10/9/9
f 33/10/10 89/11/11 23/12/12
f 70/9/13 77/1/13 11/13/13
f 68/14/14 24/15/15 14/16/16
f 3/17/17 29/18/18 20/19/19
f 110/20/20 4/21/21 57/22/22
f 46/6/23 143/23/24 170/24/25
f 126/25/26 26/26/27 13/11/28
f 95/27/29 78/28/30 83/16/31
f 94/27/32 16/29/32 92/30/32
f 96/27/33 86/26/33 97/29/33
f 44/24/34 160/31/35 174/6/36
f 75/3/37 73/13/38 79/1/39
f 76/3/40 99/32/40 105/33/40
f 81/15/41 8/14/42 112/21/43
f 140/34/44 118/35/45 120/36/46
f 111/19/47 59/7/48 107/17/49
f 158/37/50 139/38/51 166/39/52
f 5/40/53 27/41/54 123/5/55
f 113/21/56 122/36/57 119/35/58
f 54/42/59 151/43/60 134/18/61
f 87/26/62 25/25/63 98/29/64
f 64/44/65 136/45/65 2/46/65
f 80/28/66 71/47/67 84/16/68
f 38/48/69 6/31/69 171/24/69
f 74/13/70 66/44/71 72/9/72
f 141/34/73 144/23/73 172/6/73
f 148/49/74 53/50/75 56/51/76
f 114/46/77 108/17/77 67/44/77
f 153/52/78 39/39/79 163/53/80
f 125/5/81 142/34/82 175/6/83
f 41/54/84 40/52/84 165/53/84
f 130/55/85 55/49/86 145/56/87
f 157/54/88 159/37/89 154/52/90
f 100/32/91 146/56/92 149/49/93
f 177/57/94 179/58/94 162/31/94
f 115/46/95 135/18/96 109/17/97
f 93/59/98 133/60/99 147/56/100
f 28/59/101 37/56/102 36/32/103
f 15/2/2 28/59/101 19/3/3
f 28/59/101 36/32/103 19/3/3
f 180/4/4 173/6/6 50/58/104
f 183/61/105 180/4/4 176/57/106
f 180/4/4 50/58/104 176/57/106
f 62/62/107 21/7/7 10/9/9
f 32/34/108 33/10/10 34/35/109
f 33/10/10 23/12/12 34/35/109
f 24/15/15 116/12/110 14/16/16
f 116/12/110 88/11/111 14/16/16
f 29/18/18 42/43/112 43/38/113
f 20/19/19 29/18/18 43/38/113
f 155/63/114 47/36/115 4/21/21
f 155/63/114 4/21/21 110/20/20
f 31/64/116 155/63/114 110/20/20
f 138/65/117 31/64/116 110/20/20
f 170/24/25 143/23/24 164/48/118
f 143/23/24 121/36/119 156/63/120
f 164/48/118 143/23/24 156/63/120
f 128/10/121 126/25/26 13/11/28
f 85/26/122 95/27/29 90/11/123
f 95/27/29 83/16/31 90/11/123
f 160/31/35 178/58/124 174/6/36
f 18/33/125 103/66/126 30/45/127
f 73/13/38 75/3/37 65/44/128
f 75/3/37 18/33/125 30/45/127
f 65/44/128 75/3/37 30/45/127
f 8/14/42 60/67/129 112/21/43
f 60/67/129 58/22/130 112/21/43
f 45/23/131 140/34/44 120/36/46
f 59/7/48 9/62/132 22/44/133
f 107/17/49 59/7/48 22/44/133
f 139/38/51 150/43/134 166/39/52
f 51/4/135 5/40/53 123/5/55
f 82/15/136 113/21/56 117/12/137
f 113/21/56 119/35/58 117/12/137
f 187/51/138 54/42/59 134/18/61
f 101/68/139 187/51/138 134/18/61
f 25/25/63 35/5/140 132/41/141
f 98/29/64 25/25/63 91/30/142
f 25/25/63 132/41/141 91/30/142
f 71/47/67 61/67/143 69/14/144
f 84/16/68 71/47/67 69/14/144
f 66/44/71 63/62/145 72/9/72
f 53/50/75 168/42/146 56/51/76
f 39/39/79 152/43/147 169/42/148
f 163/53/80 39/39/79 161/69/149
f 39/39/79 169/42/148 161/69/149
f 48/70/150 52/71/151 49/72/152
f 161/69/149 52/71/151 48/70/150
f 169/42/148 185/50/153 161/69/149
f 185/50/153 52/71/151 161/69/149
f 127/25/154 129/10/155 142/34/82
f 125/5/81 127/25/154 142/34/82
f 184/72/156 182/71/157 181/73/158
f 182/71/157 186/50/159 181/73/158
f 186/50/159 55/49/86 181/73/158
f 55/49/86 130/55/85 181/73/158
f 159/37/89 167/39/160 154/52/90
f 106/33/161 100/32/91 17/66/162
f 100/32/91 149/49/93 17/66/162
f 149/49/93 188/51/163 17/66/162
f 188/51/163 1/68/164 17/66/162
f 102/68/165 135/18/96 115/46/95
f 104/66/166 102/68/165 137/45/167
f 102/68/165 115/46/95 137/45/167
f 133/60/99 131/55/168 147/56/100
