# Blender v2.69 (sub 0) OBJ File: 'mine_rocks.blend'
# www.blender.org
o LowPolyRock.002
v 0.349681 -1.570097 -0.151647
v 0.764852 -1.159401 -0.570511
v 0.777729 -1.174946 -1.124638
v 0.974443 -0.840843 -0.731504
v -1.361507 0.651642 -0.636249
v 0.536200 1.481699 0.288206
v -0.737070 1.411237 0.582170
v -0.044022 -1.138743 1.110857
v -0.263484 -1.363256 0.863110
v 0.312779 -1.185470 0.999411
v 0.476528 -1.358091 0.477165
v 1.086254 -1.174541 0.032362
v 0.821073 -1.430894 0.040016
v 0.762072 -1.467497 0.176746
v -1.342442 -0.826289 0.256700
v -0.468719 -1.187571 -0.790382
v -0.773354 -1.381887 -0.189341
v -0.087709 -1.575678 -0.037312
v 0.399760 -1.365238 -0.567978
v 1.462596 -0.230852 -0.322057
v 1.587662 -0.700624 -0.047245
v 0.573717 -0.312914 1.350089
v 0.778933 -0.495173 1.099478
v -1.246562 -0.286821 1.117527
v -1.171026 -0.492802 0.753656
v -1.162205 0.290091 -0.992587
v -1.133800 -0.350002 -1.039669
v -1.174035 -0.490232 -0.846836
v 0.365975 0.245277 -1.370293
v 0.816595 -0.385231 -1.289543
v 1.331866 0.093104 0.667081
v 1.399490 0.367416 0.684595
v 1.419069 -0.234321 0.597772
v -0.795522 -0.099898 1.479176
v -0.250100 -0.355053 1.502631
v -1.440299 0.283489 -0.106399
v -1.312235 0.578068 0.632540
v -0.315632 -0.107210 -1.356014
v -0.450541 -0.397322 -1.330781
v 1.188420 0.007625 -0.839007
v 0.343730 0.952162 1.129858
v 0.612896 0.671329 1.108788
v -0.729268 1.329650 0.752917
v -0.951313 1.305346 0.011419
v -1.006730 1.236802 0.466327
v 0.111901 1.473860 -0.503498
v 0.123318 1.140717 -0.992464
v -0.887017 0.716792 -1.150370
v 0.895459 1.460035 -0.190320
v 1.439444 0.953682 -0.051166
v 1.356330 1.082746 -0.197815
v 0.836694 0.849669 -0.977519
v 0.616234 0.854052 -1.155098
v 0.399760 -1.365238 -0.567978
v 0.399760 -1.365238 -0.567978
v 0.349681 -1.570097 -0.151647
v 0.349681 -1.570097 -0.151647
v 0.349681 -1.570097 -0.151647
v -0.044022 -1.138743 1.110857
v -0.044022 -1.138743 1.110857
v -0.263484 -1.363256 0.863110
v -0.263484 -1.363256 0.863110
v 0.312779 -1.185470 0.999411
v 0.312779 -1.185470 0.999411
v 0.476528 -1.358091 0.477165
v 0.778933 -0.495173 1.099478
v 0.778933 -0.495173 1.099478
v 0.974443 -0.840843 -0.731504
v 0.974443 -0.840843 -0.731504
v 0.764852 -1.159401 -0.570511
v 0.764852 -1.159401 -0.570511
v 0.821073 -1.430894 0.040016
v 0.821073 -1.430894 0.040016
v 1.086254 -1.174541 0.032362
v 1.086254 -1.174541 0.032362
v 0.762072 -1.467497 0.176746
v 0.762072 -1.467497 0.176746
v 0.762072 -1.467497 0.176746
v -0.087709 -1.575678 -0.037312
v -0.087709 -1.575678 -0.037312
v -1.342442 -0.826289 0.256700
v -1.342442 -0.826289 0.256700
v -1.342442 -0.826289 0.256700
v -1.342442 -0.826289 0.256700
v -0.773354 -1.381887 -0.189341
v -0.773354 -1.381887 -0.189341
v -0.468719 -1.187571 -0.790382
v -0.468719 -1.187571 -0.790382
v 0.777729 -1.174946 -1.124638
v 0.777729 -1.174946 -1.124638
v 0.777729 -1.174946 -1.124638
v 0.777729 -1.174946 -1.124638
v 0.777729 -1.174946 -1.124638
v 1.587662 -0.700624 -0.047245
v 1.587662 -0.700624 -0.047245
v 1.587662 -0.700624 -0.047245
v 1.439444 0.953682 -0.051166
v 1.439444 0.953682 -0.051166
v 1.462596 -0.230852 -0.322057
v 1.462596 -0.230852 -0.322057
v 1.419069 -0.234321 0.597772
v 1.419069 -0.234321 0.597772
v 0.573717 -0.312914 1.350089
v 0.573717 -0.312914 1.350089
v -0.250100 -0.355053 1.502631
v -0.250100 -0.355053 1.502631
v -1.312235 0.578068 0.632540
v -1.312235 0.578068 0.632540
v -1.246562 -0.286821 1.117527
v -1.246562 -0.286821 1.117527
v -1.171026 -0.492802 0.753656
v -1.174035 -0.490232 -0.846836
v -1.174035 -0.490232 -0.846836
v -1.361507 0.651642 -0.636249
v -1.361507 0.651642 -0.636249
v -1.361507 0.651642 -0.636249
v -1.162205 0.290091 -0.992587
v -1.162205 0.290091 -0.992587
v -1.133800 -0.350002 -1.039669
v -1.133800 -0.350002 -1.039669
v 0.616234 0.854052 -1.155098
v 0.616234 0.854052 -1.155098
v 0.365975 0.245277 -1.370293
v 0.365975 0.245277 -1.370293
v 0.816595 -0.385231 -1.289543
v 0.816595 -0.385231 -1.289543
v -0.450541 -0.397322 -1.330781
v -0.450541 -0.397322 -1.330781
v 0.612896 0.671329 1.108788
v 0.612896 0.671329 1.108788
v 1.399490 0.367416 0.684595
v 1.399490 0.367416 0.684595
v 1.331866 0.093104 0.667081
v -0.795522 -0.099898 1.479176
v -0.795522 -0.099898 1.479176
v -0.729268 1.329650 0.752917
v -0.729268 1.329650 0.752917
v -0.729268 1.329650 0.752917
v -1.440299 0.283489 -0.106399
v -1.440299 0.283489 -0.106399
v -0.887017 0.716792 -1.150370
v -0.887017 0.716792 -1.150370
v -0.887017 0.716792 -1.150370
v -0.315632 -0.107210 -1.356014
v -0.315632 -0.107210 -1.356014
v 1.188420 0.007625 -0.839007
v 1.188420 0.007625 -0.839007
v 0.836694 0.849669 -0.977519
v 0.836694 0.849669 -0.977519
v 0.536200 1.481699 0.288206
v 0.536200 1.481699 0.288206
v 0.343730 0.952162 1.129858
v 0.343730 0.952162 1.129858
v -0.737070 1.411237 0.582170
v -0.737070 1.411237 0.582170
v -1.006730 1.236802 0.466327
v -1.006730 1.236802 0.466327
v -1.006730 1.236802 0.466327
v -0.951313 1.305346 0.011419
v -0.951313 1.305346 0.011419
v 0.111901 1.473860 -0.503498
v 0.111901 1.473860 -0.503498
v 0.123318 1.140717 -0.992464
v 0.123318 1.140717 -0.992464
v 0.895459 1.460035 -0.190320
v 0.895459 1.460035 -0.190320
v 1.356330 1.082746 -0.197815
v 1.356330 1.082746 -0.197815
vt 0.206466 0.173345
vt 0.255477 0.162316
vt 0.255409 0.225410
vt 0.180317 0.817644
vt 0.109772 0.921812
vt 0.127621 0.825338
vt 0.315101 0.555381
vt 0.254276 0.566420
vt 0.263214 0.548916
vt 0.191985 0.534445
vt 0.364261 0.112402
vt 0.310733 0.000107
vt 0.421345 0.036843
vt 0.477528 0.296207
vt 0.414234 0.301339
vt 0.438123 0.263509
vt 0.263988 0.345787
vt 0.251683 0.473363
vt 0.171033 0.428626
vt 0.000107 0.910064
vt 0.219566 0.125470
vt 0.262459 0.096464
vt 0.209598 0.976319
vt 0.311338 0.881806
vt 0.396614 0.969795
vt 0.284699 0.750415
vt 0.429169 0.770810
vt 0.330672 0.843966
vt 0.362621 0.209020
vt 0.203781 0.270027
vt 0.212970 0.777210
vt 0.354102 0.236471
vt 0.336743 0.356110
vt 0.299529 0.274526
vt 0.411764 0.578565
vt 0.401970 0.694599
vt 0.490400 0.404794
vt 0.350038 0.417315
vt 0.232827 0.613929
vt 0.008702 0.367649
vt 0.129123 0.250180
vt 0.142229 0.423423
vt 0.199709 0.699116
vt 0.083442 0.184785
vt 0.133290 0.089546
vt 0.554011 0.087504
vt 0.557554 0.267909
vt 0.442894 0.187604
vt 0.136998 0.568344
vt 0.168539 0.676679
vt 0.019132 0.747227
vt 0.166650 0.999893
vt 0.212730 0.999893
vt 0.426734 0.208765
vt 0.540744 0.440020
vt 0.625834 0.372191
vt 0.323539 0.534230
vt 0.516982 0.868364
vt 0.249239 0.032613
vt 0.289725 0.332782
vt 0.089433 0.791107
vt 0.301282 0.717313
vt 0.409734 0.740071
vt 0.227983 0.676596
vt 0.000107 0.276328
vt 0.000107 0.327267
vt 0.170304 0.048644
vt 0.040914 0.613506
vt 0.515556 0.486381
vt 0.482295 0.970856
vt 0.525674 0.897476
vn 0.846536 -0.215552 -0.486739
vn 0.925014 -0.120748 -0.360236
vn 0.877409 -0.218888 -0.426897
vn -0.655421 0.355194 0.666529
vn -0.588927 0.416247 0.692751
vn -0.669899 0.323786 0.668130
vn 0.692585 -0.713216 0.107927
vn 0.323092 -0.939699 -0.112145
vn -0.129469 -0.906568 -0.401711
vn -0.117665 -0.905755 -0.407141
vn -0.172268 -0.908387 -0.380995
vn -0.729252 0.232324 -0.643597
vn 0.380858 0.759372 -0.527542
vn 0.393690 0.711992 -0.581442
vn 0.525596 0.652868 -0.545447
vn -0.981719 -0.048173 0.184140
vn -0.977368 -0.202798 0.060212
vn -0.986294 0.017129 0.164104
vn 0.842850 -0.537031 0.034653
vn 0.490992 -0.870427 0.035829
vn 0.069519 0.876623 0.476129
vn 0.100669 0.831573 0.546216
vn 0.094660 0.840871 0.532894
vn 0.636111 -0.017523 0.771399
vn 0.637660 -0.005179 0.770301
vn 0.520620 0.183693 0.833794
vn -0.211407 -0.548396 -0.809054
vn -0.293026 -0.549834 -0.782189
vn -0.299853 -0.533789 -0.790669
vn 0.777302 0.228245 -0.586264
vn 0.862945 0.154963 -0.480950
vn 0.858058 0.157507 -0.488803
vn -0.500657 -0.628678 0.595069
vn -0.338620 -0.520266 0.784002
vn -0.319911 -0.617811 0.718308
vn -0.060211 0.312007 -0.948170
vn 0.038470 0.266992 -0.962931
vn -0.062523 0.299358 -0.952090
vn 0.579762 0.198756 -0.790172
vn 0.577557 0.316397 -0.752543
vn 0.567745 0.159226 -0.807659
vn 0.613696 -0.554958 0.561603
vn 0.633599 -0.550921 0.543175
vn 0.629225 -0.539032 0.559929
vn -0.376705 0.760457 -0.528960
vn -0.377082 0.760969 -0.527955
vn -0.373041 0.826733 -0.421134
vn -0.022189 -0.945995 0.323420
vn 0.120231 -0.941370 0.315226
vn 0.072306 -0.956241 0.283505
vn 0.985754 -0.110047 0.127198
vn 0.988177 0.137982 0.066832
vn 0.998240 0.006017 0.059002
vn 0.186624 -0.399592 0.897495
vn 0.254908 -0.385781 0.886676
vn 0.330029 -0.481992 0.811643
vn 0.598006 -0.698668 -0.392749
vn 0.619950 -0.681686 -0.388543
vn 0.638414 -0.671502 -0.376182
vn -0.770852 -0.377839 -0.512859
vn -0.710061 -0.586085 -0.390279
vn -0.712257 -0.580997 -0.393868
vn -0.959306 -0.132072 -0.249579
vn -0.966047 -0.107704 -0.234849
vn -0.969797 -0.148757 -0.193298
vn -0.454262 -0.856599 0.244711
vn -0.490963 -0.864448 0.108093
vn -0.446371 -0.853216 0.269769
vn 0.014545 -0.176087 -0.984267
vn 0.053623 -0.136770 -0.989150
vn 0.032865 -0.103821 -0.994053
vn 0.048728 0.266820 0.962514
vn -0.149211 0.453352 0.878754
vn 0.011336 0.336200 0.941722
vn -0.611061 0.703013 0.363838
vn -0.358265 0.028871 -0.933173
vn -0.388512 0.050435 -0.920062
vn -0.434950 -0.007302 -0.900425
vn -0.891741 0.452195 0.017840
vn -0.923604 0.376395 0.072678
vn -0.908061 0.418728 -0.009553
vn -0.014615 0.999891 -0.002067
vn 0.027471 0.999319 -0.024617
vn -0.069031 0.997556 -0.010811
vn 0.495627 0.729872 0.470787
vn 0.595168 0.572878 0.563547
vn 0.540806 0.643288 0.541949
vn 0.810905 -0.241325 -0.533100
vn 0.785570 -0.208467 -0.582599
vn 0.871969 -0.052590 -0.486729
vn -0.728668 0.336743 0.596362
vn -0.675315 0.374661 0.635278
vn -0.071505 -0.916093 -0.394538
vn 0.166715 -0.959441 -0.227328
vn -0.106120 -0.887077 -0.449258
vn 0.283231 0.774363 -0.565811
vn 0.285845 0.795029 -0.534997
vn 0.362380 0.799129 -0.479660
vn -0.949071 0.019205 0.314477
vn -0.972384 -0.194678 0.128724
vn 0.049077 0.902071 0.428789
vn 0.690380 -0.145019 0.708763
vn 0.617391 -0.002089 0.786654
vn 0.703270 -0.150281 0.694858
vn -0.558981 -0.610776 -0.560796
vn -0.466972 -0.571611 -0.674684
vn 0.903617 0.112199 -0.413387
vn 0.898952 0.112757 -0.423286
vn -0.352837 -0.504222 0.788204
vn -0.600076 -0.552958 0.578053
vn -0.464496 -0.557101 0.688391
vn -0.660533 -0.639141 0.393947
vn -0.228857 0.406715 -0.884425
vn -0.149017 0.338641 -0.929040
vn 0.623285 0.133606 -0.770497
vn 0.585941 0.095590 -0.804696
vn 0.655399 -0.537297 0.530815
vn 0.633487 -0.590496 0.500009
vn 0.553228 -0.683400 0.476344
vn 0.619042 -0.334923 0.710361
vn -0.375800 0.798950 -0.469524
vn -0.350649 0.913138 -0.207905
vn 0.165965 -0.879657 0.445712
vn 0.092596 -0.777254 0.622337
vn 0.141707 -0.904523 0.402191
vn 0.075848 -0.967068 0.242952
vn 0.965284 0.257005 0.046647
vn 0.958217 0.282251 0.046408
vn 0.985081 -0.075164 0.154811
vn 0.248167 -0.301060 0.920748
vn 0.394703 -0.490989 0.776620
vn 0.544390 -0.746864 -0.381883
vn 0.397374 -0.841412 -0.366224
vn 0.427658 -0.818003 -0.384682
vn 0.605215 -0.705204 -0.369326
vn -0.655848 -0.688426 -0.309731
vn -0.929561 -0.223274 -0.293368
vn -0.950532 -0.084496 -0.298915
vn -0.959141 -0.055270 -0.277478
vn -0.337520 -0.774834 0.534521
vn 0.022910 -0.189263 -0.981659
vn 0.086100 -0.125994 -0.988288
vn 0.165933 0.228576 0.959280
vn 0.171073 0.173091 0.969935
vn 0.115793 0.269483 0.956018
vn -0.278678 0.046160 -0.959274
vn -0.424688 -0.019811 -0.905123
vn -0.837894 0.545471 -0.019882
vn -0.913240 0.399072 0.082059
vn -0.335699 0.918368 -0.209537
vn -0.306798 0.943770 -0.123183
vn -0.089649 0.986408 0.137707
vn 0.582905 0.703979 0.405753
vn 0.599473 0.628354 0.495786
vn 0.526962 0.721970 0.448408
vn 0.601249 0.584928 0.544388
s 1
f 68/1/1 3/2/2 125/3/3
f 34/4/4 37/5/5 24/6/6
f 12/7/7 76/8/7 13/9/7
f 14/8/8 56/10/8 72/9/8
f 16/11/9 79/12/10 85/13/11
f 5/14/12 141/15/12 26/16/12
f 148/17/13 165/18/14 51/19/15
f 36/20/16 109/6/17 107/5/18
f 2/21/19 89/2/19 4/1/19
f 70/21/20 54/22/20 92/2/20
f 136/23/21 41/24/22 6/25/23
f 103/26/24 32/27/25 42/28/26
f 91/2/27 87/11/28 39/29/29
f 52/17/30 167/19/31 146/30/32
f 110/6/33 105/31/34 134/4/35
f 38/32/36 48/15/37 163/33/38
f 147/30/39 30/3/40 123/34/41
f 94/35/42 33/36/43 74/7/44
f 159/37/45 46/38/46 115/14/47
f 78/8/48 65/39/49 58/10/50
f 131/40/51 100/41/52 97/42/53
f 35/31/54 60/43/55 22/26/56
f 95/44/57 75/45/58 69/1/59
f 17/13/60 81/46/61 88/11/62
f 139/47/63 113/48/64 84/46/65
f 80/49/66 62/50/67 83/51/68
f 126/3/69 144/32/70 124/34/71
f 152/24/72 137/23/73 135/4/74
f 157/52/75 138/23/75 154/53/75
f 128/29/76 120/54/77 118/16/78
f 156/55/79 140/47/80 108/56/81
f 150/57/82 49/18/83 162/38/84
f 98/58/85 130/28/86 132/27/87
f 68/1/1 125/3/3 40/30/88
f 21/44/89 68/1/1 40/30/88
f 99/41/90 21/44/89 40/30/88
f 43/23/91 45/52/92 34/4/4
f 45/52/92 37/5/5 34/4/4
f 16/11/9 90/2/93 79/12/10
f 90/2/93 19/22/94 79/12/10
f 19/22/94 1/59/95 79/12/10
f 161/38/96 165/18/14 148/17/13
f 47/33/97 161/38/96 121/60/98
f 161/38/96 148/17/13 121/60/98
f 82/51/99 25/61/100 36/20/16
f 25/61/100 109/6/17 36/20/16
f 7/53/101 136/23/21 6/25/23
f 66/62/102 101/36/103 31/63/104
f 103/26/24 66/62/102 32/27/25
f 66/62/102 31/63/104 32/27/25
f 87/11/28 28/48/105 119/54/106
f 39/29/29 87/11/28 119/54/106
f 167/19/31 50/42/107 20/41/108
f 146/30/32 167/19/31 20/41/108
f 8/43/109 105/31/34 110/6/33
f 15/51/110 9/50/111 111/61/112
f 9/50/111 8/43/109 110/6/33
f 111/61/112 9/50/111 110/6/33
f 29/34/113 38/32/36 53/60/114
f 38/32/36 163/33/38 53/60/114
f 149/17/115 147/30/39 122/60/116
f 147/30/39 123/34/41 122/60/116
f 33/36/43 23/62/117 74/7/44
f 23/62/117 63/64/118 74/7/44
f 63/64/118 11/39/119 74/7/44
f 11/39/119 77/8/120 74/7/44
f 46/38/46 164/33/121 115/14/47
f 164/33/121 143/15/122 115/14/47
f 10/64/123 59/43/124 61/50/125
f 65/39/49 10/64/123 61/50/125
f 58/10/50 65/39/49 61/50/125
f 18/49/126 58/10/50 61/50/125
f 102/65/127 96/44/128 100/41/52
f 133/66/129 102/65/127 100/41/52
f 131/40/51 133/66/129 100/41/52
f 60/43/55 64/64/130 67/62/131
f 22/26/56 60/43/55 67/62/131
f 73/67/132 57/59/133 55/22/134
f 73/67/132 55/22/134 71/21/135
f 75/45/58 73/67/132 69/1/59
f 73/67/132 71/21/135 69/1/59
f 81/46/61 112/48/136 88/11/62
f 114/14/137 117/16/138 139/47/63
f 117/16/138 27/54/139 139/47/63
f 27/54/139 113/48/64 139/47/63
f 86/68/140 80/49/66 83/51/68
f 93/2/141 127/29/142 144/32/70
f 126/3/69 93/2/141 144/32/70
f 104/26/143 129/28/144 106/31/145
f 129/28/144 152/24/72 135/4/74
f 106/31/145 129/28/144 135/4/74
f 145/32/146 128/29/76 142/15/147
f 128/29/76 118/16/78 142/15/147
f 44/37/148 116/14/149 156/55/79
f 116/14/149 140/47/80 156/55/79
f 155/69/150 150/57/82 162/38/84
f 158/55/151 155/69/150 162/38/84
f 160/37/152 158/55/151 162/38/84
f 166/70/153 151/25/154 168/71/155
f 151/25/154 153/24/156 168/71/155
f 153/24/156 130/28/86 98/58/85
f 168/71/155 153/24/156 98/58/85
