# Blender v2.69 (sub 0) OBJ File: 'mine_rocks.blend'
# www.blender.org
o LowPolyRock.003
v 0.549311 -0.892923 1.544699
v -0.703138 -0.930872 -1.477814
v 1.954461 -0.542702 -0.627106
v 1.657885 -0.651847 1.208461
v 0.001906 1.570867 -0.040259
v 0.939430 1.474409 -0.251208
v -0.042038 -1.036053 1.419329
v 1.580636 -1.198204 -0.501423
v -1.078552 -1.109546 0.977381
v -0.550116 -1.287000 1.368757
v -1.118035 -1.242284 -1.150548
v 0.911698 -1.337209 -0.806795
v 0.019980 -1.704853 -0.271630
v 1.982096 -0.212079 0.378301
v 1.773169 -0.800476 -0.538391
v 0.572510 0.431221 2.006330
v 0.785853 0.103373 2.091380
v 0.384084 -0.357217 2.022136
v 0.940191 -0.210052 1.717531
v 0.020277 -0.270475 1.939653
v 1.013046 -1.018223 1.211096
v -0.716976 -0.820930 1.479958
v -1.803009 0.221251 -1.082191
v -1.653564 0.054914 -1.346237
v -1.382892 -0.902826 -1.328880
v 0.656944 0.143678 -1.975893
v 0.335701 0.034424 -2.120369
v 0.063490 -0.339607 -1.957867
v 0.999853 0.212097 1.697107
v 1.891724 -0.366071 1.059823
v -0.857300 0.568815 1.652401
v -0.597157 0.383116 2.104863
v 0.032933 0.472028 1.904718
v -0.302132 -0.109627 1.972323
v -2.150952 0.650394 -0.790329
v -1.976730 -0.264809 -0.264476
v -1.976796 0.278064 0.828830
v 0.035933 0.345160 -1.940708
v -1.063054 0.470172 -1.800890
v -1.237083 0.623126 -1.343645
v 1.688534 0.550681 -1.067794
v 1.843869 -0.351080 -1.104750
v 1.756589 -0.005335 -1.434148
v 1.628087 -0.126012 -1.553185
v 0.680268 0.533676 -1.718696
v 0.548815 1.111515 1.351166
v 1.781773 1.170418 0.339956
v 1.464824 0.414773 1.242389
v 2.093801 0.858092 0.074247
v -0.189138 1.530976 0.938308
v 0.337578 1.409301 1.245220
v -1.400391 1.485367 -0.509319
v -1.057877 1.094473 0.820356
v -1.606019 0.972428 -0.938436
v -1.623722 0.353176 1.155685
v -2.042981 0.971276 -0.719026
v -0.124721 1.545127 -0.372767
v -0.500822 1.613090 -0.713504
v -0.346394 1.350908 -1.064945
v 0.459216 1.139129 -1.643297
v 0.161988 0.706244 -1.721942
v 1.177912 1.165019 -1.051138
v 0.721262 1.093510 -1.620185
v 0.939430 1.474409 -0.251208
v 0.939430 1.474409 -0.251208
v 0.001906 1.570867 -0.040259
v 0.001906 1.570867 -0.040259
v 0.549311 -0.892923 1.544699
v 0.549311 -0.892923 1.544699
v -0.042038 -1.036053 1.419329
v -0.042038 -1.036053 1.419329
v 1.013046 -1.018223 1.211096
v 1.013046 -1.018223 1.211096
v -0.716976 -0.820930 1.479958
v -0.716976 -0.820930 1.479958
v 1.580636 -1.198204 -0.501423
v 1.580636 -1.198204 -0.501423
v 0.911698 -1.337209 -0.806795
v 0.911698 -1.337209 -0.806795
v 0.019980 -1.704853 -0.271630
v 0.019980 -1.704853 -0.271630
v 0.019980 -1.704853 -0.271630
v -0.550116 -1.287000 1.368757
v -0.550116 -1.287000 1.368757
v -0.550116 -1.287000 1.368757
v -1.118035 -1.242284 -1.150548
v -1.118035 -1.242284 -1.150548
v -1.118035 -1.242284 -1.150548
v -1.078552 -1.109546 0.977381
v -1.078552 -1.109546 0.977381
v -0.703138 -0.930872 -1.477814
v -0.703138 -0.930872 -1.477814
v -1.382892 -0.902826 -1.328880
v -1.382892 -0.902826 -1.328880
v -1.382892 -0.902826 -1.328880
v 1.657885 -0.651847 1.208461
v 1.657885 -0.651847 1.208461
v 1.657885 -0.651847 1.208461
v 1.773169 -0.800476 -0.538391
v 1.982096 -0.212079 0.378301
v 1.982096 -0.212079 0.378301
v 1.954461 -0.542702 -0.627106
v 1.954461 -0.542702 -0.627106
v 0.999853 0.212097 1.697107
v 0.999853 0.212097 1.697107
v 0.785853 0.103373 2.091380
v 0.785853 0.103373 2.091380
v 0.785853 0.103373 2.091380
v 0.384084 -0.357217 2.022136
v 0.384084 -0.357217 2.022136
v 0.020277 -0.270475 1.939653
v 0.020277 -0.270475 1.939653
v 0.572510 0.431221 2.006330
v 0.572510 0.431221 2.006330
v 0.940191 -0.210052 1.717531
v 0.940191 -0.210052 1.717531
v -1.976796 0.278064 0.828830
v -1.976796 0.278064 0.828830
v -1.976796 0.278064 0.828830
v -1.803009 0.221251 -1.082191
v -1.803009 0.221251 -1.082191
v -1.653564 0.054914 -1.346237
v -1.653564 0.054914 -1.346237
v -1.976730 -0.264809 -0.264476
v -1.976730 -0.264809 -0.264476
v 0.680268 0.533676 -1.718696
v 0.680268 0.533676 -1.718696
v 0.656944 0.143678 -1.975893
v 0.656944 0.143678 -1.975893
v 0.335701 0.034424 -2.120369
v 0.335701 0.034424 -2.120369
v 0.035933 0.345160 -1.940708
v 0.035933 0.345160 -1.940708
v 0.063490 -0.339607 -1.957867
v 0.063490 -0.339607 -1.957867
v 1.464824 0.414773 1.242389
v 1.464824 0.414773 1.242389
v 1.891724 -0.366071 1.059823
v 1.891724 -0.366071 1.059823
v 2.093801 0.858092 0.074247
v 2.093801 0.858092 0.074247
v -1.623722 0.353176 1.155685
v -1.623722 0.353176 1.155685
v -0.857300 0.568815 1.652401
v -0.857300 0.568815 1.652401
v -0.597157 0.383116 2.104863
v -0.597157 0.383116 2.104863
v -0.597157 0.383116 2.104863
v 0.032933 0.472028 1.904718
v 0.032933 0.472028 1.904718
v -0.302132 -0.109627 1.972323
v -0.302132 -0.109627 1.972323
v -2.150952 0.650394 -0.790329
v -2.150952 0.650394 -0.790329
v -2.042981 0.971276 -0.719026
v -2.042981 0.971276 -0.719026
v -2.042981 0.971276 -0.719026
v 0.161988 0.706244 -1.721942
v 0.161988 0.706244 -1.721942
v -1.063054 0.470172 -1.800890
v -1.063054 0.470172 -1.800890
v -1.237083 0.623126 -1.343645
v 1.843869 -0.351080 -1.104750
v 1.843869 -0.351080 -1.104750
v 1.756589 -0.005335 -1.434148
v 1.756589 -0.005335 -1.434148
v 1.628087 -0.126012 -1.553185
v 1.628087 -0.126012 -1.553185
v 1.688534 0.550681 -1.067794
v 1.688534 0.550681 -1.067794
v 0.337578 1.409301 1.245220
v 0.337578 1.409301 1.245220
v 1.781773 1.170418 0.339956
v 1.781773 1.170418 0.339956
v 1.781773 1.170418 0.339956
v 0.548815 1.111515 1.351166
v -0.189138 1.530976 0.938308
v -0.189138 1.530976 0.938308
v -1.057877 1.094473 0.820356
v -1.057877 1.094473 0.820356
v -1.400391 1.485367 -0.509319
v -1.400391 1.485367 -0.509319
v -1.606019 0.972428 -0.938436
v -1.606019 0.972428 -0.938436
v -0.346394 1.350908 -1.064945
v -0.346394 1.350908 -1.064945
v 0.459216 1.139129 -1.643297
v 0.459216 1.139129 -1.643297
v -0.124721 1.545127 -0.372767
v -0.124721 1.545127 -0.372767
v -0.500822 1.613090 -0.713504
v -0.500822 1.613090 -0.713504
v 0.721262 1.093510 -1.620185
v 0.721262 1.093510 -1.620185
v 1.177912 1.165019 -1.051138
v 1.177912 1.165019 -1.051138
vt 0.382253 0.555917
vt 0.428314 0.658740
vt 0.272117 0.607322
vt 0.278810 0.846762
vt 0.310430 0.795662
vt 0.338250 0.836364
vt 0.306286 0.124406
vt 0.305937 0.173153
vt 0.255493 0.125427
vt 0.260576 0.245791
vt 0.287095 0.286145
vt 0.252710 0.283995
vt 0.264724 0.315290
vt 0.480642 0.138082
vt 0.353710 0.250124
vt 0.571544 0.759746
vt 0.533913 0.668232
vt 0.639674 0.591780
vt 0.108591 0.199093
vt 0.045289 0.076390
vt 0.169638 0.208688
vt 0.523243 0.815251
vt 0.664361 0.790852
vt 0.319417 0.744198
vt 0.276857 0.786361
vt 0.528851 0.233782
vt 0.658689 0.063334
vt 0.728009 0.201875
vt 0.458513 0.908456
vt 0.495382 0.958138
vt 0.436952 0.998491
vt 0.439200 0.503954
vt 0.295714 0.368727
vt 0.357892 0.333181
vt 0.549250 0.488098
vt 0.382666 0.490128
vt 0.401089 0.365159
vt 0.597598 0.000121
vt 0.240443 0.222539
vt 0.224857 0.290001
vt 0.188339 0.262070
vt 0.538841 0.873971
vt 0.474274 0.861616
vt 0.356051 0.305236
vt 0.269400 0.806783
vt 0.138927 0.699272
vt 0.214684 0.207575
vt 0.549603 0.370875
vt 0.616516 0.386098
vt 0.597226 0.407929
vt 0.292832 0.034304
vt 0.498832 0.816209
vt 0.416744 0.770256
vt 0.422521 0.696150
vt 0.256536 0.948803
vt 0.194114 0.836164
vt 0.291088 0.873075
vt 0.059188 0.358274
vt 0.000121 0.254989
vt 0.144693 0.635415
vt 0.176455 0.516010
vt 0.392824 0.734643
vt 0.308811 0.999879
vt 0.230227 0.993508
vt 0.000121 0.870395
vt 0.360542 0.869481
vt 0.313258 0.226897
vt 0.695748 0.629051
vt 0.695747 0.874720
vt 0.541820 0.934828
vt 0.684866 0.899213
vt 0.492811 0.327756
vt 0.497381 0.356143
vt 0.739586 0.298353
vt 0.758937 0.255615
vt 0.491185 0.289588
vt 0.320949 0.503713
vt 0.029811 0.000121
vt 0.171738 0.363870
vt 0.130892 0.381983
vn -0.442980 0.895137 -0.049993
vn -0.206857 0.974212 0.090113
vn -0.285862 0.943068 0.170019
vn -0.648536 0.386980 -0.655475
vn -0.565616 0.295656 -0.769848
vn -0.631421 0.508039 -0.585836
vn 0.015150 -0.226916 0.973796
vn 0.513720 -0.503733 0.694511
vn 0.448904 -0.474575 0.757142
vn 0.509195 -0.544381 0.666611
vn 0.885849 -0.103312 0.452326
vn 0.195104 -0.876288 0.440516
vn 0.191144 -0.933249 0.304155
vn 0.169990 -0.892310 0.418194
vn 0.637498 0.717960 -0.279519
vn 0.453983 0.868172 -0.200440
vn 0.542060 0.780182 -0.312229
vn -0.541800 0.621017 0.566384
vn 0.585200 0.261788 -0.767469
vn 0.624922 0.534838 -0.568700
vn 0.523719 0.457459 -0.718644
vn -0.272598 0.679294 -0.681359
vn -0.271272 0.663372 -0.697387
vn -0.330438 0.680020 -0.654510
vn 0.304724 -0.637408 -0.707711
vn 0.110901 -0.709128 -0.696303
vn 0.302234 -0.619709 -0.724303
vn -0.363127 -0.093060 -0.927081
vn -0.513433 0.000840 -0.858129
vn -0.433959 0.005111 -0.900918
vn 0.246991 0.958697 0.141050
vn 0.200117 0.972887 0.115951
vn 0.189857 0.974602 0.118763
vn 0.646495 0.180117 0.741352
vn 0.600392 0.048388 0.798241
vn 0.594450 0.031305 0.803523
vn 0.983861 0.073126 -0.163311
vn 0.941354 -0.179445 -0.285749
vn 0.980591 0.005852 -0.195977
vn -0.428073 -0.900150 0.080522
vn -0.391084 -0.917544 0.071875
vn -0.412882 -0.907527 0.076967
vn -0.431697 0.277461 -0.858285
vn -0.403132 0.291114 -0.867604
vn -0.403110 0.291124 -0.867611
vn 0.898228 0.206015 0.388257
vn 0.878084 0.235539 0.416520
vn 0.877353 0.429758 0.213446
vn -0.207573 0.057030 0.976556
vn -0.213614 0.075563 0.973991
vn -0.181236 0.049302 0.982203
vn 0.150250 0.525735 -0.837274
vn 0.131886 0.533285 -0.835592
vn 0.161742 0.469437 -0.868026
vn 0.841724 -0.538140 0.043655
vn 0.868987 -0.486908 0.088217
vn 0.761510 -0.646581 -0.045117
vn -0.945166 0.281081 0.166297
vn -0.981170 0.136274 0.136871
vn -0.994194 -0.049446 0.095565
vn 0.478261 -0.870834 0.113640
vn 0.438565 -0.890814 0.118792
vn 0.325163 -0.927660 0.183618
vn -0.044877 -0.284458 0.957638
vn 0.196333 -0.061888 0.978582
vn 0.236626 -0.021996 0.971352
vn 0.062280 0.168541 -0.983725
vn 0.074419 0.151516 -0.985649
vn 0.082721 0.139806 -0.986718
vn 0.786329 -0.310409 -0.534166
vn -0.629229 -0.386199 0.674478
vn -0.621249 -0.303476 0.722463
vn -0.645336 -0.362458 0.672433
vn 0.162758 0.961644 -0.220794
vn 0.047841 0.957624 -0.284021
vn 0.221168 0.953842 -0.203151
vn -0.901096 -0.260940 -0.346317
vn -0.875671 -0.310053 -0.370227
vn -0.901188 -0.260688 -0.346270
vn -0.190716 0.765782 0.614170
vn -0.299651 0.664178 0.684892
vn -0.432656 0.711444 0.553765
vn -0.146500 -0.537016 0.830753
vn -0.093003 -0.529445 0.843231
vn -0.107102 -0.577616 0.809252
vn 0.584089 0.535603 0.609893
vn 0.656861 0.543478 0.522652
vn 0.654858 0.558285 0.509391
vn -0.616876 0.662845 0.424383
vn -0.576250 0.693082 0.433097
vn -0.533192 0.651255 0.539975
vn 0.483951 0.789902 -0.376626
vn 0.053506 -0.835627 -0.546685
vn 0.046552 -0.857865 -0.511763
vn 0.063195 -0.801607 -0.594501
vn -0.207407 -0.469510 -0.858221
vn -0.197953 -0.572455 -0.795682
vn -0.201849 -0.534708 -0.820576
vn -0.783023 -0.606248 0.139065
vn -0.824526 -0.506807 0.251601
vn -0.763697 -0.634135 0.120994
vn -0.128574 0.957386 0.258613
vn -0.048863 0.998616 0.019450
vn -0.074171 0.959101 0.273172
vn -0.711767 0.337980 -0.615758
vn -0.673041 0.539263 -0.506172
vn 0.411952 -0.483145 0.772571
vn 0.348562 -0.608357 0.713026
vn 0.348712 -0.484838 0.802080
vn 0.166956 -0.581623 0.796141
vn 0.109257 -0.870981 0.479014
vn 0.681297 0.652252 -0.332266
vn 0.471316 0.795271 -0.381321
vn 0.493503 0.336706 -0.801925
vn 0.453662 0.459382 -0.763649
vn 0.441322 0.463688 -0.768263
vn 0.452604 0.333721 -0.826910
vn -0.282220 0.695540 -0.660738
vn -0.201803 0.564589 -0.800322
vn -0.221762 0.683509 -0.695440
vn -0.442097 0.445037 -0.778776
vn -0.442119 0.692037 -0.570628
vn -0.047492 0.529667 -0.846875
vn -0.281102 0.695583 -0.661170
vn 0.755046 -0.504446 -0.418856
vn 0.409261 -0.738933 -0.535242
vn 0.677224 -0.615197 -0.403609
vn 0.341538 -0.574113 -0.744141
vn 0.487282 -0.621253 -0.613679
vn 0.318717 -0.622934 -0.714404
vn 0.575810 -0.585376 -0.570769
vn -0.526807 -0.163998 -0.834014
vn -0.265347 -0.257596 -0.929105
vn -0.360535 -0.178620 -0.915483
vn 0.116178 0.991223 0.063088
vn 0.149319 0.984228 0.094864
vn 0.561840 -0.039427 0.826306
vn 0.565248 -0.035613 0.824152
vn 0.974952 0.191587 -0.112977
vn 0.981840 0.172376 -0.079226
vn 0.975746 0.173547 -0.133423
vn -0.360428 -0.930538 0.064734
vn -0.351895 0.314326 -0.881685
vn 0.832440 0.190262 0.520427
vn 0.778884 0.318517 0.540265
vn -0.212245 0.038342 0.976464
vn -0.232612 0.083071 0.969015
vn 0.189817 0.532595 -0.824810
vn 0.136969 0.561842 -0.815826
vn 0.893951 -0.439982 0.085245
vn 0.876911 -0.469776 0.101674
vn 0.832324 -0.532934 0.152375
vn -0.986601 -0.146151 0.072511
vn 0.409337 -0.899249 0.154258
vn 0.060178 -0.951613 0.301349
vn 0.297392 0.039813 0.953925
vn 0.105817 0.106951 -0.988617
vn -0.607162 -0.307494 0.732668
vn -0.587315 -0.362869 0.723455
vn -0.573839 -0.514888 0.636866
vn -0.579050 -0.406558 0.706691
vn 0.105300 0.959148 -0.262579
vn 0.158148 0.956075 -0.246798
vn 0.015880 0.934136 -0.356564
vn 0.161553 0.962644 -0.217296
vn -0.824884 -0.391394 -0.407894
vn -0.873086 -0.314602 -0.372488
vn -0.008388 0.923380 0.383795
vn -0.085012 0.709956 0.699096
vn -0.083277 0.689762 0.719231
vn 0.198766 0.544830 0.814649
vn -0.104023 0.594728 0.797169
vn -0.196741 -0.579072 0.791182
vn 0.002575 -0.664895 0.746933
vn -0.240248 -0.532196 0.811818
vn 0.502576 0.567788 0.651946
vn 0.508835 0.574914 0.640750
vn 0.492069 0.545618 0.678357
vn 0.535926 0.570918 0.621962
vn -0.651988 0.664808 0.364612
vn -0.634356 0.680742 0.366310
vn -0.508042 0.777786 0.370057
vn 0.072195 -0.766653 -0.637990
vn -0.209608 -0.437995 -0.874200
vn -0.800434 -0.597153 0.052102
vn -0.760132 -0.648397 0.042190
s 1
f 50/1/1 66/2/2 179/3/3
f 23/4/4 183/5/5 40/6/6
f 10/7/7 70/8/7 22/9/7
f 109/10/8 115/11/9 107/12/10
f 17/12/11 19/11/11 29/13/11
f 83/7/12 13/14/13 72/15/14
f 195/16/15 64/17/16 173/18/17
f 31/19/18 55/20/18 32/21/18
f 63/22/19 62/16/20 41/23/21
f 181/24/22 54/5/23 156/25/24
f 12/26/25 91/27/26 28/28/27
f 38/29/28 130/30/29 134/31/30
f 47/18/31 6/17/32 51/32/33
f 48/33/34 104/13/35 30/34/36
f 170/35/37 49/36/38 14/37/39
f 81/14/40 84/7/41 11/38/42
f 184/5/43 120/4/44 56/25/45
f 100/37/46 136/33/47 138/34/48
f 20/39/49 16/40/50 149/41/51
f 126/42/52 133/29/53 158/43/54
f 4/44/55 101/37/56 139/34/57
f 155/25/58 153/45/59 117/46/60
f 73/15/61 80/14/62 78/26/63
f 34/47/64 111/39/65 146/21/66
f 127/42/67 159/43/68 193/22/69
f 164/48/70 168/49/70 166/50/70
f 85/7/71 74/9/72 89/51/73
f 188/52/74 185/53/75 189/54/76
f 94/55/77 36/56/78 123/57/79
f 144/19/80 178/58/81 53/59/82
f 152/47/83 75/9/84 71/8/85
f 105/13/86 114/40/87 108/12/88
f 180/3/89 143/60/90 145/61/91
f 190/54/92 186/53/92 192/62/92
f 79/26/93 82/14/94 86/38/95
f 92/63/96 87/64/97 25/55/98
f 90/65/99 118/46/100 125/56/101
f 179/3/3 66/2/2 52/24/102
f 66/2/2 57/54/103 52/24/102
f 57/54/103 58/62/104 52/24/102
f 24/57/105 23/4/4 160/66/106
f 23/4/4 40/6/6 160/66/106
f 109/10/8 68/67/107 115/11/9
f 68/67/107 21/15/108 96/44/109
f 115/11/9 68/67/107 96/44/109
f 7/8/110 83/7/12 72/15/14
f 1/67/111 7/8/110 72/15/14
f 169/23/112 195/16/15 173/18/17
f 140/68/113 169/23/112 173/18/17
f 45/42/114 63/22/19 41/23/21
f 45/42/114 41/23/21 165/69/115
f 26/70/116 45/42/114 165/69/115
f 44/71/117 26/70/116 165/69/115
f 191/62/118 54/5/23 181/24/22
f 61/43/119 59/53/120 60/52/121
f 162/6/122 54/5/23 191/62/118
f 132/29/123 39/66/124 61/43/119
f 61/43/119 39/66/124 59/53/120
f 39/66/124 162/6/122 191/62/118
f 59/53/120 39/66/124 191/62/118
f 15/72/125 42/48/126 102/73/127
f 128/74/128 28/28/27 27/75/129
f 12/26/25 28/28/27 128/74/128
f 12/26/25 128/74/128 167/49/130
f 8/76/131 12/26/25 167/49/130
f 15/72/125 8/76/131 167/49/130
f 42/48/126 15/72/125 167/49/130
f 122/57/132 161/66/133 93/55/134
f 161/66/133 38/29/28 93/55/134
f 38/29/28 134/31/30 93/55/134
f 6/17/32 5/2/135 177/1/136
f 51/32/33 6/17/32 177/1/136
f 104/13/35 116/11/137 97/44/138
f 30/34/36 104/13/35 97/44/138
f 170/35/37 14/37/39 3/73/139
f 43/50/140 170/35/37 163/48/141
f 170/35/37 3/73/139 163/48/141
f 84/7/41 9/51/142 11/38/42
f 120/4/44 35/45/143 56/25/45
f 141/36/144 174/77/145 136/33/47
f 100/37/46 141/36/144 136/33/47
f 18/10/146 106/12/147 20/39/49
f 106/12/147 16/40/50 20/39/49
f 129/70/148 131/30/149 126/42/52
f 131/30/149 133/29/53 126/42/52
f 4/44/55 76/76/150 101/37/56
f 76/76/150 99/72/151 101/37/56
f 99/72/151 103/73/152 101/37/56
f 153/45/59 124/56/153 117/46/60
f 98/44/154 73/15/61 78/26/63
f 77/76/155 98/44/154 78/26/63
f 111/39/65 33/41/156 146/21/66
f 159/43/68 187/52/157 193/22/69
f 89/51/73 74/9/72 37/78/158
f 74/9/72 151/47/159 37/78/158
f 151/47/159 147/21/160 142/20/161
f 37/78/158 151/47/159 142/20/161
f 196/16/162 67/2/163 65/17/164
f 196/16/162 194/22/165 67/2/163
f 194/22/165 188/52/74 67/2/163
f 188/52/74 189/54/76 67/2/163
f 36/56/78 154/45/166 121/4/167
f 123/57/79 36/56/78 121/4/167
f 148/21/168 150/41/169 144/19/80
f 144/19/80 150/41/169 178/58/81
f 150/41/169 113/40/170 46/79/171
f 178/58/81 150/41/169 171/80/172
f 150/41/169 46/79/171 171/80/172
f 110/10/173 71/8/85 69/67/174
f 112/39/175 152/47/83 71/8/85
f 110/10/173 112/39/175 71/8/85
f 175/77/176 172/80/177 137/33/178
f 176/79/179 114/40/87 105/13/86
f 172/80/177 176/79/179 137/33/178
f 176/79/179 105/13/86 137/33/178
f 180/3/89 182/24/180 143/60/90
f 182/24/180 157/25/181 143/60/90
f 157/25/181 119/46/182 143/60/90
f 2/27/183 79/26/93 86/38/95
f 135/31/184 92/63/96 25/55/98
f 88/64/185 90/65/99 95/55/186
f 90/65/99 125/56/101 95/55/186
