# Blender v2.69 (sub 0) OBJ File: 'mine_rocks.blend'
# www.blender.org
o LowPolyRock.007
v 1.077574 -0.775282 -1.064070
v 1.775862 0.064684 -0.520275
v 0.934628 0.165226 1.429530
v -1.362333 0.076477 1.011660
v -1.838104 0.368702 -0.788609
v -0.367243 -0.669425 -1.560281
v 0.295958 1.374386 1.223932
v 0.752280 -1.219379 1.044041
v 0.915604 -1.783875 -0.133274
v 1.047973 -1.661170 0.560678
v -0.769255 -1.043577 1.428838
v -0.675856 -1.000447 1.473620
v -0.320652 -1.736631 -0.625170
v -0.436354 -1.816956 -0.453516
v -0.966990 -1.580186 -0.194540
v 1.608130 -0.854532 0.241815
v 0.712598 -0.051173 1.697405
v 0.609228 -0.257277 1.713714
v -1.716410 -0.149427 0.394324
v -1.825818 0.217444 -1.121448
v -2.005342 0.017767 -0.944772
v -1.629002 -0.046753 -1.171860
v -1.779043 -0.286144 -0.880499
v 0.224121 -0.534170 -1.541538
v 1.373401 0.419454 1.134415
v 1.639739 0.356542 0.861254
v -0.571758 0.428835 1.466593
v -0.220599 -0.266512 1.709075
v -1.611673 0.143545 0.701602
v -1.181064 0.607484 -1.084454
v -0.717635 -0.256278 -1.599586
v 1.689299 0.287527 -0.702339
v 1.400268 0.109812 -1.142574
v 1.605874 -0.310617 -0.789621
v 1.443647 -0.290980 -1.057234
v 0.911570 0.326125 -1.449073
v 1.290236 1.194268 -0.070590
v 0.320541 1.012684 1.299177
v -0.956718 1.460486 0.552068
v 0.418867 1.561411 1.077786
v -0.282644 0.949417 1.333979
v -0.165062 1.013584 1.342940
v -0.191844 1.609535 -0.415699
v -1.110840 1.357918 0.368353
v -1.458576 0.808319 0.459742
v -0.786571 1.248166 -1.070927
v 0.478617 1.030606 -1.381617
v -0.802436 1.145798 -1.251443
v -0.335135 1.016685 -1.545144
v 0.534529 1.640292 -0.257113
v 0.831779 1.463960 -0.632200
v 1.334462 1.158866 -0.326586
v -0.717635 -0.256278 -1.599586
v -0.717635 -0.256278 -1.599586
v -0.367243 -0.669425 -1.560281
v -0.367243 -0.669425 -1.560281
v 0.752280 -1.219379 1.044041
v 0.752280 -1.219379 1.044041
v 1.047973 -1.661170 0.560678
v 1.047973 -1.661170 0.560678
v 1.077574 -0.775282 -1.064070
v 1.077574 -0.775282 -1.064070
v 0.915604 -1.783875 -0.133274
v 0.915604 -1.783875 -0.133274
v 0.915604 -1.783875 -0.133274
v 1.608130 -0.854532 0.241815
v 1.608130 -0.854532 0.241815
v -0.966990 -1.580186 -0.194540
v -0.966990 -1.580186 -0.194540
v -0.769255 -1.043577 1.428838
v -0.769255 -1.043577 1.428838
v -0.769255 -1.043577 1.428838
v -0.769255 -1.043577 1.428838
v -0.675856 -1.000447 1.473620
v -0.320652 -1.736631 -0.625170
v -0.320652 -1.736631 -0.625170
v -0.436354 -1.816956 -0.453516
v -0.436354 -1.816956 -0.453516
v 1.605874 -0.310617 -0.789621
v 1.605874 -0.310617 -0.789621
v 1.639739 0.356542 0.861254
v 1.639739 0.356542 0.861254
v 1.639739 0.356542 0.861254
v 0.934628 0.165226 1.429530
v 0.712598 -0.051173 1.697405
v 0.712598 -0.051173 1.697405
v 0.320541 1.012684 1.299177
v 0.320541 1.012684 1.299177
v 0.320541 1.012684 1.299177
v -0.220599 -0.266512 1.709075
v -0.220599 -0.266512 1.709075
v 0.609228 -0.257277 1.713714
v 0.609228 -0.257277 1.713714
v -1.716410 -0.149427 0.394324
v -1.716410 -0.149427 0.394324
v -1.611673 0.143545 0.701602
v -1.611673 0.143545 0.701602
v -1.362333 0.076477 1.011660
v -1.362333 0.076477 1.011660
v -1.838104 0.368702 -0.788609
v -1.838104 0.368702 -0.788609
v -1.838104 0.368702 -0.788609
v -1.825818 0.217444 -1.121448
v -1.825818 0.217444 -1.121448
v -1.825818 0.217444 -1.121448
v -1.181064 0.607484 -1.084454
v -1.181064 0.607484 -1.084454
v -2.005342 0.017767 -0.944772
v -2.005342 0.017767 -0.944772
v -2.005342 0.017767 -0.944772
v -2.005342 0.017767 -0.944772
v -1.629002 -0.046753 -1.171860
v -1.629002 -0.046753 -1.171860
v -1.779043 -0.286144 -0.880499
v 0.224121 -0.534170 -1.541538
v 0.224121 -0.534170 -1.541538
v 0.911570 0.326125 -1.449073
v 0.911570 0.326125 -1.449073
v 1.373401 0.419454 1.134415
v 1.373401 0.419454 1.134415
v 1.775862 0.064684 -0.520275
v 1.775862 0.064684 -0.520275
v -0.282644 0.949417 1.333979
v -0.282644 0.949417 1.333979
v -0.282644 0.949417 1.333979
v -0.571758 0.428835 1.466593
v -0.571758 0.428835 1.466593
v -1.458576 0.808319 0.459742
v -1.458576 0.808319 0.459742
v -0.335135 1.016685 -1.545144
v -0.335135 1.016685 -1.545144
v 1.689299 0.287527 -0.702339
v 1.689299 0.287527 -0.702339
v 1.400268 0.109812 -1.142574
v 1.400268 0.109812 -1.142574
v 0.478617 1.030606 -1.381617
v 0.478617 1.030606 -1.381617
v 1.443647 -0.290980 -1.057234
v 1.443647 -0.290980 -1.057234
v 0.534529 1.640292 -0.257113
v 0.534529 1.640292 -0.257113
v 0.418867 1.561411 1.077786
v 0.418867 1.561411 1.077786
v 0.418867 1.561411 1.077786
v 0.418867 1.561411 1.077786
v 1.290236 1.194268 -0.070590
v 1.290236 1.194268 -0.070590
v 0.295958 1.374386 1.223932
v 0.295958 1.374386 1.223932
v -0.956718 1.460486 0.552068
v -0.956718 1.460486 0.552068
v -0.956718 1.460486 0.552068
v -0.165062 1.013584 1.342940
v -0.165062 1.013584 1.342940
v -1.110840 1.357918 0.368353
v -1.110840 1.357918 0.368353
v -0.786571 1.248166 -1.070927
v -0.786571 1.248166 -1.070927
v -0.191844 1.609535 -0.415699
v -0.191844 1.609535 -0.415699
v -0.802436 1.145798 -1.251443
v -0.802436 1.145798 -1.251443
v 1.334462 1.158866 -0.326586
v 1.334462 1.158866 -0.326586
v 0.831779 1.463960 -0.632200
v 0.831779 1.463960 -0.632200
vt 0.233853 0.353827
vt 0.135277 0.468579
vt 0.191459 0.316492
vt 0.454823 0.776203
vt 0.478383 0.892965
vt 0.396405 0.904018
vt 0.260988 0.717047
vt 0.146479 0.703108
vt 0.209908 0.672997
vt 0.203074 0.290631
vt 0.007860 0.202068
vt 0.180096 0.206001
vt 0.082272 0.462127
vt 0.363649 0.699189
vt 0.478384 0.621895
vt 0.348814 0.738787
vt 0.238764 0.798037
vt 0.318790 0.793537
vt 0.278569 0.168061
vt 0.260197 0.258103
vt 0.242173 0.208975
vt 0.404186 0.430997
vt 0.300513 0.350159
vt 0.469009 0.355269
vt 0.312925 0.524442
vt 0.037166 0.834867
vt 0.024919 0.866591
vt 0.000101 0.823394
vt 0.324392 0.744380
vt 0.307711 0.718215
vt 0.339297 0.689079
vt 0.301411 0.269426
vt 0.367216 0.270488
vt 0.262348 0.939955
vt 0.068494 0.845116
vt 0.062300 0.884674
vt 0.246840 0.590295
vt 0.396449 0.121410
vt 0.514607 0.238521
vt 0.260618 0.963743
vt 0.215323 0.089627
vt 0.157822 0.812302
vt 0.214270 0.528383
vt 0.186164 0.023550
vt 0.300324 0.000101
vt 0.337274 0.576209
vt 0.310629 0.265898
vt 0.332618 0.241673
vt 0.349780 0.263023
vt 0.367858 0.153165
vt 0.320179 0.168909
vt 0.059220 0.758917
vt 0.155646 0.325127
vt 0.202813 0.829710
vt 0.286753 0.367155
vt 0.292401 0.174721
vt 0.187158 0.202673
vt 0.209059 0.549183
vt 0.132099 0.575887
vt 0.094051 0.692051
vt 0.087550 0.670016
vt 0.300942 0.548980
vt 0.317737 0.595262
vt 0.110084 0.000101
vt 0.000101 0.128472
vt 0.548813 0.251625
vt 0.539325 0.343723
vt 0.196569 0.999899
vn -0.940568 0.284231 0.185860
vn -0.921804 0.337320 0.191030
vn -0.950858 0.236682 0.199627
vn 0.796458 -0.537786 -0.276481
vn 0.810634 -0.583285 -0.051488
vn 0.822679 -0.525379 -0.217200
vn 0.107503 0.075350 -0.991345
vn 0.115719 0.071081 -0.990735
vn 0.189273 0.208205 -0.959597
vn -0.618692 0.419559 0.664221
vn -0.590324 0.448422 0.671144
vn -0.677083 0.384270 0.627611
vn -0.861278 -0.441837 0.250957
vn -0.832551 -0.515366 0.203119
vn -0.821879 -0.537931 0.187471
vn 0.835254 -0.515547 0.191212
vn 0.990071 -0.136208 0.034735
vn 0.967653 -0.240177 0.077212
vn 0.420692 -0.242201 -0.874275
vn 0.429830 -0.239525 -0.870560
vn 0.399170 -0.230464 -0.887440
vn -0.093208 0.191479 0.977061
vn -0.024233 0.296263 0.954799
vn -0.008906 0.325248 0.945587
vn -0.064315 0.992697 0.102057
vn -0.083446 0.994248 0.067144
vn -0.080615 0.994117 0.072333
vn -0.395090 0.904643 -0.159765
vn -0.378819 0.911713 -0.158984
vn -0.382590 0.910105 -0.159169
vn -0.510244 0.044651 0.858870
vn -0.513852 0.046960 0.856592
vn -0.473472 0.040947 0.879857
vn -0.821217 0.507463 -0.260929
vn 0.851106 -0.030669 -0.524098
vn 0.840182 -0.024419 -0.541754
vn 0.859572 -0.053215 -0.508237
vn -0.312717 0.648850 0.693687
vn -0.339341 0.666750 0.663545
vn -0.345574 0.671528 0.655461
vn 0.233224 -0.663688 -0.710722
vn 0.249198 -0.678110 -0.691424
vn 0.224383 -0.663648 -0.713599
vn -0.664927 -0.371726 -0.647837
vn -0.518307 -0.407803 -0.751701
vn -0.520699 -0.407351 -0.750292
vn 0.048005 0.887628 -0.458053
vn 0.092226 0.842547 -0.530668
vn 0.009183 0.877623 -0.479263
vn 0.677701 0.613977 0.404666
vn 0.693638 0.645342 0.320001
vn 0.687720 0.632959 0.355533
vn 0.108097 -0.926415 -0.360652
vn 0.104862 -0.486296 0.867479
vn 0.277872 -0.718252 0.637888
vn 0.144271 -0.550769 0.822094
vn -0.390038 0.156010 -0.907486
vn -0.312833 0.047641 -0.948612
vn -0.467040 0.215598 -0.857550
vn -0.755379 0.618593 -0.216205
vn -0.703153 0.676448 -0.219076
vn -0.409682 0.892291 -0.189675
vn 0.715211 -0.297438 0.632458
vn 0.716312 -0.238165 0.655877
vn 0.717256 -0.305724 0.626160
vn 0.666153 0.465215 -0.582937
vn 0.654321 0.470762 -0.591817
vn 0.634076 0.489862 -0.598317
vn 0.919784 0.392348 0.007741
vn 0.924495 0.380662 0.020117
vn 0.925220 0.375158 0.056792
vn -0.174263 -0.912354 0.370461
vn -0.029380 -0.947991 0.316938
vn -0.106039 -0.905465 0.410961
vn 0.088166 0.208617 0.974015
vn 0.085378 -0.289587 0.953336
vn 0.504351 0.863247 0.020840
vn 0.500723 0.864018 0.052440
vn 0.488813 0.867352 0.093606
vn -0.784425 -0.196214 0.588368
vn -0.805111 -0.238704 0.542970
vn -0.802071 -0.232057 0.550301
vn 0.372227 0.353689 0.858109
vn 0.410521 0.362447 0.836723
vn 0.415853 0.404568 0.814488
vn -0.462482 0.800633 -0.380917
vn -0.454066 -0.559411 -0.693458
vn -0.479779 -0.488997 -0.728487
vn -0.647294 -0.611852 -0.454586
vn -0.928524 0.314049 0.198030
vn -0.968334 0.112331 0.222960
vn 0.777483 -0.524060 -0.347680
vn 0.553365 -0.736272 -0.389475
vn 0.700923 -0.617639 -0.356693
vn 0.091961 0.000089 -0.995763
vn 0.077948 0.011232 -0.996894
vn 0.008659 0.100019 -0.994948
vn -0.566459 0.439846 0.696893
vn -0.693846 0.344755 0.632235
vn -0.498454 0.463457 0.732633
vn -0.757968 0.250909 0.602103
vn -0.724504 -0.685633 0.070718
vn 0.999728 -0.019669 -0.012559
vn 0.399020 -0.224335 -0.889076
vn 0.250168 -0.175659 -0.952134
vn -0.023155 0.308103 0.951071
vn 0.031993 0.230010 0.972662
vn -0.095280 0.212674 0.972467
vn -0.092359 0.994431 0.050760
vn -0.407269 0.899127 -0.160320
vn -0.510879 0.041430 0.858654
vn -0.459893 0.037857 0.887167
vn 0.854583 -0.014518 -0.519113
vn 0.865056 -0.055230 -0.498626
vn -0.434448 0.723040 0.537093
vn -0.412218 0.713565 0.566481
vn 0.199611 -0.649538 -0.733659
vn 0.171141 -0.645066 -0.744715
vn -0.342008 -0.431238 -0.834904
vn 0.047179 0.917854 -0.394104
vn 0.017027 0.890942 -0.453799
vn -0.029816 0.883102 -0.468232
vn 0.016507 0.869123 -0.494320
vn 0.650550 0.568737 0.503311
vn -0.001938 -0.304386 0.952547
vn 0.515992 -0.842815 -0.153021
vn -0.544357 0.781166 -0.305703
vn -0.510945 0.094330 -0.854422
vn -0.346120 0.155039 -0.925291
vn -0.837378 0.501189 -0.218193
vn -0.821387 0.524108 -0.225023
vn -0.826627 0.515840 -0.224938
vn 0.700584 -0.284800 0.654271
vn 0.709763 -0.320134 0.627495
vn 0.517025 0.377046 0.768454
vn 0.646499 -0.303048 0.700144
vn 0.705752 -0.232219 0.669319
vn 0.633334 0.488202 -0.600455
vn 0.610094 0.509955 -0.606409
vn 0.608398 0.510691 -0.607492
vn 0.928148 0.371948 0.013967
vn 0.928699 0.356681 0.101470
vn -0.654851 -0.712873 0.250962
vn -0.198601 -0.894202 0.401199
vn -0.133500 -0.879448 0.456891
vn 0.514347 0.857372 -0.018967
vn 0.516040 0.856541 0.006285
vn -0.813116 -0.257073 0.522260
vn 0.127473 0.240383 0.962272
vn 0.468567 0.455925 0.756688
vn 0.373179 0.343641 0.861771
vn -0.478387 -0.554684 -0.680787
vn -0.516658 -0.595077 -0.615587
vn -0.551483 -0.548581 -0.628430
vn -0.537882 -0.624378 -0.566424
vn -0.743025 -0.611022 -0.273067
s 1
f 45/1/1 100/2/2 96/3/3
f 16/4/4 59/5/5 9/6/6
f 36/7/7 49/8/8 47/9/9
f 4/10/10 128/1/11 29/3/12
f 15/11/13 11/12/14 110/13/15
f 2/14/16 26/15/17 79/16/18
f 24/17/19 117/7/20 61/18/21
f 18/19/22 126/20/23 28/21/24
f 43/22/25 39/23/26 50/24/27
f 152/23/28 159/22/29 46/25/30
f 127/20/31 98/10/32 70/12/33
f 20/26/34 21/27/34 5/28/34
f 139/29/35 33/30/36 32/31/37
f 151/23/38 123/32/39 143/33/40
f 62/18/41 64/6/42 13/34/43
f 22/35/44 23/36/45 104/26/46
f 51/37/47 136/9/48 130/8/49
f 81/38/50 37/39/51 142/33/52
f 75/34/53 63/6/53 14/40/53
f 92/19/54 71/12/55 57/41/56
f 53/42/57 112/35/58 131/8/59
f 129/1/60 106/43/61 101/2/62
f 8/41/63 10/44/64 67/45/65
f 137/9/66 165/37/67 118/7/68
f 83/15/69 122/14/70 146/46/71
f 58/41/72 72/12/73 68/11/74
f 42/47/75 87/48/75 7/49/75
f 154/47/76 125/32/76 89/48/76
f 147/39/77 141/24/78 144/33/79
f 99/10/80 97/3/81 73/12/82
f 120/50/83 145/33/84 84/51/85
f 107/52/86 105/26/86 102/28/86
f 113/35/87 54/42/88 114/36/89
f 100/2/2 108/13/90 96/3/3
f 108/13/90 94/53/91 96/3/3
f 16/4/4 9/6/6 1/18/92
f 34/16/93 16/4/4 35/29/94
f 16/4/4 1/18/92 35/29/94
f 31/42/95 49/8/8 36/7/7
f 6/54/96 31/42/95 36/7/7
f 115/17/97 6/54/96 36/7/7
f 27/20/98 128/1/11 4/10/10
f 27/20/98 155/55/99 128/1/11
f 41/32/100 150/23/101 27/20/98
f 150/23/101 155/55/99 27/20/98
f 11/12/14 19/53/102 110/13/15
f 26/15/17 66/4/103 79/16/18
f 117/7/20 134/30/104 61/18/21
f 134/30/104 138/29/105 61/18/21
f 38/48/106 124/32/107 126/20/23
f 85/56/108 38/48/106 126/20/23
f 18/19/22 85/56/108 126/20/23
f 39/23/26 40/33/109 50/24/27
f 44/55/110 152/23/28 46/25/30
f 90/21/111 127/20/31 12/57/112
f 127/20/31 70/12/33 12/57/112
f 80/16/113 139/29/35 121/14/114
f 139/29/35 32/31/37 121/14/114
f 123/32/39 153/47/115 143/33/40
f 153/47/115 148/49/116 143/33/40
f 116/17/117 62/18/41 13/34/43
f 55/54/118 116/17/117 13/34/43
f 23/36/45 109/27/119 104/26/46
f 140/58/120 51/37/47 160/59/121
f 51/37/47 130/8/49 160/59/121
f 130/8/49 161/60/122 160/59/121
f 161/60/122 157/61/123 160/59/121
f 119/50/124 81/38/50 142/33/52
f 91/21/125 74/57/126 92/19/54
f 74/57/126 71/12/55 92/19/54
f 131/8/59 30/52/127 48/60/128
f 112/35/58 103/26/129 131/8/59
f 103/26/129 30/52/127 131/8/59
f 156/55/130 106/43/61 129/1/60
f 158/25/131 162/62/132 156/55/130
f 162/62/132 106/43/61 156/55/130
f 8/41/63 67/45/65 82/38/133
f 93/19/134 8/41/63 82/38/133
f 3/51/135 82/38/133 25/50/136
f 17/56/137 93/19/134 82/38/133
f 3/51/135 17/56/137 82/38/133
f 165/37/67 163/63/138 118/7/68
f 163/63/138 132/31/139 135/30/140
f 118/7/68 163/63/138 135/30/140
f 122/14/70 133/31/141 52/63/142
f 146/46/71 122/14/70 52/63/142
f 60/44/143 58/41/72 65/64/144
f 58/41/72 68/11/74 77/65/145
f 65/64/144 58/41/72 77/65/145
f 164/66/146 166/67/147 141/24/78
f 147/39/77 164/66/146 141/24/78
f 97/3/81 95/53/148 73/12/82
f 84/51/85 88/48/149 86/56/150
f 145/33/84 149/49/151 84/51/85
f 149/49/151 88/48/149 84/51/85
f 54/42/88 56/54/152 114/36/89
f 56/54/152 76/34/153 114/36/89
f 76/34/153 78/40/154 69/68/155
f 114/36/89 76/34/153 69/68/155
f 111/27/156 114/36/89 69/68/155
