# Blender v2.69 (sub 0) OBJ File: 'gems.blend'
# www.blender.org
o SEL_FRAME_Plane.013
v 1.092029 -1.092029 -0.000001
v -1.087427 -1.092029 -0.000001
v 1.092029 1.096630 0.000001
v -1.087427 1.096630 0.000001
v 0.896501 -0.896501 0.001644
v -0.891899 -0.896501 0.001644
v 0.896501 0.901102 0.001645
v -0.891899 0.901102 0.001645
v 0.993079 0.997680 0.080560
v 0.996376 -0.996376 0.080531
v -0.987401 -0.992003 0.080568
v -0.990833 1.000036 0.080540
vt 0.766855 0.031421
vt 0.983033 0.031827
vt 0.969239 0.059529
vt 0.984108 0.462173
vt 0.768011 0.461784
vt 0.781722 0.434244
vt 0.754053 0.489811
vt 0.753055 0.003928
vt 0.996887 0.003997
vt 0.998000 0.489823
vt 0.780347 0.058301
vt 0.970683 0.435451
vn 0.174963 -0.174963 0.968871
vn 0.165471 0.165685 0.972167
vn -0.353361 -0.353681 0.866052
vn -0.172338 0.172338 0.969817
vn -0.162633 -0.162420 0.973205
vn 0.356601 0.356270 0.863659
vn -0.350703 -0.350589 0.868386
vn 0.361712 -0.361713 0.859260
vn 0.353234 0.353345 0.866241
vn -0.359126 0.359125 0.861428
vn -0.344796 0.344796 0.873059
vn 0.347315 -0.347316 0.871059
s 1
f 10/1/1 9/2/2 7/3/3
f 12/4/4 11/5/5 6/6/6
f 9/2/2 12/4/4 7/3/3
f 11/5/5 10/1/1 6/6/6
f 2/7/7 1/8/8 10/1/1
f 1/8/8 3/9/9 10/1/1
f 4/10/10 2/7/7 12/4/4
f 3/9/9 4/10/10 12/4/4
f 5/11/11 10/1/1 7/3/3
f 8/12/12 12/4/4 6/6/6
f 12/4/4 8/12/12 7/3/3
f 10/1/1 5/11/11 6/6/6
f 11/5/5 2/7/7 10/1/1
f 3/9/9 9/2/2 10/1/1
f 2/7/7 11/5/5 12/4/4
f 9/2/2 3/9/9 12/4/4
