# Blender v2.69 (sub 0) OBJ File: 'cart.blend'
# www.blender.org
o Cylinder
v 0.000000 -30.000000 -3.706959
v 0.000000 30.000000 -3.706959
v 1.072997 -30.000000 -3.610885
v 1.072997 30.000000 -3.610885
v 2.104759 -30.000000 -3.326357
v 2.104759 30.000000 -3.326357
v 3.055636 -30.000000 -2.864307
v 3.055636 30.000000 -2.864307
v 3.889087 -30.000000 -2.242493
v 3.889087 30.000000 -2.242493
v 4.573083 -30.000000 -1.484810
v 4.573083 30.000000 -1.484810
v 5.081337 -30.000000 -0.620376
v 5.081337 30.000000 -0.620376
v 5.394319 -30.000000 0.317589
v 5.394319 30.000000 0.317589
v 5.500000 -30.000000 1.293041
v 5.500000 30.000000 1.293041
v -5.500000 -30.000000 1.293036
v -5.500000 30.000000 1.293036
v -5.394318 -30.000000 0.317584
v -5.394318 30.000000 0.317584
v -5.081335 -30.000000 -0.620381
v -5.081335 30.000000 -0.620381
v -4.573080 -30.000000 -1.484815
v -4.573080 30.000000 -1.484815
v -3.889082 -30.000000 -2.242497
v -3.889082 30.000000 -2.242497
v -3.055630 -30.000000 -2.864311
v -3.055630 30.000000 -2.864311
v -2.104752 -30.000000 -3.326360
v -2.104752 30.000000 -3.326360
v -1.072989 -30.000000 -3.610887
v -1.072989 30.000000 -3.610887
v 0.000000 -24.614370 -3.706959
v 0.000000 -15.383599 -3.706959
v 0.000000 -6.644801 -3.706959
v 0.000000 2.585969 -3.706959
v 0.000000 11.655480 -3.706959
v 0.000000 20.886250 -3.706959
v 1.072997 20.886248 -3.610885
v 1.072997 11.655478 -3.610885
v 1.072997 2.585965 -3.610885
v 1.072997 -6.644804 -3.610885
v 1.072997 -15.383603 -3.610885
v 1.072997 -24.614372 -3.610885
v 2.104759 20.886248 -3.326357
v 2.104759 11.655478 -3.326357
v 2.104759 2.585965 -3.326357
v 2.104759 -6.644804 -3.326357
v 2.104759 -15.383603 -3.326357
v 2.104759 -24.614372 -3.326357
v 3.055636 20.886248 -2.864307
v 3.055636 11.655478 -2.864307
v 3.055636 2.585965 -2.864307
v 3.055636 -6.644804 -2.864307
v 3.055636 -15.383603 -2.864307
v 3.055636 -24.614372 -2.864307
v 3.889087 20.886248 -2.242493
v 3.889087 11.655478 -2.242493
v 3.889087 2.585965 -2.242493
v 3.889087 -6.644804 -2.242493
v 3.889087 -15.383603 -2.242493
v 35.326893 2.570609 0.317589
v 3.889087 -24.614372 -2.242493
v 4.573083 20.886248 -1.484810
v 35.295471 -15.346251 -2.864307
v 4.573083 11.655478 -1.484810
v 4.573083 2.585965 -1.484810
v 35.324009 -24.634981 0.317589
v 4.573083 -6.644804 -1.484810
v 4.573083 -15.383603 -1.484810
v 35.312237 2.570609 1.293041
v 4.573083 -24.614372 -1.484810
v 5.081337 20.886248 -0.620376
v 35.317787 -15.346251 -0.620376
v 5.081337 11.655478 -0.620376
v 5.081337 2.585965 -0.620376
v 35.311611 2.570609 -1.484810
v 5.081337 -6.644804 -0.620376
v 5.081337 -15.383603 -0.620376
v 35.312256 -15.346251 -1.484810
v 5.081337 -24.614372 -0.620376
v 5.394319 20.886248 0.317589
v 35.295341 -24.634981 -2.242493
v 5.394319 11.655478 0.317589
v 5.394319 2.585965 0.317589
v 35.290466 -6.631181 -2.242493
v 5.394319 -6.644804 0.317589
v 5.394319 -15.383603 0.317589
v 35.312172 -24.634981 -1.484810
v 5.394319 -24.614372 0.317589
v 5.500000 20.886248 1.293041
v 35.289085 -15.346251 -2.242493
v 5.500000 11.655478 1.293041
v 5.500000 2.585965 1.293041
v 5.500000 -6.644804 1.293041
v 5.500000 -15.383603 1.293041
v 35.326790 -24.634981 -0.620376
v 5.500000 -24.614372 1.293041
v -5.500000 20.886248 1.293036
v -5.500000 11.655478 1.293036
v -5.500000 2.585965 1.293036
v -5.500000 -6.644804 1.293036
v -5.500000 -15.383603 1.293036
v -5.500000 -24.614372 1.293036
v -5.394318 20.886248 0.317584
v -5.394318 11.655478 0.317584
v -5.394318 2.585965 0.317584
v -5.394318 -6.644804 0.317584
v -5.394318 -15.383603 0.317584
v -5.394318 -24.614372 0.317584
v -5.081335 20.886248 -0.620381
v -5.081335 11.655478 -0.620381
v -5.081335 2.585965 -0.620381
v -5.081335 -6.644804 -0.620381
v -5.081335 -15.383603 -0.620381
v -5.081335 -24.614372 -0.620381
v -4.573080 20.886248 -1.484815
v -4.573080 11.655478 -1.484815
v -4.573080 2.585965 -1.484815
v -4.573080 -6.644804 -1.484815
v -4.573080 -15.383603 -1.484815
v -4.573080 -24.614372 -1.484815
v -3.889082 20.886248 -2.242497
v -3.889082 11.655478 -2.242497
v -3.889082 2.585965 -2.242497
v -3.889082 -6.644804 -2.242497
v -3.889082 -15.383603 -2.242497
v -3.889082 -24.614372 -2.242497
v -3.055630 20.886248 -2.864311
v -3.055630 11.655478 -2.864311
v -3.055630 2.585965 -2.864311
v -3.055630 -6.644804 -2.864311
v -3.055630 -15.383603 -2.864311
v -3.055630 -24.614372 -2.864311
v -2.104752 20.886248 -3.326360
v -2.104752 11.655478 -3.326360
v -2.104752 2.585965 -3.326360
v -2.104752 -6.644804 -3.326360
v -2.104752 -15.383603 -3.326360
v -2.104752 -24.614372 -3.326360
v -1.072989 20.886248 -3.610887
v -1.072989 11.655478 -3.610887
v -1.072989 2.585965 -3.610887
v -1.072989 -6.644804 -3.610887
v -1.072989 -15.383603 -3.610887
v -1.072989 -24.614372 -3.610887
v 35.304852 -6.631181 -1.484810
v 35.292561 2.570609 -2.242493
v 35.318420 2.570609 -0.620376
v 35.315887 -24.634981 1.293041
v 35.327782 -6.631181 -0.620376
v 35.314472 -15.346251 1.293041
v 35.295471 -24.634981 -2.864307
v 35.313301 -15.346251 0.317589
v 35.289963 20.893724 -2.242493
v 35.328140 -6.631181 0.317589
v 35.312077 -6.631181 1.293041
v 35.289963 11.662954 -2.242493
v 35.313843 20.893724 -1.484810
v 35.314457 11.662954 -1.484810
v 35.325584 20.893724 -0.620376
v 35.326797 11.662954 -0.620376
v 35.319016 20.893724 0.317589
v 35.322647 11.662954 0.317589
v 35.310513 20.893724 1.293041
v 35.313431 11.662954 1.293041
v -20.081730 -30.000000 1.293036
v -20.081730 30.000000 1.293036
v 35.336029 -30.000000 1.293041
v 35.235558 30.000000 1.293041
vt 0.491632 0.617114
vt 0.504693 0.617116
vt 0.491618 0.727600
vt 0.517668 0.617117
vt 0.504678 0.727602
vt 0.530485 0.617119
vt 0.517653 0.727604
vt 0.543091 0.617121
vt 0.530469 0.727606
vt 0.555466 0.617123
vt 0.543076 0.727608
vt 0.567622 0.617125
vt 0.555450 0.727610
vt 0.579610 0.617126
vt 0.567607 0.727611
vt 0.591505 0.617128
vt 0.579594 0.727613
vt 0.391758 0.617100
vt 0.403653 0.617102
vt 0.391745 0.727590
vt 0.415641 0.617103
vt 0.403640 0.727591
vt 0.427798 0.617105
vt 0.415628 0.727593
vt 0.440173 0.617107
vt 0.427785 0.727594
vt 0.452780 0.617108
vt 0.440160 0.727595
vt 0.465597 0.617110
vt 0.452766 0.727597
vt 0.478572 0.617112
vt 0.478558 0.727599
vt 0.465583 0.727598
vt 0.000137 0.115854
vt 0.391009 0.115605
vt 0.391009 0.228220
vt 0.010183 0.538921
vt 0.010176 0.427009
vt 0.390912 0.538713
vt 0.491727 0.177387
vt 0.504788 0.177391
vt 0.491697 0.283337
vt 0.478666 0.177383
vt 0.029722 0.384152
vt 0.029714 0.278204
vt 0.391159 0.384288
vt 0.029740 0.691731
vt 0.029737 0.581774
vt 0.391174 0.581578
vt 0.478636 0.283333
vt 0.465689 0.177379
vt 0.465660 0.283330
vt 0.452872 0.177375
vt 0.591546 0.395270
vt 0.591524 0.505224
vt 0.579651 0.395268
vt 0.579629 0.505221
vt 0.567663 0.395265
vt 0.452842 0.283327
vt 0.440264 0.177372
vt 0.440235 0.283323
vt 0.427888 0.177368
vt 0.567641 0.505219
vt 0.555506 0.395263
vt 0.555484 0.505217
vt 0.543131 0.395260
vt 0.530524 0.395258
vt 0.530502 0.505212
vt 0.517707 0.395255
vt 0.028442 0.877544
vt 0.024651 0.866171
vt 0.391244 0.877628
vt 0.028456 0.703557
vt 0.391191 0.691812
vt 0.415730 0.177364
vt 0.415701 0.283317
vt 0.403741 0.177361
vt 0.403712 0.283314
vt 0.029739 0.065432
vt 0.391224 0.065199
vt 0.028465 0.077260
vt 0.028446 0.266377
vt 0.391180 0.278628
vt 0.517686 0.505210
vt 0.504731 0.395252
vt 0.504710 0.505207
vt 0.491650 0.505205
vt 0.391331 0.077026
vt 0.024678 0.088634
vt 0.010233 0.235318
vt 0.000137 0.227767
vt 0.390922 0.235761
vt 0.028449 0.569949
vt 0.018472 0.417826
vt 0.391058 0.417965
vt 0.018515 0.244513
vt 0.391192 0.244948
vt 0.391371 0.088397
vt 0.018523 0.099118
vt 0.491671 0.395249
vt 0.478610 0.395247
vt 0.478589 0.505203
vt 0.465634 0.395244
vt 0.024665 0.255001
vt 0.391179 0.266799
vt 0.010236 0.108309
vt 0.391003 0.108065
vt 0.028437 0.395978
vt 0.018480 0.548102
vt 0.391148 0.547899
vt 0.391247 0.255428
vt 0.391201 0.098879
vt 0.465613 0.505201
vt 0.452817 0.395241
vt 0.452796 0.505199
vt 0.440210 0.395239
vt 0.018491 0.855690
vt 0.010200 0.846502
vt 0.391186 0.855777
vt 0.024648 0.558579
vt 0.391345 0.569753
vt 0.024638 0.407348
vt 0.391341 0.407485
vt 0.018494 0.725406
vt 0.024659 0.714927
vt 0.391348 0.715011
vt 0.440190 0.505197
vt 0.427834 0.395236
vt 0.427814 0.505195
vt 0.415676 0.395234
vt 0.391845 0.177357
vt 0.391817 0.283311
vt 0.543158 0.283350
vt 0.530551 0.283347
vt 0.415657 0.505193
vt 0.403688 0.395231
vt 0.403668 0.505191
vt 0.391792 0.395229
vt 0.517734 0.283343
vt 0.504758 0.283340
vt 0.543109 0.505214
vt 0.427859 0.283320
vt 0.391349 0.396113
vt 0.391236 0.558380
vt 0.391326 0.866256
vt 0.029721 0.889370
vt 0.391138 0.889455
vt 0.391301 0.703639
vt 0.010200 0.734590
vt 0.391196 0.725491
vt 0.391773 0.505189
vt 0.029742 0.000137
vt 0.391472 0.000154
vt 0.530581 0.177399
vt 0.517764 0.177395
vt 0.390897 0.734677
vt 0.390898 0.846589
vt 0.029723 0.999863
vt 0.543188 0.177403
vt 0.555564 0.177406
vt 0.555533 0.283354
vt 0.567721 0.177410
vt 0.567691 0.283357
vt 0.579709 0.177413
vt 0.579679 0.283360
vt 0.591604 0.177416
vt 0.591574 0.283364
vt 0.530618 0.065485
vt 0.517801 0.065480
vt 0.504825 0.065475
vt 0.491763 0.065471
vt 0.478702 0.065466
vt 0.465726 0.065461
vt 0.452908 0.065457
vt 0.440300 0.065453
vt 0.427924 0.065448
vt 0.415765 0.065444
vt 0.403776 0.065440
vt 0.391880 0.065436
vt 0.391902 0.000137
vt 0.403799 0.000141
vt 0.415788 0.000145
vt 0.427946 0.000149
vt 0.440323 0.000153
vt 0.452931 0.000158
vt 0.465749 0.000162
vt 0.478726 0.000167
vt 0.491788 0.000172
vt 0.504850 0.000177
vt 0.517827 0.000183
vt 0.530645 0.000188
vt 0.543253 0.000194
vt 0.555629 0.000199
vt 0.543225 0.065490
vt 0.567787 0.000205
vt 0.555601 0.065495
vt 0.579776 0.000210
vt 0.567759 0.065501
vt 0.591671 0.000216
vt 0.579747 0.065506
vt 0.591944 0.727568
vt 0.768731 0.617074
vt 0.768731 0.727568
vt 0.591489 0.727615
vt 0.390880 0.427152
vt 0.390231 0.999858
vt 0.591642 0.065511
vt 0.768731 0.000137
vt 0.768731 0.065431
vt 0.591944 0.000137
vt 0.768731 0.177344
vt 0.768731 0.505162
vt 0.768731 0.283292
vt 0.768731 0.395204
vn -0.089181 0.000000 0.996015
vn -0.265846 0.000000 0.964015
vn -0.437053 0.000000 0.899436
vn -0.597983 0.000000 0.801509
vn -0.742280 0.000000 0.670090
vn -0.862037 0.000000 0.506845
vn -0.948584 0.000000 0.316525
vn -0.994182 0.000000 0.107710
vn 0.994182 0.000000 0.107711
vn 0.948584 0.000000 0.316526
vn 0.862037 0.000000 0.506846
vn 0.742278 0.000000 0.670092
vn 0.597982 0.000000 0.801509
vn 0.437052 0.000000 0.899436
vn 0.089180 0.000000 0.996015
vn 0.265845 0.000000 0.964016
vn 0.000000 0.000000 1.000000
vn 0.089181 0.000000 0.996015
vn 0.000250 -1.000000 -0.000087
vn -0.000251 1.000000 0.000027
vn 0.000691 1.000000 -0.000076
vn 0.001253 -0.999999 -0.000136
vn 0.000689 1.000000 -0.000230
vn 0.001190 -0.999998 -0.001594
vn -0.000515 -1.000000 0.000056
vn -0.000443 1.000000 0.000401
vn 0.001215 -0.999999 -0.001098
vn 0.000681 1.000000 -0.000402
vn 0.001248 -0.999999 -0.000415
vn 0.000656 0.999999 -0.000875
vn -0.000457 1.000000 0.000049
vn -0.000500 -1.000000 0.000451
vn 0.001235 -0.999999 -0.000726
vn 0.000670 1.000000 -0.000603
vn 0.000243 -1.000000 -0.000220
vn -0.000513 -1.000000 0.000171
vn -0.000450 1.000000 0.000265
vn -0.000247 1.000000 0.000145
vn -0.265846 0.000000 0.964016
vn 0.089180 0.000000 0.996016
vn -0.000455 1.000000 0.000151
vn -0.000508 -1.000000 0.000299
vn 0.000247 -1.000000 -0.000149
vn 0.000251 -1.000000 -0.000025
vn -0.000250 1.000000 0.000085
vn -0.000243 1.000000 0.000220
vn 0.597982 0.000000 0.801510
vn -0.089180 0.000000 0.996016
vn -0.862037 0.000000 0.506846
vn 0.000247 -1.000000 0.000003
vn -0.000250 1.000000 -0.000002
vn 0.000689 1.000000 0.000004
vn 0.001248 -0.999999 -0.000002
vn 0.000681 1.000000 0.000000
vn 0.001159 -0.999999 0.000012
vn -0.000513 -1.000000 -0.000008
vn -0.000434 1.000000 0.000008
vn 0.001190 -0.999999 -0.000037
vn 0.000670 1.000000 -0.000009
vn 0.265844 0.000000 0.964016
vn 0.001235 -0.999999 0.000007
vn 0.000639 1.000000 0.000000
vn -0.000455 1.000000 -0.000007
vn -0.000489 -1.000000 0.000012
vn 0.001215 -0.999999 -0.000008
vn 0.000656 1.000000 -0.000015
vn 0.000238 -1.000000 -0.000009
vn -0.000508 -1.000000 0.000004
vn -0.000443 1.000000 0.000011
vn -0.000243 1.000000 0.000002
vn 0.089179 0.000000 0.996016
vn -0.000450 1.000000 0.000000
vn -0.000500 -1.000000 0.000004
vn 0.000243 -1.000000 -0.000002
vn 0.000250 -1.000000 0.000003
vn -0.000247 1.000000 0.000000
vn -0.000238 1.000000 0.000008
vn 0.437051 0.000000 0.899437
s off
f 40/1/1 41/2/1 2/3/1
f 41/2/2 47/4/2 4/5/2
f 47/4/3 53/6/3 6/7/3
f 53/6/4 59/8/4 8/9/4
f 59/8/5 66/10/5 10/11/5
f 66/10/6 75/12/6 12/13/6
f 75/12/7 84/14/7 14/15/7
f 84/14/8 93/16/8 16/17/8
f 101/18/9 107/19/9 20/20/9
f 107/19/10 113/21/10 22/22/10
f 113/21/11 119/23/11 24/24/11
f 119/23/12 125/25/12 26/26/12
f 125/25/13 131/27/13 28/28/13
f 131/27/14 137/29/14 30/30/14
f 143/31/15 40/1/15 34/32/15
f 137/29/16 143/31/16 32/33/16
f 58/34/17 155/35/17 67/36/17
f 61/37/17 62/38/17 150/39/17
f 36/40/1 45/41/1 37/42/1
f 36/40/18 37/42/18 147/43/18
f 97/44/17 98/45/17 159/46/17
f 95/47/17 96/48/17 73/49/17
f 147/43/16 146/50/16 141/51/16
f 141/51/14 140/52/14 135/53/14
f 96/54/8 95/55/8 87/56/8
f 87/56/7 86/57/7 78/58/7
f 135/53/13 134/59/13 129/60/13
f 129/60/12 128/61/12 123/62/12
f 78/58/6 77/63/6 69/64/6
f 69/64/5 68/65/5 61/66/5
f 55/67/4 61/66/4 54/68/4
f 55/67/3 54/68/3 49/69/3
f 84/70/19 75/71/19 165/72/19
f 86/73/20 95/47/20 168/74/20
f 117/75/11 123/62/11 116/76/11
f 111/77/10 117/75/10 110/78/10
f 100/79/21 152/80/21 92/81/21
f 98/45/22 90/82/22 154/83/22
f 49/69/2 48/84/2 43/85/2
f 42/86/1 39/87/1 43/85/1
f 92/81/23 70/88/23 83/89/23
f 63/90/24 57/91/24 94/92/24
f 96/48/25 87/93/25 73/49/25
f 62/38/26 71/94/26 149/95/26
f 72/96/27 63/90/27 82/97/27
f 83/89/28 99/98/28 74/99/28
f 38/100/15 39/87/15 145/101/15
f 145/101/16 144/102/16 139/103/16
f 90/82/29 81/104/29 156/105/29
f 58/34/30 65/106/30 85/107/30
f 89/108/31 97/44/31 159/46/31
f 69/109/32 61/37/32 79/110/32
f 81/104/33 72/96/33 76/111/33
f 65/106/34 74/99/34 91/112/34
f 139/103/14 138/113/14 133/114/14
f 133/114/13 132/115/13 127/116/13
f 66/117/35 59/118/35 161/119/35
f 87/93/36 78/120/36 64/121/36
f 71/94/37 80/122/37 153/123/37
f 68/124/38 77/125/38 164/126/38
f 127/116/12 126/127/12 121/128/12
f 121/128/11 120/129/11 115/130/11
f 105/131/9 111/77/9 104/132/9
f 62/133/4 61/66/4 56/134/4
f 115/130/10 114/135/10 109/136/10
f 109/136/9 108/137/9 103/138/9
f 50/139/3 56/134/3 49/69/3
f 44/140/39 50/139/39 43/85/39
f 54/68/4 60/141/4 53/6/4
f 37/42/1 44/140/1 38/100/1
f 146/50/18 37/42/18 38/100/18
f 48/84/3 54/68/3 47/4/3
f 42/86/2 48/84/2 41/2/2
f 140/52/16 146/50/16 139/103/16
f 140/52/14 139/103/14 134/59/14
f 39/87/1 42/86/1 40/1/1
f 39/87/40 40/1/40 144/102/40
f 134/59/13 133/114/13 128/61/13
f 128/61/12 127/116/12 122/142/12
f 144/102/16 143/31/16 138/113/16
f 138/113/14 137/29/14 132/115/14
f 122/142/11 121/128/11 116/76/11
f 116/76/10 115/130/10 110/78/10
f 126/127/13 132/115/13 125/25/13
f 120/129/12 126/127/12 119/23/12
f 110/78/9 109/136/9 104/132/9
f 114/135/11 120/129/11 113/21/11
f 108/137/10 114/135/10 107/19/10
f 80/122/41 89/108/41 158/143/41
f 78/120/42 69/109/42 151/144/42
f 75/71/43 66/117/43 163/145/43
f 93/146/44 84/70/44 167/147/44
f 77/125/45 86/73/45 166/148/45
f 60/149/46 68/124/46 162/150/46
f 102/151/9 108/137/9 101/18/9
f 17/152/17 171/153/17 100/79/17
f 57/154/3 56/134/3 51/155/3
f 51/155/2 50/139/2 45/41/2
f 160/156/17 157/157/17 60/149/17
f 18/158/17 93/146/17 167/147/17
f 63/159/4 62/133/4 57/154/4
f 72/160/5 71/161/5 63/159/5
f 81/162/6 80/163/6 72/160/6
f 90/164/7 89/165/7 81/162/7
f 98/166/8 97/167/8 90/164/8
f 58/168/3 57/154/3 52/169/3
f 46/170/2 52/169/2 45/41/2
f 35/171/1 46/170/1 36/40/1
f 148/172/18 35/171/18 36/40/18
f 142/173/16 148/172/16 141/51/16
f 136/174/14 142/173/14 135/53/14
f 130/175/47 136/174/47 129/60/47
f 124/176/12 130/175/12 123/62/12
f 118/177/11 124/176/11 117/75/11
f 112/178/10 118/177/10 111/77/10
f 106/179/9 112/178/9 105/131/9
f 106/179/9 19/180/9 112/178/9
f 21/181/10 23/182/10 112/178/10
f 23/182/11 25/183/11 118/177/11
f 25/183/12 27/184/12 124/176/12
f 27/184/13 29/185/13 130/175/13
f 29/185/14 31/186/14 136/174/14
f 31/186/16 33/187/16 142/173/16
f 33/187/40 1/188/40 148/172/40
f 1/188/48 3/189/48 35/171/48
f 3/189/39 5/190/39 46/170/39
f 5/190/3 7/191/3 52/169/3
f 7/191/4 9/192/4 58/168/4
f 9/192/5 11/193/5 65/194/5
f 11/193/49 13/195/49 74/196/49
f 13/195/7 15/197/7 83/198/7
f 15/197/8 17/199/8 92/200/8
f 170/201/17 101/202/17 20/203/17
f 41/2/1 4/5/1 2/3/1
f 47/4/2 6/7/2 4/5/2
f 53/6/3 8/9/3 6/7/3
f 59/8/4 10/11/4 8/9/4
f 66/10/5 12/13/5 10/11/5
f 75/12/6 14/15/6 12/13/6
f 84/14/7 16/17/7 14/15/7
f 93/16/8 18/204/8 16/17/8
f 107/19/9 22/22/9 20/20/9
f 113/21/10 24/24/10 22/22/10
f 119/23/11 26/26/11 24/24/11
f 125/25/12 28/28/12 26/26/12
f 131/27/13 30/30/13 28/28/13
f 137/29/14 32/33/14 30/30/14
f 40/1/40 2/3/40 34/32/40
f 143/31/16 34/32/16 32/33/16
f 57/91/17 58/34/17 67/36/17
f 62/38/17 88/205/17 150/39/17
f 45/41/1 44/140/1 37/42/1
f 37/42/40 146/50/40 147/43/40
f 98/45/17 154/83/17 159/46/17
f 168/74/17 95/47/17 73/49/17
f 146/50/16 140/52/16 141/51/16
f 140/52/14 134/59/14 135/53/14
f 95/55/8 86/57/8 87/56/8
f 86/57/7 77/63/7 78/58/7
f 134/59/47 128/61/47 129/60/47
f 128/61/12 122/142/12 123/62/12
f 77/63/6 68/65/6 69/64/6
f 68/65/5 60/141/5 61/66/5
f 61/66/4 60/141/4 54/68/4
f 54/68/3 48/84/3 49/69/3
f 75/71/50 163/145/50 165/72/50
f 166/148/51 86/73/51 168/74/51
f 123/62/11 122/142/11 116/76/11
f 117/75/10 116/76/10 110/78/10
f 152/80/52 70/88/52 92/81/52
f 90/82/53 156/105/53 154/83/53
f 48/84/2 42/86/2 43/85/2
f 39/87/1 38/100/1 43/85/1
f 70/88/54 99/98/54 83/89/54
f 57/91/55 67/36/55 94/92/55
f 87/93/56 64/121/56 73/49/56
f 88/205/57 62/38/57 149/95/57
f 63/90/58 94/92/58 82/97/58
f 99/98/59 91/112/59 74/99/59
f 39/87/40 144/102/40 145/101/40
f 144/102/60 138/113/60 139/103/60
f 81/104/61 76/111/61 156/105/61
f 155/35/62 58/34/62 85/107/62
f 158/143/63 89/108/63 159/46/63
f 61/37/64 150/39/64 79/110/64
f 72/96/65 82/97/65 76/111/65
f 85/107/66 65/106/66 91/112/66
f 138/113/14 132/115/14 133/114/14
f 132/115/13 126/127/13 127/116/13
f 59/118/67 157/157/67 161/119/67
f 78/120/68 151/144/68 64/121/68
f 149/95/69 71/94/69 153/123/69
f 162/150/70 68/124/70 164/126/70
f 126/127/12 120/129/12 121/128/12
f 120/129/11 114/135/11 115/130/11
f 111/77/9 110/78/9 104/132/9
f 61/66/4 55/67/4 56/134/4
f 114/135/10 108/137/10 109/136/10
f 108/137/9 102/151/9 103/138/9
f 56/134/3 55/67/3 49/69/3
f 50/139/2 49/69/2 43/85/2
f 60/141/4 59/8/4 53/6/4
f 44/140/1 43/85/1 38/100/1
f 145/101/71 146/50/71 38/100/71
f 54/68/3 53/6/3 47/4/3
f 48/84/2 47/4/2 41/2/2
f 146/50/16 145/101/16 139/103/16
f 139/103/14 133/114/14 134/59/14
f 42/86/1 41/2/1 40/1/1
f 40/1/40 143/31/40 144/102/40
f 133/114/13 127/116/13 128/61/13
f 127/116/12 121/128/12 122/142/12
f 143/31/16 137/29/16 138/113/16
f 137/29/14 131/27/14 132/115/14
f 121/128/11 115/130/11 116/76/11
f 115/130/10 109/136/10 110/78/10
f 132/115/13 131/27/13 125/25/13
f 126/127/12 125/25/12 119/23/12
f 109/136/9 103/138/9 104/132/9
f 120/129/11 119/23/11 113/21/11
f 114/135/10 113/21/10 107/19/10
f 153/123/72 80/122/72 158/143/72
f 69/109/73 79/110/73 151/144/73
f 66/117/74 161/119/74 163/145/74
f 84/70/75 165/72/75 167/147/75
f 164/126/76 77/125/76 166/148/76
f 160/156/77 60/149/77 162/150/77
f 108/137/9 107/19/9 101/18/9
f 171/153/17 152/80/17 100/79/17
f 56/134/3 50/139/3 51/155/3
f 50/139/2 44/140/2 45/41/2
f 157/157/17 59/118/17 60/149/17
f 172/206/17 18/158/17 167/147/17
f 62/133/4 56/134/4 57/154/4
f 71/161/5 62/133/5 63/159/5
f 80/163/6 71/161/6 72/160/6
f 89/165/7 80/163/7 81/162/7
f 97/167/8 89/165/8 90/164/8
f 57/154/3 51/155/3 52/169/3
f 52/169/2 51/155/2 45/41/2
f 46/170/1 45/41/1 36/40/1
f 147/43/71 148/172/71 36/40/71
f 148/172/16 147/43/16 141/51/16
f 142/173/14 141/51/14 135/53/14
f 136/174/13 135/53/13 129/60/13
f 130/175/12 129/60/12 123/62/12
f 124/176/11 123/62/11 117/75/11
f 118/177/10 117/75/10 111/77/10
f 112/178/9 111/77/9 105/131/9
f 19/180/9 21/181/9 112/178/9
f 23/182/10 118/177/10 112/178/10
f 25/183/11 124/176/11 118/177/11
f 27/184/12 130/175/12 124/176/12
f 29/185/13 136/174/13 130/175/13
f 31/186/78 142/173/78 136/174/78
f 33/187/60 148/172/60 142/173/60
f 1/188/40 35/171/40 148/172/40
f 3/189/1 46/170/1 35/171/1
f 5/190/2 52/169/2 46/170/2
f 7/191/3 58/168/3 52/169/3
f 9/192/4 65/194/4 58/168/4
f 11/193/5 74/196/5 65/194/5
f 13/195/6 83/198/6 74/196/6
f 15/197/7 92/200/7 83/198/7
f 17/199/8 100/207/8 92/200/8
f 19/208/17 106/209/17 169/210/17
f 106/209/17 105/211/17 169/210/17
f 170/201/17 102/212/17 101/202/17
f 105/211/17 104/213/17 169/210/17
f 103/214/17 102/212/17 170/201/17
f 104/213/17 103/214/17 170/201/17
f 169/210/17 104/213/17 170/201/17
