# Blender v2.69 (sub 0) OBJ File: 'cart.blend'
# www.blender.org
o wheel.001_Cylinder.000
v 0.172136 0.865387 1.004446
v 0.139640 0.702015 1.034802
v 0.490203 0.733640 1.004446
v 0.397660 0.595140 1.034802
v 0.733640 0.490203 1.004446
v 0.595140 0.397660 1.034802
v 0.865387 0.172136 1.004446
v 0.702015 0.139640 1.034802
v 0.865387 -0.172136 1.004445
v 0.702015 -0.139639 1.034802
v 0.733640 -0.490202 1.004445
v 0.595140 -0.397660 1.034802
v 0.490203 -0.733640 1.004445
v 0.397660 -0.595140 1.034802
v 0.172136 -0.865387 1.004445
v 0.139639 -0.702015 1.034802
v -0.172137 -0.865387 1.004445
v -0.139640 -0.702015 1.034802
v -0.490203 -0.733640 1.004445
v -0.397660 -0.595140 1.034802
v -0.733640 -0.490202 1.004445
v -0.595140 -0.397659 1.034802
v -0.865387 -0.172135 1.004445
v -0.702015 -0.139639 1.034802
v -0.865387 0.172137 1.004446
v -0.702015 0.139640 1.034802
v -0.733639 0.490203 1.004446
v -0.595139 0.397660 1.034802
v -0.490202 0.733641 1.004446
v -0.397659 0.595141 1.034802
v -0.172135 0.865388 1.004446
v -0.139638 0.702016 1.034802
v 0.139640 0.702015 1.294413
v 0.397660 0.595140 1.294413
v 0.595140 0.397660 1.294412
v 0.702015 0.139639 1.294413
v 0.702015 -0.139640 1.294413
v 0.595140 -0.397660 1.294412
v 0.397660 -0.595140 1.294412
v 0.139639 -0.702015 1.294412
v -0.139640 -0.702015 1.294412
v -0.397660 -0.595140 1.294412
v -0.595140 -0.397659 1.294412
v -0.702015 -0.139639 1.294413
v -0.702015 0.139640 1.294413
v -0.595139 0.397660 1.294412
v -0.397659 0.595140 1.294413
v -0.139638 0.702015 1.294413
v 0.115150 0.578897 1.294413
v 0.327919 0.490765 1.294413
v 0.490765 0.327919 1.294413
v 0.578897 0.115150 1.294413
v 0.578897 -0.115150 1.294413
v 0.490765 -0.327919 1.294412
v 0.327919 -0.490765 1.294412
v 0.115150 -0.578897 1.294412
v -0.115150 -0.578897 1.294412
v -0.327919 -0.490765 1.294412
v -0.490765 -0.327918 1.294412
v -0.578897 -0.115149 1.294413
v -0.578896 0.115150 1.294413
v -0.490764 0.327919 1.294413
v -0.327918 0.490765 1.294413
v -0.115149 0.578897 1.294413
v 0.115150 0.578897 1.180145
v 0.327919 0.490765 1.180145
v 0.490765 0.327919 1.180145
v 0.578897 0.115150 1.180144
v 0.578897 -0.115150 1.180144
v 0.490765 -0.327919 1.180144
v 0.327919 -0.490765 1.180144
v 0.115150 -0.578897 1.180144
v -0.115150 -0.578897 1.180144
v -0.327919 -0.490765 1.180144
v -0.490765 -0.327918 1.180144
v -0.578897 -0.115149 1.180144
v -0.578896 0.115150 1.180144
v -0.490764 0.327919 1.180145
v -0.327918 0.490765 1.180145
v -0.115149 0.578897 1.180145
v 0.042330 0.212807 1.180144
v 0.120545 0.180409 1.180144
v 0.180409 0.120545 1.180144
v 0.212807 0.042330 1.180144
v 0.212807 -0.042330 1.180144
v 0.180409 -0.120545 1.180144
v 0.120545 -0.180409 1.180144
v 0.042330 -0.212807 1.180144
v -0.042330 -0.212807 1.180144
v -0.120545 -0.180409 1.180144
v -0.180409 -0.120545 1.180144
v -0.212807 -0.042330 1.180144
v -0.212806 0.042330 1.180144
v -0.180409 0.120546 1.180144
v -0.120545 0.180409 1.180144
v -0.042329 0.212807 1.180144
v 0.042330 0.212807 1.461299
v 0.120545 0.180409 1.461298
v 0.180409 0.120545 1.461298
v 0.212807 0.042330 1.461298
v 0.212807 -0.042330 1.461298
v 0.180409 -0.120545 1.461298
v 0.120545 -0.180409 1.461298
v 0.042330 -0.212807 1.461298
v -0.042330 -0.212807 1.461298
v -0.120545 -0.180409 1.461298
v -0.180409 -0.120545 1.461298
v -0.212807 -0.042330 1.461298
v -0.212806 0.042330 1.461298
v -0.180409 0.120545 1.461298
v -0.120545 0.180409 1.461298
v -0.042329 0.212807 1.461299
vt 0.237980 0.217156
vt 0.224588 0.230548
vt 0.245227 0.199660
vt 0.233020 0.388560
vt 0.155804 0.388611
vt 0.225623 0.351390
vt 0.162419 0.349637
vt 0.167898 0.322095
vt 0.224894 0.349637
vt 0.424038 0.562174
vt 0.372519 0.562174
vt 0.424038 0.536612
vt 0.221254 0.320305
vt 0.169736 0.320305
vt 0.204964 0.238410
vt 0.283267 0.327507
vt 0.304307 0.359041
vt 0.327374 0.283365
vt 0.358898 0.304451
vt 0.351229 0.225679
vt 0.388435 0.233096
vt 0.351198 0.163225
vt 0.388421 0.155858
vt 0.327350 0.105510
vt 0.358925 0.084487
vt 0.283248 0.061337
vt 0.304371 0.029831
vt 0.225594 0.037425
vt 0.233041 0.000229
vt 0.163169 0.037415
vt 0.155805 0.000197
vt 0.105483 0.061305
vt 0.084432 0.029736
vt 0.061328 0.105462
vt 0.029794 0.084351
vt 0.037429 0.163161
vt 0.000213 0.155724
vt 0.037429 0.225619
vt 0.000197 0.232989
vt 0.061329 0.283324
vt 0.029750 0.304384
vt 0.105496 0.327487
vt 0.084384 0.359037
vt 0.163211 0.351366
vt 0.282614 0.325729
vt 0.267012 0.302380
vt 0.326790 0.281552
vt 0.303441 0.265951
vt 0.350698 0.223833
vt 0.323156 0.218355
vt 0.350698 0.161358
vt 0.323156 0.166836
vt 0.326790 0.103639
vt 0.303441 0.119240
vt 0.282614 0.059462
vt 0.267012 0.082811
vt 0.224894 0.035554
vt 0.219416 0.063096
vt 0.162419 0.035554
vt 0.167897 0.063096
vt 0.104700 0.059462
vt 0.120301 0.082811
vt 0.060524 0.103639
vt 0.083872 0.119240
vt 0.036615 0.161358
vt 0.064157 0.166837
vt 0.036616 0.223833
vt 0.064157 0.218355
vt 0.060524 0.281552
vt 0.083872 0.265951
vt 0.104700 0.325729
vt 0.120301 0.302380
vt 0.475557 0.536609
vt 0.475558 0.562172
vt 0.527077 0.536606
vt 0.527079 0.562169
vt 0.578600 0.562163
vt 0.578597 0.536600
vt 0.630120 0.562157
vt 0.630117 0.536594
vt 0.681638 0.536587
vt 0.681641 0.562151
vt 0.733163 0.562145
vt 0.733160 0.536581
vt 0.784686 0.562138
vt 0.784683 0.536574
vt 0.836206 0.536568
vt 0.063432 0.536578
vt 0.063428 0.562137
vt 0.011918 0.536569
vt 0.114945 0.536586
vt 0.114941 0.562146
vt 0.166455 0.562154
vt 0.166459 0.536594
vt 0.217970 0.562162
vt 0.217973 0.536601
vt 0.269485 0.562168
vt 0.269487 0.536607
vt 0.321001 0.562172
vt 0.321003 0.536611
vt 0.372520 0.536613
vt 0.268850 0.300590
vt 0.222461 0.231163
vt 0.305279 0.264161
vt 0.235852 0.217771
vt 0.243100 0.200274
vt 0.324994 0.216564
vt 0.324994 0.165046
vt 0.243100 0.181336
vt 0.305279 0.117450
vt 0.235852 0.163839
vt 0.268850 0.081021
vt 0.222461 0.150448
vt 0.221254 0.061305
vt 0.204964 0.143200
vt 0.169735 0.061305
vt 0.186025 0.143200
vt 0.168528 0.150448
vt 0.155137 0.163839
vt 0.085710 0.117450
vt 0.147890 0.181336
vt 0.065995 0.165046
vt 0.065995 0.216564
vt 0.147890 0.200274
vt 0.085710 0.264161
vt 0.155137 0.217771
vt 0.122139 0.300590
vt 0.168529 0.231163
vt 0.186025 0.238410
vt 0.543909 0.387373
vt 0.472757 0.357901
vt 0.620923 0.387373
vt 0.150017 0.199660
vt 0.170656 0.230548
vt 0.157265 0.217156
vt 0.157265 0.163224
vt 0.150017 0.180721
vt 0.224588 0.149833
vt 0.188153 0.142585
vt 0.207091 0.142585
vt 0.170656 0.149833
vt 0.237980 0.163224
vt 0.245227 0.180721
vt 0.207091 0.237795
vt 0.188153 0.237795
vt 0.219416 0.322095
vt 0.836209 0.562132
vt 0.011914 0.562129
vt 0.122139 0.081021
vt 0.418301 0.084126
vt 0.388828 0.232292
vt 0.388828 0.155278
vt 0.776004 0.232292
vt 0.746532 0.084126
vt 0.776004 0.155278
vt 0.692075 0.029669
vt 0.692075 0.357901
vt 0.746532 0.303444
vt 0.418300 0.303443
vt 0.543909 0.000197
vt 0.620923 0.000197
vt 0.472757 0.029669
vt 0.493003 0.684509
vt 0.439570 0.684508
vt 0.493002 0.634837
vt 0.160504 0.469926
vt 0.141565 0.469926
vt 0.160503 0.407031
vt 0.386141 0.634838
vt 0.439570 0.634839
vt 0.386139 0.684505
vt 0.332714 0.634836
vt 0.332710 0.684501
vt 0.279288 0.634832
vt 0.279284 0.684495
vt 0.225864 0.634827
vt 0.225859 0.684489
vt 0.172441 0.634821
vt 0.172435 0.684482
vt 0.119019 0.634815
vt 0.119013 0.684475
vt 0.065597 0.634808
vt 0.065591 0.684468
vt 0.012175 0.634802
vt 0.012169 0.684461
vt 0.813648 0.634807
vt 0.867092 0.634802
vt 0.813653 0.684487
vt 0.760204 0.634812
vt 0.760209 0.684492
vt 0.706761 0.634818
vt 0.706766 0.684497
vt 0.653318 0.634823
vt 0.653323 0.684502
vt 0.599877 0.634829
vt 0.546438 0.634834
vt 0.546441 0.684508
vt 0.122627 0.469926
vt 0.122626 0.407032
vt 0.141565 0.407031
vt 0.103688 0.407032
vt 0.103688 0.469926
vt 0.084750 0.407032
vt 0.084750 0.469926
vt 0.065811 0.407032
vt 0.065812 0.469926
vt 0.046873 0.407032
vt 0.027935 0.407032
vt 0.027935 0.469926
vt 0.008997 0.469926
vt 0.312012 0.469925
vt 0.293074 0.469925
vt 0.312012 0.407030
vt 0.274135 0.469925
vt 0.293073 0.407030
vt 0.255197 0.469925
vt 0.274135 0.407030
vt 0.236258 0.469925
vt 0.255196 0.407030
vt 0.236257 0.407030
vt 0.217319 0.407031
vt 0.217319 0.469925
vt 0.198380 0.407031
vt 0.198381 0.469926
vt 0.179442 0.469926
vt 0.179442 0.407031
vt 0.867097 0.684482
vt 0.599881 0.684506
vt 0.046873 0.469926
vt 0.008997 0.407032
vn 0.000000 0.000000 1.000000
vn 0.000001 0.182685 0.983172
vn -0.000001 -1.000000 -0.000002
vn 0.000000 -0.000001 1.000000
vn 0.069911 0.168779 0.983172
vn 0.129177 0.129177 0.983172
vn 0.168781 0.069912 0.983171
vn 0.182688 -0.000002 0.983171
vn 0.168780 -0.069911 0.983171
vn 0.129177 -0.129179 0.983172
vn 0.069911 -0.168781 0.983171
vn 0.000000 -0.182688 0.983171
vn -0.069911 -0.168779 0.983172
vn -0.129180 -0.129181 0.983171
vn -0.168782 -0.069911 0.983171
vn -0.182687 -0.000002 0.983171
vn -0.168779 0.069911 0.983172
vn -0.129176 0.129178 0.983172
vn -0.069910 0.168779 0.983171
vn 0.000003 -0.000001 1.000000
vn -0.000003 0.000000 1.000000
vn -0.000002 0.000000 1.000000
vn 0.000001 -0.000001 1.000000
vn 0.000002 0.000001 1.000000
vn -0.000002 -0.000001 1.000000
vn -0.000001 0.000001 1.000000
vn -0.000001 -0.000001 1.000000
vn -0.382683 -0.923880 -0.000001
vn -0.707107 -0.707107 -0.000001
vn -0.923880 -0.382683 -0.000000
vn -1.000000 0.000000 -0.000000
vn -0.923880 0.382683 0.000000
vn -0.707107 0.707107 0.000001
vn -0.382683 0.923880 0.000001
vn 0.000000 1.000000 0.000000
vn 0.382684 0.923879 0.000001
vn 0.707107 0.707107 0.000000
vn 0.923880 0.382683 0.000000
vn 1.000000 -0.000001 -0.000000
vn 0.923879 -0.382685 -0.000000
vn 0.707106 -0.707107 -0.000001
vn 0.382682 -0.923880 -0.000001
vn -0.000001 -0.000000 1.000000
vn -0.000001 -0.000002 1.000000
vn -0.000004 -0.000001 1.000000
vn 0.000000 -0.000002 1.000000
vn 0.000001 -0.000000 1.000000
vn 0.000000 0.000000 -1.000000
vn -0.000011 0.000010 1.000000
vn -0.000011 0.000000 1.000000
vn -0.000002 0.000001 1.000000
vn 0.000005 0.000000 1.000000
vn 0.000004 -0.000000 1.000000
vn 0.000004 -0.000001 1.000000
vn -0.000000 0.182684 0.983172
vn -0.000001 -1.000000 0.000000
vn 0.069910 0.168779 0.983172
vn 0.129177 0.129178 0.983172
vn 0.168779 0.069909 0.983172
vn 0.182687 -0.000001 0.983171
vn 0.168782 -0.069912 0.983171
vn 0.129181 -0.129180 0.983171
vn 0.069909 -0.168779 0.983171
vn -0.000001 -0.182688 0.983171
vn -0.069910 -0.168782 0.983171
vn -0.129178 -0.129177 0.983171
vn -0.168781 -0.069912 0.983171
vn -0.182686 -0.000001 0.983171
vn -0.168781 0.069910 0.983171
vn -0.069910 0.168779 0.983172
vn 0.000002 0.000000 1.000000
vn 0.000000 0.000001 1.000000
vn -0.707106 -0.707107 0.000000
vn -0.923879 -0.382684 -0.000000
vn -0.707106 0.707107 0.000001
vn 0.000000 1.000000 0.000001
vn 0.382684 0.923879 0.000000
vn 0.707107 0.707106 0.000001
vn 0.923880 0.382682 0.000000
vn 0.707106 -0.707108 -0.000001
vn -0.000003 -0.000001 1.000000
vn 0.000001 -0.000002 1.000000
vn 0.000000 -0.000001 -1.000000
vn -0.000002 0.000001 -1.000000
vn 0.000000 0.000004 -1.000000
vn 0.000001 0.000000 -1.000000
vn 0.000002 0.000001 -1.000000
vn -0.000001 0.000001 -1.000000
vn 0.000004 0.000003 -1.000000
vn 0.000000 0.000001 -1.000000
vn -0.195089 0.980786 0.000001
vn 0.195091 0.980785 0.000001
vn 0.195091 0.980785 0.000000
vn -0.195089 0.980786 0.000000
vn 0.195090 0.980785 0.000000
vn 0.555570 0.831470 0.000001
vn 0.831470 0.555570 0.000000
vn 0.980785 0.195091 0.000000
vn 0.980785 0.195090 0.000000
vn 0.980785 -0.195090 -0.000000
vn 0.831470 -0.555570 -0.000000
vn 0.555570 -0.831470 -0.000000
vn 0.195090 -0.980785 -0.000000
vn -0.195091 -0.980785 -0.000001
vn -0.555571 -0.831469 -0.000000
vn -0.555571 -0.831469 -0.000001
vn -0.831470 -0.555570 -0.000000
vn -0.980785 -0.195089 -0.000000
vn -0.980785 0.195091 0.000000
vn -0.831469 0.555571 0.000000
vn -0.555569 0.831470 0.000001
vn -0.555569 0.831470 0.000000
vn -0.555569 0.831471 0.000000
vn -0.980785 -0.195090 -0.000000
vn -0.195091 -0.980785 -0.000000
vn 0.555570 0.831470 0.000000
s off
f 100/1/1 99/2/1 101/3/1
f 1/4/2 31/5/2 2/6/2
f 48/7/1 64/8/1 33/9/1
f 49/10/3 64/11/3 65/12/3
f 65/13/4 80/14/4 81/15/4
f 4/16/5 3/17/5 2/6/5
f 6/18/6 5/19/6 4/16/6
f 8/20/7 7/21/7 6/18/7
f 10/22/8 9/23/8 8/20/8
f 12/24/9 11/25/9 10/22/9
f 14/26/10 13/27/10 12/24/10
f 16/28/11 15/29/11 14/26/11
f 18/30/12 17/31/12 16/28/12
f 20/32/13 19/33/13 18/30/13
f 22/34/14 21/35/14 20/32/14
f 24/36/15 23/37/15 22/34/15
f 26/38/16 25/39/16 24/36/16
f 28/40/17 27/41/17 26/38/17
f 30/42/18 29/43/18 28/40/18
f 32/44/19 31/5/19 30/42/19
f 34/45/1 33/9/1 50/46/1
f 35/47/20 34/45/20 51/48/20
f 36/49/21 35/47/21 52/50/21
f 37/51/22 36/49/22 53/52/22
f 38/53/23 37/51/23 54/54/23
f 39/55/1 38/53/1 55/56/1
f 40/57/1 39/55/1 56/58/1
f 41/59/1 40/57/1 57/60/1
f 42/61/22 41/59/22 58/62/22
f 43/63/24 42/61/24 59/64/24
f 44/65/25 43/63/25 60/66/25
f 45/67/21 44/65/21 61/68/21
f 46/69/26 45/67/26 62/70/26
f 47/71/27 46/69/27 63/72/27
f 48/7/1 47/71/1 64/8/1
f 66/73/28 50/74/28 65/12/28
f 67/75/29 51/76/29 66/73/29
f 52/77/30 51/76/30 68/78/30
f 53/79/31 52/77/31 69/80/31
f 70/81/32 54/82/32 69/80/32
f 55/83/33 54/82/33 71/84/33
f 56/85/34 55/83/34 72/86/34
f 72/86/35 73/87/35 56/85/35
f 74/88/36 58/89/36 73/90/36
f 75/91/37 59/92/37 74/88/37
f 60/93/38 59/92/38 76/94/38
f 61/95/39 60/93/39 77/96/39
f 62/97/40 61/95/40 78/98/40
f 63/99/41 62/97/41 79/100/41
f 64/11/42 63/99/42 80/101/42
f 66/102/23 65/13/23 82/103/23
f 67/104/43 66/102/43 83/105/43
f 84/106/1 68/107/1 83/105/1
f 69/108/1 68/107/1 85/109/1
f 70/110/1 69/108/1 86/111/1
f 71/112/44 70/110/44 87/113/44
f 72/114/4 71/112/4 88/115/4
f 73/116/4 72/114/4 89/117/4
f 89/117/45 90/118/45 73/116/45
f 91/119/1 75/120/1 90/118/1
f 92/121/1 76/122/1 91/119/1
f 77/123/1 76/122/1 93/124/1
f 78/125/46 77/123/46 94/126/46
f 79/127/47 78/125/47 95/128/47
f 80/14/4 79/127/4 96/129/4
f 21/130/48 23/131/48 19/132/48
f 110/133/49 112/134/49 111/135/49
f 108/136/50 110/133/50 109/137/50
f 108/136/51 112/134/51 110/133/51
f 104/138/1 106/139/1 105/140/1
f 104/138/1 107/141/1 106/139/1
f 104/138/1 108/136/1 107/141/1
f 104/138/27 112/134/27 108/136/27
f 101/3/52 103/142/52 102/143/52
f 101/3/1 99/2/1 103/142/1
f 99/2/1 98/144/1 103/142/1
f 98/144/53 97/145/53 103/142/53
f 97/145/54 112/134/54 103/142/54
f 112/134/23 104/138/23 103/142/23
f 31/5/55 32/44/55 2/6/55
f 64/8/1 49/146/1 33/9/1
f 64/11/56 80/101/56 65/12/56
f 80/14/23 96/129/23 81/15/23
f 3/17/57 1/4/57 2/6/57
f 5/19/58 3/17/58 4/16/58
f 7/21/59 5/19/59 6/18/59
f 9/23/60 7/21/60 8/20/60
f 11/25/61 9/23/61 10/22/61
f 13/27/62 11/25/62 12/24/62
f 15/29/63 13/27/63 14/26/63
f 17/31/64 15/29/64 16/28/64
f 19/33/65 17/31/65 18/30/65
f 21/35/66 19/33/66 20/32/66
f 23/37/67 21/35/67 22/34/67
f 25/39/68 23/37/68 24/36/68
f 27/41/69 25/39/69 26/38/69
f 29/43/18 27/41/18 28/40/18
f 31/5/70 29/43/70 30/42/70
f 33/9/47 49/146/47 50/46/47
f 34/45/4 50/46/4 51/48/4
f 35/47/1 51/48/1 52/50/1
f 36/49/71 52/50/71 53/52/71
f 37/51/46 53/52/46 54/54/46
f 38/53/72 54/54/72 55/56/72
f 39/55/47 55/56/47 56/58/47
f 40/57/1 56/58/1 57/60/1
f 41/59/47 57/60/47 58/62/47
f 42/61/43 58/62/43 59/64/43
f 43/63/54 59/64/54 60/66/54
f 44/65/71 60/66/71 61/68/71
f 45/67/1 61/68/1 62/70/1
f 46/69/27 62/70/27 63/72/27
f 47/71/1 63/72/1 64/8/1
f 50/74/28 49/10/28 65/12/28
f 51/76/73 50/74/73 66/73/73
f 51/76/74 67/75/74 68/78/74
f 52/77/31 68/78/31 69/80/31
f 54/82/32 53/79/32 69/80/32
f 54/82/75 70/81/75 71/84/75
f 55/83/34 71/84/34 72/86/34
f 73/87/76 57/147/76 56/85/76
f 58/89/77 57/148/77 73/90/77
f 59/92/78 58/89/78 74/88/78
f 59/92/79 75/91/79 76/94/79
f 60/93/39 76/94/39 77/96/39
f 61/95/40 77/96/40 78/98/40
f 62/97/80 78/98/80 79/100/80
f 63/99/42 79/100/42 80/101/42
f 65/13/81 81/15/81 82/103/81
f 66/102/81 82/103/81 83/105/81
f 68/107/46 67/104/46 83/105/46
f 68/107/1 84/106/1 85/109/1
f 69/108/1 85/109/1 86/111/1
f 70/110/1 86/111/1 87/113/1
f 71/112/20 87/113/20 88/115/20
f 72/114/4 88/115/4 89/117/4
f 90/118/4 74/149/4 73/116/4
f 75/120/82 74/149/82 90/118/82
f 76/122/1 75/120/1 91/119/1
f 76/122/1 92/121/1 93/124/1
f 77/123/1 93/124/1 94/126/1
f 78/125/4 94/126/4 95/128/4
f 79/127/4 95/128/4 96/129/4
f 31/150/83 27/151/83 29/152/83
f 13/153/48 9/154/48 11/155/48
f 13/153/84 7/156/84 9/154/84
f 17/157/85 13/153/85 15/158/85
f 17/157/86 7/156/86 13/153/86
f 23/131/87 25/159/87 19/132/87
f 25/159/87 27/151/87 19/132/87
f 27/151/88 31/150/88 19/132/88
f 7/156/89 3/160/89 5/161/89
f 17/157/90 3/160/90 7/156/90
f 1/162/90 3/160/90 17/157/90
f 31/150/48 1/162/48 19/132/48
f 1/162/88 17/157/88 19/132/88
s 1
f 48/163/91 33/164/92 32/165/91
f 81/166/93 96/167/94 97/168/95
f 4/169/96 2/170/92 34/171/96
f 6/172/97 4/169/96 35/173/97
f 8/174/98 6/172/97 36/175/99
f 10/176/100 8/174/98 37/177/100
f 12/178/101 10/176/100 38/179/101
f 14/180/102 12/178/101 39/181/102
f 16/182/103 14/180/102 40/183/103
f 18/184/104 16/182/103 41/185/104
f 20/186/105 18/187/104 42/188/106
f 22/189/107 20/186/105 43/190/107
f 24/191/108 22/189/107 44/192/108
f 26/193/109 24/191/108 45/194/109
f 28/195/110 26/193/109 45/194/109
f 30/196/111 28/195/110 47/197/111
f 32/165/91 30/196/111 48/163/91
f 95/198/112 111/199/113 112/200/91
f 111/199/113 95/198/112 110/201/110
f 110/201/110 94/202/110 109/203/109
f 109/203/109 93/204/109 108/205/114
f 108/205/114 92/206/108 107/207/107
f 106/208/105 107/207/107 90/209/105
f 90/209/105 89/210/115 106/208/105
f 89/211/115 88/212/103 105/213/115
f 88/212/103 87/214/102 104/215/103
f 87/214/102 86/216/101 103/217/102
f 86/216/101 85/218/100 102/219/101
f 101/220/100 85/218/100 100/221/99
f 100/221/99 84/222/99 99/223/97
f 83/224/97 82/225/116 99/223/97
f 98/226/116 82/225/116 97/168/95
f 33/164/92 2/170/92 32/165/91
f 96/167/94 112/200/91 97/168/95
f 2/170/92 33/164/92 34/171/96
f 4/169/96 34/171/96 35/173/97
f 6/172/97 35/173/97 36/175/99
f 8/174/98 36/175/99 37/177/100
f 10/176/100 37/177/100 38/179/101
f 12/178/101 38/179/101 39/181/102
f 14/180/102 39/181/102 40/183/103
f 16/182/103 40/183/103 41/185/104
f 18/187/104 41/227/104 42/188/106
f 20/186/105 42/188/106 43/190/107
f 22/189/107 43/190/107 44/192/108
f 24/191/108 44/192/108 45/194/109
f 46/228/110 28/195/110 45/194/109
f 28/195/110 46/228/110 47/197/111
f 30/196/111 47/197/111 48/163/91
f 96/167/94 95/198/112 112/200/91
f 95/198/112 94/202/110 110/201/110
f 94/202/110 93/204/109 109/203/109
f 93/204/109 92/206/108 108/205/114
f 92/206/108 91/229/107 107/207/107
f 107/207/107 91/229/107 90/209/105
f 89/210/115 105/230/115 106/208/105
f 88/212/103 104/215/103 105/213/115
f 87/214/102 103/217/102 104/215/103
f 86/216/101 102/219/101 103/217/102
f 85/218/100 101/220/100 102/219/101
f 85/218/100 84/222/99 100/221/99
f 84/222/99 83/224/97 99/223/97
f 82/225/116 98/226/116 99/223/97
f 82/225/116 81/166/93 97/168/95
