# Blender v2.69 (sub 0) OBJ File: 'cart.blend'
# www.blender.org
o wheel.001_Cylinder.000
v 0.172136 -0.865387 -1.004050
v 0.139640 -0.702015 -1.034406
v 0.490203 -0.733640 -1.004050
v 0.397660 -0.595140 -1.034406
v 0.733640 -0.490203 -1.004050
v 0.595140 -0.397660 -1.034406
v 0.865387 -0.172136 -1.004050
v 0.702015 -0.139640 -1.034406
v 0.865387 0.172136 -1.004049
v 0.702015 0.139639 -1.034406
v 0.733640 0.490202 -1.004049
v 0.595140 0.397660 -1.034406
v 0.490203 0.733640 -1.004049
v 0.397660 0.595140 -1.034406
v 0.172136 0.865387 -1.004049
v 0.139639 0.702015 -1.034406
v -0.172137 0.865387 -1.004049
v -0.139640 0.702015 -1.034406
v -0.490203 0.733640 -1.004049
v -0.397660 0.595140 -1.034406
v -0.733640 0.490202 -1.004049
v -0.595140 0.397659 -1.034406
v -0.865387 0.172135 -1.004049
v -0.702015 0.139639 -1.034406
v -0.865387 -0.172137 -1.004050
v -0.702015 -0.139640 -1.034406
v -0.733639 -0.490203 -1.004050
v -0.595139 -0.397660 -1.034406
v -0.490202 -0.733641 -1.004050
v -0.397659 -0.595140 -1.034406
v -0.172135 -0.865388 -1.004050
v -0.139638 -0.702016 -1.034406
v 0.172136 0.865387 1.004446
v 0.139640 0.702015 1.034802
v 0.490203 0.733640 1.004446
v 0.397660 0.595140 1.034802
v 0.733640 0.490203 1.004446
v 0.595140 0.397660 1.034802
v 0.865387 0.172136 1.004446
v 0.702015 0.139640 1.034802
v 0.865387 -0.172136 1.004445
v 0.702015 -0.139639 1.034802
v 0.733640 -0.490202 1.004445
v 0.595140 -0.397660 1.034802
v 0.490203 -0.733640 1.004445
v 0.397660 -0.595140 1.034802
v 0.172136 -0.865387 1.004445
v 0.139639 -0.702015 1.034802
v -0.172137 -0.865387 1.004445
v -0.139640 -0.702015 1.034802
v -0.490203 -0.733640 1.004445
v -0.397660 -0.595140 1.034802
v -0.733640 -0.490202 1.004445
v -0.595140 -0.397659 1.034802
v -0.865387 -0.172135 1.004445
v -0.702015 -0.139639 1.034802
v -0.865387 0.172137 1.004446
v -0.702015 0.139640 1.034802
v -0.733639 0.490203 1.004446
v -0.595139 0.397660 1.034802
v -0.490202 0.733641 1.004446
v -0.397659 0.595141 1.034802
v -0.172135 0.865388 1.004446
v -0.139638 0.702016 1.034802
v 0.139640 0.702015 1.294413
v 0.397660 0.595140 1.294413
v 0.595140 0.397660 1.294412
v 0.702015 0.139639 1.294413
v 0.702015 -0.139640 1.294413
v 0.595140 -0.397660 1.294412
v 0.397660 -0.595140 1.294412
v 0.139639 -0.702015 1.294412
v -0.139640 -0.702015 1.294412
v -0.397660 -0.595140 1.294412
v -0.595140 -0.397659 1.294412
v -0.702015 -0.139639 1.294413
v -0.702015 0.139640 1.294413
v -0.595139 0.397660 1.294412
v -0.397659 0.595140 1.294413
v -0.139638 0.702015 1.294413
v 0.115150 0.578897 1.294413
v 0.327919 0.490765 1.294413
v 0.490765 0.327919 1.294413
v 0.578897 0.115150 1.294413
v 0.578897 -0.115150 1.294413
v 0.490765 -0.327919 1.294412
v 0.327919 -0.490765 1.294412
v 0.115150 -0.578897 1.294412
v -0.115150 -0.578897 1.294412
v -0.327919 -0.490765 1.294412
v -0.490765 -0.327918 1.294412
v -0.578897 -0.115149 1.294413
v -0.578896 0.115150 1.294413
v -0.490764 0.327919 1.294413
v -0.327918 0.490765 1.294413
v -0.115149 0.578897 1.294413
v 0.115150 0.578897 1.180145
v 0.327919 0.490765 1.180145
v 0.490765 0.327919 1.180145
v 0.578897 0.115150 1.180144
v 0.578897 -0.115150 1.180144
v 0.490765 -0.327919 1.180144
v 0.327919 -0.490765 1.180144
v 0.115150 -0.578897 1.180144
v -0.115150 -0.578897 1.180144
v -0.327919 -0.490765 1.180144
v -0.490765 -0.327918 1.180144
v -0.578897 -0.115149 1.180144
v -0.578896 0.115150 1.180144
v -0.490764 0.327919 1.180145
v -0.327918 0.490765 1.180145
v -0.115149 0.578897 1.180145
v 0.042330 0.212807 1.180144
v 0.120545 0.180409 1.180144
v 0.180409 0.120545 1.180144
v 0.212807 0.042330 1.180144
v 0.212807 -0.042330 1.180144
v 0.180409 -0.120545 1.180144
v 0.120545 -0.180409 1.180144
v 0.042330 -0.212807 1.180144
v -0.042330 -0.212807 1.180144
v -0.120545 -0.180409 1.180144
v -0.180409 -0.120545 1.180144
v -0.212807 -0.042330 1.180144
v -0.212806 0.042330 1.180144
v -0.180409 0.120546 1.180144
v -0.120545 0.180409 1.180144
v -0.042329 0.212807 1.180144
v 0.042330 0.212807 1.461299
v 0.120545 0.180409 1.461298
v 0.180409 0.120545 1.461298
v 0.212807 0.042330 1.461298
v 0.212807 -0.042330 1.461298
v 0.180409 -0.120545 1.461298
v 0.120545 -0.180409 1.461298
v 0.042330 -0.212807 1.461298
v -0.042330 -0.212807 1.461298
v -0.120545 -0.180409 1.461298
v -0.180409 -0.120545 1.461298
v -0.212807 -0.042330 1.461298
v -0.212806 0.042330 1.461298
v -0.180409 0.120545 1.461298
v -0.120545 0.180409 1.461298
v -0.042329 0.212807 1.461299
vt 0.233020 0.388560
vt 0.155804 0.388611
vt 0.225623 0.351390
vt 0.283267 0.327507
vt 0.304307 0.359041
vt 0.327374 0.283365
vt 0.358898 0.304451
vt 0.351229 0.225679
vt 0.388435 0.233096
vt 0.351198 0.163225
vt 0.388421 0.155858
vt 0.327350 0.105510
vt 0.358925 0.084487
vt 0.283248 0.061337
vt 0.304371 0.029831
vt 0.225594 0.037425
vt 0.233041 0.000229
vt 0.163169 0.037415
vt 0.155805 0.000197
vt 0.105483 0.061305
vt 0.084432 0.029736
vt 0.061328 0.105462
vt 0.029794 0.084351
vt 0.037429 0.163161
vt 0.000213 0.155724
vt 0.037429 0.225619
vt 0.000197 0.232989
vt 0.061329 0.283324
vt 0.029750 0.304384
vt 0.105496 0.327487
vt 0.084384 0.359037
vt 0.163211 0.351366
vt 0.543909 0.387373
vt 0.472757 0.357901
vt 0.620923 0.387373
vt 0.237980 0.217156
vt 0.224588 0.230548
vt 0.245227 0.199660
vt 0.162419 0.349637
vt 0.167898 0.322095
vt 0.224894 0.349637
vt 0.424038 0.562174
vt 0.372519 0.562174
vt 0.424038 0.536612
vt 0.221254 0.320305
vt 0.169736 0.320305
vt 0.204964 0.238410
vt 0.282614 0.325729
vt 0.267012 0.302380
vt 0.326790 0.281552
vt 0.303441 0.265951
vt 0.350698 0.223833
vt 0.323156 0.218355
vt 0.350698 0.161358
vt 0.323156 0.166836
vt 0.326790 0.103639
vt 0.303441 0.119240
vt 0.282614 0.059462
vt 0.267012 0.082811
vt 0.224894 0.035554
vt 0.219416 0.063096
vt 0.162419 0.035554
vt 0.167897 0.063096
vt 0.104700 0.059462
vt 0.120301 0.082811
vt 0.060524 0.103639
vt 0.083872 0.119240
vt 0.036615 0.161358
vt 0.064157 0.166837
vt 0.036616 0.223833
vt 0.064157 0.218355
vt 0.060524 0.281552
vt 0.083872 0.265951
vt 0.104700 0.325729
vt 0.120301 0.302380
vt 0.475557 0.536609
vt 0.475558 0.562172
vt 0.527077 0.536606
vt 0.527079 0.562169
vt 0.578600 0.562163
vt 0.578597 0.536600
vt 0.630120 0.562157
vt 0.630117 0.536594
vt 0.681638 0.536587
vt 0.681641 0.562151
vt 0.733163 0.562145
vt 0.733160 0.536581
vt 0.784686 0.562138
vt 0.784683 0.536574
vt 0.836206 0.536568
vt 0.063432 0.536578
vt 0.063428 0.562137
vt 0.011918 0.536569
vt 0.114945 0.536586
vt 0.114941 0.562146
vt 0.166455 0.562154
vt 0.166459 0.536594
vt 0.217970 0.562162
vt 0.217973 0.536601
vt 0.269485 0.562168
vt 0.269487 0.536607
vt 0.321001 0.562172
vt 0.321003 0.536611
vt 0.372520 0.536613
vt 0.268850 0.300590
vt 0.222461 0.231163
vt 0.305279 0.264161
vt 0.235852 0.217771
vt 0.243100 0.200274
vt 0.324994 0.216564
vt 0.324994 0.165046
vt 0.243100 0.181336
vt 0.305279 0.117450
vt 0.235852 0.163839
vt 0.268850 0.081021
vt 0.222461 0.150448
vt 0.221254 0.061305
vt 0.204964 0.143200
vt 0.169735 0.061305
vt 0.186025 0.143200
vt 0.168528 0.150448
vt 0.155137 0.163839
vt 0.085710 0.117450
vt 0.147890 0.181336
vt 0.065995 0.165046
vt 0.065995 0.216564
vt 0.147890 0.200274
vt 0.085710 0.264161
vt 0.155137 0.217771
vt 0.122139 0.300590
vt 0.168529 0.231163
vt 0.186025 0.238410
vt 0.776004 0.232292
vt 0.746532 0.084126
vt 0.776004 0.155278
vt 0.692075 0.357901
vt 0.746532 0.303444
vt 0.418300 0.303443
vt 0.388828 0.232292
vt 0.388828 0.155278
vt 0.418301 0.084126
vt 0.692075 0.029669
vt 0.620923 0.000197
vt 0.543909 0.000197
vt 0.472757 0.029669
vt 0.150017 0.199660
vt 0.170656 0.230548
vt 0.157265 0.217156
vt 0.157265 0.163224
vt 0.150017 0.180721
vt 0.224588 0.149833
vt 0.188153 0.142585
vt 0.207091 0.142585
vt 0.170656 0.149833
vt 0.237980 0.163224
vt 0.245227 0.180721
vt 0.207091 0.237795
vt 0.188153 0.237795
vt 0.219416 0.322095
vt 0.836209 0.562132
vt 0.011914 0.562129
vt 0.122139 0.081021
vt 0.493003 0.684509
vt 0.439570 0.684508
vt 0.493002 0.634837
vt 0.160504 0.469926
vt 0.141565 0.469926
vt 0.160503 0.407031
vt 0.386141 0.634838
vt 0.439570 0.634839
vt 0.386139 0.684505
vt 0.332714 0.634836
vt 0.332710 0.684501
vt 0.279288 0.634832
vt 0.279284 0.684495
vt 0.225864 0.634827
vt 0.225859 0.684489
vt 0.172441 0.634821
vt 0.172435 0.684482
vt 0.119019 0.634815
vt 0.119013 0.684475
vt 0.065597 0.634808
vt 0.065591 0.684468
vt 0.012175 0.634802
vt 0.012169 0.684461
vt 0.813648 0.634807
vt 0.867092 0.634802
vt 0.813653 0.684487
vt 0.760204 0.634812
vt 0.760209 0.684492
vt 0.706761 0.634818
vt 0.706766 0.684497
vt 0.653318 0.634823
vt 0.653323 0.684502
vt 0.599877 0.634829
vt 0.546438 0.634834
vt 0.546441 0.684508
vt 0.122627 0.469926
vt 0.122626 0.407032
vt 0.141565 0.407031
vt 0.103688 0.407032
vt 0.103688 0.469926
vt 0.084750 0.407032
vt 0.084750 0.469926
vt 0.065811 0.407032
vt 0.065812 0.469926
vt 0.046873 0.407032
vt 0.027935 0.407032
vt 0.027935 0.469926
vt 0.008997 0.469926
vt 0.312012 0.469925
vt 0.293074 0.469925
vt 0.312012 0.407030
vt 0.274135 0.469925
vt 0.293073 0.407030
vt 0.255197 0.469925
vt 0.274135 0.407030
vt 0.236258 0.469925
vt 0.255196 0.407030
vt 0.236257 0.407030
vt 0.217319 0.407031
vt 0.217319 0.469925
vt 0.198380 0.407031
vt 0.198381 0.469926
vt 0.179442 0.469926
vt 0.179442 0.407031
vt 0.867097 0.684482
vt 0.599881 0.684506
vt 0.046873 0.469926
vt 0.008997 0.407032
vn 0.000001 -0.182685 -0.983172
vn 0.069911 -0.168779 -0.983171
vn 0.129178 -0.129179 -0.983171
vn 0.168778 -0.069910 -0.983172
vn 0.182685 0.000001 -0.983171
vn 0.168781 0.069911 -0.983171
vn 0.129180 0.129179 -0.983171
vn 0.069911 0.168781 -0.983171
vn 0.000000 0.182687 -0.983171
vn -0.069911 0.168781 -0.983171
vn -0.129179 0.129180 -0.983171
vn -0.168778 0.069910 -0.983172
vn -0.182686 0.000001 -0.983171
vn -0.168778 -0.069911 -0.983172
vn -0.129178 -0.129178 -0.983171
vn -0.069910 -0.168779 -0.983172
vn -0.000003 -0.000000 1.000000
vn 0.000000 0.000000 1.000000
vn 0.000001 0.182685 0.983172
vn -0.000001 -1.000000 -0.000002
vn 0.000000 -0.000001 1.000000
vn 0.069911 0.168779 0.983172
vn 0.129177 0.129177 0.983172
vn 0.168781 0.069912 0.983171
vn 0.182688 -0.000002 0.983171
vn 0.168780 -0.069911 0.983171
vn 0.129177 -0.129179 0.983172
vn 0.069911 -0.168781 0.983171
vn 0.000000 -0.182688 0.983171
vn -0.069911 -0.168779 0.983172
vn -0.129180 -0.129181 0.983171
vn -0.168782 -0.069911 0.983171
vn -0.182687 -0.000002 0.983171
vn -0.168779 0.069911 0.983172
vn -0.129176 0.129178 0.983172
vn -0.069910 0.168779 0.983171
vn 0.000003 -0.000001 1.000000
vn -0.000002 0.000000 1.000000
vn 0.000001 -0.000001 1.000000
vn 0.000002 0.000001 1.000000
vn -0.000002 -0.000001 1.000000
vn -0.000001 0.000001 1.000000
vn -0.000001 -0.000001 1.000000
vn -0.382683 -0.923880 -0.000001
vn -0.707107 -0.707107 -0.000001
vn -0.923880 -0.382683 -0.000000
vn -1.000000 0.000000 -0.000000
vn -0.923880 0.382683 0.000000
vn -0.707107 0.707107 0.000001
vn -0.382683 0.923880 0.000001
vn 0.000000 1.000000 0.000000
vn 0.382684 0.923879 0.000001
vn 0.707107 0.707107 0.000000
vn 0.923880 0.382683 0.000000
vn 1.000000 -0.000001 -0.000000
vn 0.923879 -0.382685 -0.000000
vn 0.707106 -0.707107 -0.000001
vn 0.382682 -0.923880 -0.000001
vn -0.000001 -0.000000 1.000000
vn -0.000001 -0.000002 1.000000
vn -0.000004 -0.000001 1.000000
vn 0.000000 -0.000002 1.000000
vn 0.000001 -0.000000 1.000000
vn 0.000000 0.000000 -1.000000
vn -0.000000 -0.182684 -0.983172
vn 0.069910 -0.168778 -0.983172
vn 0.129178 -0.129178 -0.983172
vn 0.168782 -0.069911 -0.983171
vn 0.182687 0.000001 -0.983171
vn 0.168778 0.069911 -0.983172
vn 0.129179 0.129180 -0.983171
vn 0.069910 0.168781 -0.983171
vn 0.000000 0.182688 -0.983171
vn -0.129180 0.129179 -0.983171
vn -0.168781 0.069912 -0.983171
vn -0.168781 -0.069911 -0.983171
vn -0.129177 -0.129178 -0.983171
vn -0.069911 -0.168779 -0.983171
vn 0.000003 -0.000000 1.000000
vn -0.000011 0.000010 1.000000
vn -0.000011 0.000000 1.000000
vn -0.000002 0.000001 1.000000
vn 0.000005 0.000000 1.000000
vn 0.000004 -0.000000 1.000000
vn 0.000004 -0.000001 1.000000
vn -0.000000 0.182684 0.983172
vn -0.000001 -1.000000 0.000000
vn 0.069910 0.168779 0.983172
vn 0.129177 0.129178 0.983172
vn 0.168779 0.069909 0.983172
vn 0.182687 -0.000001 0.983171
vn 0.168782 -0.069912 0.983171
vn 0.129181 -0.129180 0.983171
vn 0.069909 -0.168779 0.983171
vn -0.000001 -0.182688 0.983171
vn -0.069910 -0.168782 0.983171
vn -0.129178 -0.129177 0.983171
vn -0.168781 -0.069912 0.983171
vn -0.182686 -0.000001 0.983171
vn -0.168781 0.069910 0.983171
vn -0.069910 0.168779 0.983172
vn 0.000002 0.000000 1.000000
vn 0.000000 0.000001 1.000000
vn -0.707106 -0.707107 0.000000
vn -0.923879 -0.382684 -0.000000
vn -0.707106 0.707107 0.000001
vn 0.000000 1.000000 0.000001
vn 0.382684 0.923879 0.000000
vn 0.707107 0.707106 0.000001
vn 0.923880 0.382682 0.000000
vn 0.707106 -0.707108 -0.000001
vn -0.000003 -0.000001 1.000000
vn 0.000001 -0.000002 1.000000
vn 0.000000 -0.000001 -1.000000
vn -0.000002 0.000001 -1.000000
vn 0.000000 0.000004 -1.000000
vn 0.000001 0.000000 -1.000000
vn 0.000002 0.000001 -1.000000
vn -0.000001 0.000001 -1.000000
vn 0.000004 0.000003 -1.000000
vn 0.000000 0.000001 -1.000000
vn -0.195089 0.980786 0.000001
vn 0.195091 0.980785 0.000001
vn 0.195091 0.980785 0.000000
vn -0.195089 0.980786 0.000000
vn 0.195090 0.980785 0.000000
vn 0.555570 0.831470 0.000001
vn 0.831470 0.555570 0.000000
vn 0.980785 0.195091 0.000000
vn 0.980785 0.195090 0.000000
vn 0.980785 -0.195090 -0.000000
vn 0.831470 -0.555570 -0.000000
vn 0.555570 -0.831470 -0.000000
vn 0.195090 -0.980785 -0.000000
vn -0.195091 -0.980785 -0.000001
vn -0.555571 -0.831469 -0.000000
vn -0.555571 -0.831469 -0.000001
vn -0.831470 -0.555570 -0.000000
vn -0.980785 -0.195089 -0.000000
vn -0.980785 0.195091 0.000000
vn -0.831469 0.555571 0.000000
vn -0.555569 0.831470 0.000001
vn -0.555569 0.831470 0.000000
vn -0.555569 0.831471 0.000000
vn -0.980785 -0.195090 -0.000000
vn -0.195091 -0.980785 -0.000000
vn 0.555570 0.831470 0.000000
s off
f 1/1/1 31/2/1 2/3/1
f 4/4/2 3/5/2 2/3/2
f 6/6/3 5/7/3 4/4/3
f 8/8/4 7/9/4 6/6/4
f 10/10/5 9/11/5 8/8/5
f 12/12/6 11/13/6 10/10/6
f 14/14/7 13/15/7 12/12/7
f 16/16/8 15/17/8 14/14/8
f 18/18/9 17/19/9 16/16/9
f 20/20/10 19/21/10 18/18/10
f 22/22/11 21/23/11 20/20/11
f 24/24/12 23/25/12 22/22/12
f 26/26/13 25/27/13 24/24/13
f 28/28/14 27/29/14 26/26/14
f 30/30/15 29/31/15 28/28/15
f 32/32/16 31/2/16 30/30/16
f 21/33/17 23/34/17 19/35/17
f 132/36/18 131/37/18 133/38/18
f 33/1/19 63/2/19 34/3/19
f 80/39/18 96/40/18 65/41/18
f 81/42/20 96/43/20 97/44/20
f 97/45/21 112/46/21 113/47/21
f 36/4/22 35/5/22 34/3/22
f 38/6/23 37/7/23 36/4/23
f 40/8/24 39/9/24 38/6/24
f 42/10/25 41/11/25 40/8/25
f 44/12/26 43/13/26 42/10/26
f 46/14/27 45/15/27 44/12/27
f 48/16/28 47/17/28 46/14/28
f 50/18/29 49/19/29 48/16/29
f 52/20/30 51/21/30 50/18/30
f 54/22/31 53/23/31 52/20/31
f 56/24/32 55/25/32 54/22/32
f 58/26/33 57/27/33 56/24/33
f 60/28/34 59/29/34 58/26/34
f 62/30/35 61/31/35 60/28/35
f 64/32/36 63/2/36 62/30/36
f 66/48/18 65/41/18 82/49/18
f 67/50/37 66/48/37 83/51/37
f 68/52/17 67/50/17 84/53/17
f 69/54/38 68/52/38 85/55/38
f 70/56/39 69/54/39 86/57/39
f 71/58/18 70/56/18 87/59/18
f 72/60/18 71/58/18 88/61/18
f 73/62/18 72/60/18 89/63/18
f 74/64/38 73/62/38 90/65/38
f 75/66/40 74/64/40 91/67/40
f 76/68/41 75/66/41 92/69/41
f 77/70/17 76/68/17 93/71/17
f 78/72/42 77/70/42 94/73/42
f 79/74/43 78/72/43 95/75/43
f 80/39/18 79/74/18 96/40/18
f 98/76/44 82/77/44 97/44/44
f 99/78/45 83/79/45 98/76/45
f 84/80/46 83/79/46 100/81/46
f 85/82/47 84/80/47 101/83/47
f 102/84/48 86/85/48 101/83/48
f 87/86/49 86/85/49 103/87/49
f 88/88/50 87/86/50 104/89/50
f 104/89/51 105/90/51 88/88/51
f 106/91/52 90/92/52 105/93/52
f 107/94/53 91/95/53 106/91/53
f 92/96/54 91/95/54 108/97/54
f 93/98/55 92/96/55 109/99/55
f 94/100/56 93/98/56 110/101/56
f 95/102/57 94/100/57 111/103/57
f 96/43/58 95/102/58 112/104/58
f 98/105/39 97/45/39 114/106/39
f 99/107/59 98/105/59 115/108/59
f 116/109/18 100/110/18 115/108/18
f 101/111/18 100/110/18 117/112/18
f 102/113/18 101/111/18 118/114/18
f 103/115/60 102/113/60 119/116/60
f 104/117/21 103/115/21 120/118/21
f 105/119/21 104/117/21 121/120/21
f 121/120/61 122/121/61 105/119/61
f 123/122/18 107/123/18 122/121/18
f 124/124/18 108/125/18 123/122/18
f 109/126/18 108/125/18 125/127/18
f 110/128/62 109/126/62 126/129/62
f 111/130/63 110/128/63 127/131/63
f 112/46/21 111/130/21 128/132/21
f 53/33/64 55/34/64 51/35/64
f 31/2/65 32/32/65 2/3/65
f 3/5/66 1/1/66 2/3/66
f 5/7/67 3/5/67 4/4/67
f 7/9/68 5/7/68 6/6/68
f 9/11/69 7/9/69 8/8/69
f 11/13/70 9/11/70 10/10/70
f 13/15/71 11/13/71 12/12/71
f 15/17/72 13/15/72 14/14/72
f 17/19/73 15/17/73 16/16/73
f 19/21/10 17/19/10 18/18/10
f 21/23/74 19/21/74 20/20/74
f 23/25/75 21/23/75 22/22/75
f 25/27/13 23/25/13 24/24/13
f 27/29/76 25/27/76 26/26/76
f 29/31/77 27/29/77 28/28/77
f 31/2/78 29/31/78 30/30/78
f 13/133/79 9/134/79 11/135/79
f 17/136/21 13/133/21 15/137/21
f 17/136/18 9/134/18 13/133/18
f 23/34/21 25/138/21 27/139/21
f 19/35/21 23/34/21 27/139/21
f 19/35/18 27/139/18 29/140/18
f 17/136/59 19/35/59 29/140/59
f 9/134/21 17/136/21 29/140/21
f 9/134/21 29/140/21 31/141/21
f 7/142/21 9/134/21 31/141/21
f 5/143/18 7/142/18 3/144/18
f 7/142/21 31/141/21 1/145/21
f 3/144/18 7/142/18 1/145/18
f 142/146/80 144/147/80 143/148/80
f 140/149/81 142/146/81 141/150/81
f 140/149/82 144/147/82 142/146/82
f 136/151/18 138/152/18 137/153/18
f 136/151/18 139/154/18 138/152/18
f 136/151/18 140/149/18 139/154/18
f 136/151/43 144/147/43 140/149/43
f 133/38/83 135/155/83 134/156/83
f 133/38/18 131/37/18 135/155/18
f 131/37/18 130/157/18 135/155/18
f 130/157/84 129/158/84 135/155/84
f 129/158/85 144/147/85 135/155/85
f 144/147/39 136/151/39 135/155/39
f 63/2/86 64/32/86 34/3/86
f 96/40/18 81/159/18 65/41/18
f 96/43/87 112/104/87 97/44/87
f 112/46/39 128/132/39 113/47/39
f 35/5/88 33/1/88 34/3/88
f 37/7/89 35/5/89 36/4/89
f 39/9/90 37/7/90 38/6/90
f 41/11/91 39/9/91 40/8/91
f 43/13/92 41/11/92 42/10/92
f 45/15/93 43/13/93 44/12/93
f 47/17/94 45/15/94 46/14/94
f 49/19/95 47/17/95 48/16/95
f 51/21/96 49/19/96 50/18/96
f 53/23/97 51/21/97 52/20/97
f 55/25/98 53/23/98 54/22/98
f 57/27/99 55/25/99 56/24/99
f 59/29/100 57/27/100 58/26/100
f 61/31/35 59/29/35 60/28/35
f 63/2/101 61/31/101 62/30/101
f 65/41/63 81/159/63 82/49/63
f 66/48/21 82/49/21 83/51/21
f 67/50/18 83/51/18 84/53/18
f 68/52/102 84/53/102 85/55/102
f 69/54/62 85/55/62 86/57/62
f 70/56/103 86/57/103 87/59/103
f 71/58/63 87/59/63 88/61/63
f 72/60/18 88/61/18 89/63/18
f 73/62/63 89/63/63 90/65/63
f 74/64/59 90/65/59 91/67/59
f 75/66/85 91/67/85 92/69/85
f 76/68/102 92/69/102 93/71/102
f 77/70/18 93/71/18 94/73/18
f 78/72/43 94/73/43 95/75/43
f 79/74/18 95/75/18 96/40/18
f 82/77/44 81/42/44 97/44/44
f 83/79/104 82/77/104 98/76/104
f 83/79/105 99/78/105 100/81/105
f 84/80/47 100/81/47 101/83/47
f 86/85/48 85/82/48 101/83/48
f 86/85/106 102/84/106 103/87/106
f 87/86/50 103/87/50 104/89/50
f 105/90/107 89/160/107 88/88/107
f 90/92/108 89/161/108 105/93/108
f 91/95/109 90/92/109 106/91/109
f 91/95/110 107/94/110 108/97/110
f 92/96/55 108/97/55 109/99/55
f 93/98/56 109/99/56 110/101/56
f 94/100/111 110/101/111 111/103/111
f 95/102/58 111/103/58 112/104/58
f 97/45/112 113/47/112 114/106/112
f 98/105/112 114/106/112 115/108/112
f 100/110/62 99/107/62 115/108/62
f 100/110/18 116/109/18 117/112/18
f 101/111/18 117/112/18 118/114/18
f 102/113/18 118/114/18 119/116/18
f 103/115/37 119/116/37 120/118/37
f 104/117/21 120/118/21 121/120/21
f 122/121/21 106/162/21 105/119/21
f 107/123/113 106/162/113 122/121/113
f 108/125/18 107/123/18 123/122/18
f 108/125/18 124/124/18 125/127/18
f 109/126/18 125/127/18 126/129/18
f 110/128/21 126/129/21 127/131/21
f 111/130/21 127/131/21 128/132/21
f 63/141/114 59/139/114 61/140/114
f 45/133/64 41/134/64 43/135/64
f 45/133/115 39/142/115 41/134/115
f 49/136/116 45/133/116 47/137/116
f 49/136/117 39/142/117 45/133/117
f 55/34/118 57/138/118 51/35/118
f 57/138/118 59/139/118 51/35/118
f 59/139/119 63/141/119 51/35/119
f 39/142/120 35/144/120 37/143/120
f 49/136/121 35/144/121 39/142/121
f 33/145/121 35/144/121 49/136/121
f 63/141/64 33/145/64 51/35/64
f 33/145/119 49/136/119 51/35/119
s 1
f 80/163/122 65/164/123 64/165/122
f 113/166/124 128/167/125 129/168/126
f 36/169/127 34/170/123 66/171/127
f 38/172/128 36/169/127 67/173/128
f 40/174/129 38/172/128 68/175/130
f 42/176/131 40/174/129 69/177/131
f 44/178/132 42/176/131 70/179/132
f 46/180/133 44/178/132 71/181/133
f 48/182/134 46/180/133 72/183/134
f 50/184/135 48/182/134 73/185/135
f 52/186/136 50/187/135 74/188/137
f 54/189/138 52/186/136 75/190/138
f 56/191/139 54/189/138 76/192/139
f 58/193/140 56/191/139 77/194/140
f 60/195/141 58/193/140 77/194/140
f 62/196/142 60/195/141 79/197/142
f 64/165/122 62/196/142 80/163/122
f 127/198/143 143/199/144 144/200/122
f 143/199/144 127/198/143 142/201/141
f 142/201/141 126/202/141 141/203/140
f 141/203/140 125/204/140 140/205/145
f 140/205/145 124/206/139 139/207/138
f 138/208/136 139/207/138 122/209/136
f 122/209/136 121/210/146 138/208/136
f 121/211/146 120/212/134 137/213/146
f 120/212/134 119/214/133 136/215/134
f 119/214/133 118/216/132 135/217/133
f 118/216/132 117/218/131 134/219/132
f 133/220/131 117/218/131 132/221/130
f 132/221/130 116/222/130 131/223/128
f 115/224/128 114/225/147 131/223/128
f 130/226/147 114/225/147 129/168/126
f 65/164/123 34/170/123 64/165/122
f 128/167/125 144/200/122 129/168/126
f 34/170/123 65/164/123 66/171/127
f 36/169/127 66/171/127 67/173/128
f 38/172/128 67/173/128 68/175/130
f 40/174/129 68/175/130 69/177/131
f 42/176/131 69/177/131 70/179/132
f 44/178/132 70/179/132 71/181/133
f 46/180/133 71/181/133 72/183/134
f 48/182/134 72/183/134 73/185/135
f 50/187/135 73/227/135 74/188/137
f 52/186/136 74/188/137 75/190/138
f 54/189/138 75/190/138 76/192/139
f 56/191/139 76/192/139 77/194/140
f 78/228/141 60/195/141 77/194/140
f 60/195/141 78/228/141 79/197/142
f 62/196/142 79/197/142 80/163/122
f 128/167/125 127/198/143 144/200/122
f 127/198/143 126/202/141 142/201/141
f 126/202/141 125/204/140 141/203/140
f 125/204/140 124/206/139 140/205/145
f 124/206/139 123/229/138 139/207/138
f 139/207/138 123/229/138 122/209/136
f 121/210/146 137/230/146 138/208/136
f 120/212/134 136/215/134 137/213/146
f 119/214/133 135/217/133 136/215/134
f 118/216/132 134/219/132 135/217/133
f 117/218/131 133/220/131 134/219/132
f 117/218/131 116/222/130 132/221/130
f 116/222/130 115/224/128 131/223/128
f 114/225/147 130/226/147 131/223/128
f 114/225/147 113/166/124 129/168/126
