# Blender v2.69 (sub 0) OBJ File: 'mine.blend'
# www.blender.org
o Cube_Cube.004
v -1.000000 -1.000000 1.000000
v -1.000000 -1.000000 -1.000000
v 1.000000 -1.000000 -1.000000
v 1.000000 -1.000000 1.000000
v -1.000000 1.000000 1.000000
v -1.000000 1.000000 -1.000000
v 1.000000 1.000000 -1.000000
v 1.000000 1.000000 1.000000
vt 0.000200 0.000200
vt 0.333134 0.000200
vt 0.000200 0.333134
vt 0.333533 0.666467
vt 0.333533 0.333533
vt 0.666467 0.666467
vt 0.999800 0.333134
vt 0.666866 0.333134
vt 0.999800 0.000200
vt 0.999800 0.666467
vt 0.666866 0.666467
vt 0.999800 0.333533
vt 0.000200 0.666467
vt 0.000200 0.333533
vt 0.333134 0.666467
vt 0.666467 0.000200
vt 0.666467 0.333134
vt 0.333533 0.000200
vt 0.333134 0.333134
vt 0.666467 0.333533
vt 0.666866 0.000200
vt 0.666866 0.333533
vt 0.333134 0.333533
vt 0.333533 0.333134
vn -1.000000 0.000000 0.000000
vn 0.000000 0.000000 -1.000000
vn 1.000000 0.000000 0.000000
vn 0.000000 0.000000 1.000000
vn 0.000000 -1.000000 0.000000
vn 0.000000 1.000000 0.000000
s off
f 5/1/1 6/2/1 1/3/1
f 6/4/2 7/5/2 2/6/2
f 7/7/3 8/8/3 3/9/3
f 8/10/4 5/11/4 4/12/4
f 1/13/5 2/14/5 4/15/5
f 8/16/6 7/17/6 5/18/6
f 6/2/1 2/19/1 1/3/1
f 7/5/2 3/20/2 2/6/2
f 8/8/3 4/21/3 3/9/3
f 5/11/4 1/22/4 4/12/4
f 2/14/5 3/23/5 4/15/5
f 7/17/6 6/24/6 5/18/6
