# Blender v2.69 (sub 0) OBJ File: 'gems.blend'
# www.blender.org
o GEM_6.006_Plane.027
v 0.495252 -0.343176 0.243502
v -0.494616 -0.343176 0.243502
v -0.001518 0.649830 0.243503
v -0.922257 -0.605632 -0.146512
v 0.922095 -0.605632 -0.146512
v 0.318624 0.975010 -0.146511
v -0.321338 0.975010 -0.146511
v -0.630374 0.566282 -0.146511
v -0.894513 0.021976 -0.146512
v 0.491757 -0.895779 -0.144406
v -0.484241 -0.896276 -0.144514
v 0.628298 0.566282 -0.146511
v 0.893713 0.021976 -0.146512
v -0.375830 0.193988 0.243502
v 0.374630 0.193988 0.243502
v 0.000318 -0.474671 0.243502
vt 0.233880 0.100426
vt 0.174375 0.174177
vt 0.182258 0.025933
vt 0.086372 0.476491
vt 0.124164 0.372750
vt 0.161979 0.476498
vt 0.086314 0.282813
vt 0.162177 0.282790
vt 0.014672 0.100502
vt 0.074269 0.174193
vt 0.012174 0.253839
vt 0.043903 0.386959
vt 0.204511 0.386972
vt 0.236358 0.253803
vt 0.124322 0.146882
vt 0.067150 0.025685
vn 0.365360 -0.536367 0.760804
vn 0.000000 0.768058 0.640380
vn -0.000000 -0.000001 1.000000
vn -0.683607 0.030220 0.729224
vn -0.624067 0.138003 0.769088
vn -0.634913 0.308108 0.708488
vn -0.521611 0.394386 0.756559
vn -0.517241 0.424729 0.743012
vn 0.521007 0.394742 0.756790
vn 0.516466 0.426173 0.742724
vn 0.634624 0.309455 0.708160
vn 0.624026 0.140127 0.768736
vn 0.684524 0.030956 0.728333
vn -0.151330 -0.569588 0.807879
vn 0.000264 -0.677352 0.735659
vn 0.151064 -0.568587 0.808634
vn -0.361747 -0.539945 0.759999
vn -0.000000 -0.000000 1.000000
s off
f 5/1/1 1/2/1 10/3/1
f 7/4/2 3/5/2 6/6/2
f 3/5/3 14/7/3 15/8/3
f 4/9/4 2/10/4 9/11/4
f 2/10/5 14/7/5 9/11/5
f 8/12/6 9/11/6 14/7/6
f 8/12/7 3/5/7 7/4/7
f 14/7/8 3/5/8 8/12/8
f 12/13/9 6/6/9 3/5/9
f 3/5/10 15/8/10 12/13/10
f 12/13/11 15/8/11 13/14/11
f 15/8/12 1/2/12 13/14/12
f 5/1/13 13/14/13 1/2/13
f 16/15/14 2/10/14 11/16/14
f 10/3/15 16/15/15 11/16/15
f 16/15/16 10/3/16 1/2/16
f 4/9/17 11/16/17 2/10/17
f 15/8/3 16/15/3 1/2/3
f 14/7/3 2/10/3 15/8/3
f 2/10/18 16/15/18 15/8/18
