# Blender v2.69 (sub 0) OBJ File: 'mine_rocks.blend'
# www.blender.org
o LowPolyRock.001
v 0.673134 -2.110771 0.175047
v 0.389506 1.064052 -2.022279
v 1.555459 1.358433 0.058463
v -0.520514 2.222420 0.171450
v -0.852742 1.879799 -0.593016
v 0.326371 -1.961414 1.010852
v 0.563789 -2.110237 0.408859
v 1.529927 -1.447399 0.639107
v -0.975454 -1.470242 1.283853
v -1.078553 -1.697887 -1.223863
v -0.521758 -2.146692 -0.960096
v -0.953551 -1.991830 -1.072618
v -0.323918 -2.241123 -0.584696
v -0.397358 -2.267006 -0.317060
v -0.679493 -2.087566 -0.019516
v 0.620834 -1.858553 -0.768273
v 1.838898 0.541553 0.078048
v 1.887023 0.044827 -0.463969
v 1.714380 -1.172568 -0.098653
v 0.715445 -0.476934 1.930774
v -1.485714 0.424604 1.211519
v -1.209007 0.373436 1.446584
v -1.457102 0.158422 -1.135924
v -1.223265 -1.007782 -1.449961
v -1.525073 -1.139277 -1.123096
v 0.669537 0.236972 -2.007116
v 0.678274 -1.244490 -1.481329
v 1.247031 -0.163410 1.545428
v 1.317240 0.377205 1.394722
v -1.004001 -0.003497 2.067310
v -0.825164 -0.172418 2.075592
v -0.195636 -0.024800 2.063798
v 0.183082 0.069992 2.077348
v -1.710926 0.485921 -0.460030
v -2.001829 0.151955 0.107453
v -2.023512 -0.086866 0.398043
v -1.797364 0.012496 0.936836
v 0.034472 0.663050 -1.923375
v -0.398825 0.434037 -1.904605
v -1.054940 0.833866 -1.541435
v 1.333057 0.662729 -1.346967
v 0.853055 0.628717 -1.862394
v 1.059921 1.793659 0.127430
v 0.691807 1.778543 1.016217
v -0.771738 1.214104 1.366709
v 0.072710 1.436076 1.590492
v -1.186020 1.171635 1.084183
v -0.900501 2.141946 0.202389
v -0.213219 2.127270 -0.595950
v -0.957906 1.423107 -1.154907
v 0.490014 2.026469 -0.678531
v 0.853055 0.628717 -1.862394
v 0.853055 0.628717 -1.862394
v 0.389506 1.064052 -2.022279
v 0.389506 1.064052 -2.022279
v 0.389506 1.064052 -2.022279
v 1.059921 1.793659 0.127430
v 1.059921 1.793659 0.127430
v 1.555459 1.358433 0.058463
v 1.555459 1.358433 0.058463
v -0.975454 -1.470242 1.283853
v -0.975454 -1.470242 1.283853
v -0.975454 -1.470242 1.283853
v 0.326371 -1.961414 1.010852
v 0.326371 -1.961414 1.010852
v 0.326371 -1.961414 1.010852
v 0.563789 -2.110237 0.408859
v 0.563789 -2.110237 0.408859
v 0.673134 -2.110771 0.175047
v 0.673134 -2.110771 0.175047
v 0.673134 -2.110771 0.175047
v 1.529927 -1.447399 0.639107
v 1.529927 -1.447399 0.639107
v 1.529927 -1.447399 0.639107
v -0.679493 -2.087566 -0.019516
v -0.679493 -2.087566 -0.019516
v -0.679493 -2.087566 -0.019516
v -1.078553 -1.697887 -1.223863
v -1.078553 -1.697887 -1.223863
v -1.525073 -1.139277 -1.123096
v -1.525073 -1.139277 -1.123096
v -1.525073 -1.139277 -1.123096
v -0.953551 -1.991830 -1.072618
v -0.953551 -1.991830 -1.072618
v -0.521758 -2.146692 -0.960096
v -0.521758 -2.146692 -0.960096
v -0.397358 -2.267006 -0.317060
v -0.397358 -2.267006 -0.317060
v -1.223265 -1.007782 -1.449961
v -1.223265 -1.007782 -1.449961
v -0.323918 -2.241123 -0.584696
v -0.323918 -2.241123 -0.584696
v -0.323918 -2.241123 -0.584696
v -2.023512 -0.086866 0.398043
v -2.023512 -0.086866 0.398043
v 0.678274 -1.244490 -1.481329
v 0.678274 -1.244490 -1.481329
v 0.620834 -1.858553 -0.768273
v 0.620834 -1.858553 -0.768273
v 1.887023 0.044827 -0.463969
v 1.887023 0.044827 -0.463969
v 1.838898 0.541553 0.078048
v 1.838898 0.541553 0.078048
v 1.714380 -1.172568 -0.098653
v 1.714380 -1.172568 -0.098653
v 0.715445 -0.476934 1.930774
v 0.715445 -0.476934 1.930774
v 0.183082 0.069992 2.077348
v 0.183082 0.069992 2.077348
v 1.247031 -0.163410 1.545428
v 1.247031 -0.163410 1.545428
v -1.485714 0.424604 1.211519
v -1.485714 0.424604 1.211519
v -1.797364 0.012496 0.936836
v -1.797364 0.012496 0.936836
v -1.209007 0.373436 1.446584
v -1.457102 0.158422 -1.135924
v -1.457102 0.158422 -1.135924
v -1.710926 0.485921 -0.460030
v -1.710926 0.485921 -0.460030
v 0.669537 0.236972 -2.007116
v 0.669537 0.236972 -2.007116
v 1.317240 0.377205 1.394722
v 1.317240 0.377205 1.394722
v -1.004001 -0.003497 2.067310
v -1.004001 -0.003497 2.067310
v -1.004001 -0.003497 2.067310
v -0.825164 -0.172418 2.075592
v -0.825164 -0.172418 2.075592
v -0.195636 -0.024800 2.063798
v -0.195636 -0.024800 2.063798
v -0.771738 1.214104 1.366709
v -0.771738 1.214104 1.366709
v -2.001829 0.151955 0.107453
v -2.001829 0.151955 0.107453
v -0.900501 2.141946 0.202389
v -0.900501 2.141946 0.202389
v -0.900501 2.141946 0.202389
v -0.398825 0.434037 -1.904605
v -0.398825 0.434037 -1.904605
v -1.054940 0.833866 -1.541435
v -1.054940 0.833866 -1.541435
v 0.034472 0.663050 -1.923375
v 1.333057 0.662729 -1.346967
v 1.333057 0.662729 -1.346967
v 0.691807 1.778543 1.016217
v 0.691807 1.778543 1.016217
v 0.691807 1.778543 1.016217
v -0.520514 2.222420 0.171450
v -0.520514 2.222420 0.171450
v 0.072710 1.436076 1.590492
v 0.072710 1.436076 1.590492
v -1.186020 1.171635 1.084183
v -1.186020 1.171635 1.084183
v -0.852742 1.879799 -0.593016
v -0.852742 1.879799 -0.593016
v -0.957906 1.423107 -1.154907
v -0.957906 1.423107 -1.154907
v -0.213219 2.127270 -0.595950
v -0.213219 2.127270 -0.595950
v 0.490014 2.026469 -0.678531
v 0.490014 2.026469 -0.678531
vt 0.358632 0.000121
vt 0.460914 0.088025
vt 0.410294 0.179150
vt 0.807265 0.417213
vt 0.722860 0.397033
vt 0.772125 0.374577
vt 0.489890 0.350855
vt 0.464136 0.429066
vt 0.427296 0.397536
vt 0.750326 0.130416
vt 0.724162 0.016589
vt 0.777400 0.033167
vt 0.788898 0.107697
vt 0.800355 0.079067
vt 0.511381 0.221220
vt 0.695415 0.248729
vt 0.659375 0.352398
vt 0.541685 0.293747
vt 0.119837 0.496072
vt 0.178545 0.529395
vt 0.139963 0.606634
vt 0.929703 0.324419
vt 0.999879 0.383606
vt 0.205521 0.361797
vt 0.240686 0.310654
vt 0.243222 0.372428
vt 0.398508 0.621905
vt 0.345365 0.477511
vt 0.203201 0.315414
vt 0.647274 0.363157
vt 0.593876 0.457717
vt 0.592156 0.363521
vt 0.159561 0.267775
vt 0.231856 0.486703
vt 0.331503 0.547318
vt 0.277090 0.455269
vt 0.278583 0.390563
vt 0.795955 0.461699
vt 0.894016 0.545693
vt 0.708345 0.559096
vt 0.700436 0.379978
vt 0.878151 0.190981
vt 0.854758 0.205801
vt 0.810689 0.250658
vt 0.346367 0.237710
vt 0.298480 0.070411
vt 0.669111 0.492173
vt 0.561329 0.632032
vt 0.976308 0.539184
vt 0.999879 0.670570
vt 0.369556 0.602472
vt 0.250815 0.714438
vt 0.761733 0.638262
vt 0.500306 0.268590
vt 0.556640 0.350923
vt 0.104548 0.584447
vt 0.511381 0.318697
vt 0.541207 0.446463
vt 0.083912 0.423219
vt 0.000121 0.366946
vt 0.005506 0.301170
vt 0.834869 0.613883
vt 0.511622 0.235388
vt 0.601542 0.020508
vt 0.685316 0.000121
vt 0.162267 0.136718
vt 0.521753 0.607968
vt 0.342889 0.723278
vt 0.392479 0.683095
vt 0.686525 0.737015
vt 0.599634 0.726398
vn 0.620249 -0.764074 -0.177430
vn 0.669975 -0.707084 -0.226200
vn 0.638902 -0.744080 -0.195320
vn 0.414919 0.303555 0.857727
vn 0.478535 0.304151 0.823709
vn 0.475448 0.235634 0.847600
vn -0.609119 -0.359360 -0.706990
vn -0.374580 -0.927183 -0.004533
vn -0.338158 -0.941086 0.002449
vn -0.360756 -0.932658 -0.001870
vn -0.696356 -0.670514 -0.255927
vn 0.343645 -0.840378 -0.419132
vn 0.241805 -0.834620 -0.494914
vn 0.318245 -0.911287 -0.261298
vn -0.752480 -0.277301 0.597393
vn -0.797298 -0.385364 0.464554
vn -0.764541 -0.083980 0.639081
vn -0.310903 0.906917 -0.284326
vn -0.344060 0.885427 -0.312475
vn -0.278492 0.925480 -0.256765
vn 0.956230 -0.028411 0.291232
vn 0.966579 0.033558 0.254163
vn 0.959441 -0.014354 0.281543
vn -0.182787 -0.079852 -0.979904
vn -0.119817 -0.199564 -0.972532
vn -0.123471 0.010993 -0.992287
vn -0.939466 0.045850 -0.339561
vn -0.920020 -0.147063 -0.363229
vn -0.933338 0.028261 -0.357884
vn 0.429457 0.129018 -0.893824
vn -0.742733 0.434718 0.509282
vn -0.619548 0.383127 0.685108
vn -0.666059 0.405905 0.625784
vn 0.623286 0.576701 -0.528139
vn 0.639905 0.604795 -0.474072
vn 0.638336 0.450465 -0.624186
vn -0.836187 0.491632 -0.243085
vn -0.847945 0.507439 -0.153284
vn -0.845991 0.487816 -0.215258
vn -0.582834 -0.027123 -0.812138
vn -0.551810 -0.162532 -0.817978
vn -0.597050 -0.042480 -0.801079
vn 0.804097 0.460450 0.376051
vn 0.763576 0.441742 0.470973
vn 0.804280 0.473953 0.358472
vn 0.005790 0.055079 0.998465
vn 0.176685 -0.983862 -0.028253
vn 0.094576 -0.994431 0.046501
vn 0.108660 -0.993504 0.033795
vn 0.510938 -0.474698 0.716661
vn 0.434144 -0.453690 0.778257
vn 0.586806 -0.491739 0.643313
vn 0.484874 -0.816032 0.314625
vn 0.509591 -0.826208 0.240203
vn 0.476007 -0.811531 0.338873
vn -0.768355 -0.604374 0.210626
vn -0.849623 -0.511239 0.129519
vn -0.877038 -0.479604 0.028006
vn 0.656699 -0.596806 -0.461053
vn 0.738077 -0.374034 -0.561552
vn 0.751325 -0.374271 -0.543536
vn -0.260937 -0.894023 0.364190
vn -0.240852 -0.906740 0.346140
vn -0.164899 -0.935309 0.313059
vn -0.191729 0.822283 0.535809
vn -0.024547 0.870034 0.492380
vn -0.183647 0.765626 0.616514
vn 0.878065 0.389079 -0.278604
vn 0.893120 0.345844 -0.287625
vn 0.894970 0.340056 -0.288774
vn -0.855742 0.462534 0.231881
vn -0.857138 0.433579 0.278072
vn -0.859529 0.442179 0.256294
vn -0.299428 0.767065 -0.567410
vn -0.144147 0.732631 -0.665187
vn -0.065023 0.638548 -0.766831
vn 0.263015 0.956633 0.125204
vn 0.242538 0.965047 0.099298
vn 0.262557 0.964323 0.033843
vn -0.845171 0.327263 -0.422594
vn -0.825955 0.319045 -0.464767
vn -0.860976 0.334088 -0.383543
vn -0.316568 0.295643 0.901321
vn -0.198802 0.378478 0.904009
vn -0.200451 0.390740 0.898410
vn -0.020301 -0.521134 0.853233
vn -0.018687 -0.523116 0.852057
vn -0.003849 -0.438790 0.898581
vn 0.589186 -0.794223 -0.148558
vn 0.507377 0.350328 0.787298
vn 0.475579 0.355276 0.804739
vn 0.014492 0.266754 0.963656
vn -0.412284 -0.910978 -0.011875
vn 0.419811 -0.802901 -0.423212
vn 0.257513 -0.776428 -0.575193
vn -0.729787 0.198886 0.654106
vn -0.735389 -0.673238 0.077160
vn -0.344019 0.747866 0.567756
vn -0.218760 0.953816 -0.205863
vn 0.944649 -0.111262 0.308641
vn 0.949639 -0.074326 0.304404
vn 0.906739 -0.267691 0.325831
vn -0.155223 -0.331229 -0.930695
vn 0.013943 -0.370652 -0.928667
vn -0.121964 -0.150910 -0.980995
vn 0.001625 -0.351337 -0.936248
vn 0.080753 -0.428666 -0.899847
vn 0.212915 -0.285099 -0.934551
vn -0.873235 -0.299846 -0.384126
vn -0.909966 0.116251 -0.398054
vn -0.551951 0.350413 0.756677
vn -0.559803 0.359500 0.746579
vn 0.686520 0.614732 -0.388324
vn 0.651016 0.655723 -0.382368
vn 0.558323 0.704994 -0.437332
vn -0.850772 0.499192 -0.164299
vn -0.851224 0.481099 -0.209670
vn -0.680605 0.128961 -0.721212
vn -0.759452 0.244107 -0.603029
vn 0.223436 0.100771 0.969495
vn 0.763119 0.456729 0.457218
vn 0.191800 -0.980527 -0.042197
vn 0.681590 -0.506125 0.528463
vn 0.460068 -0.802531 0.379844
vn -0.887267 -0.454186 0.080445
vn -0.598216 -0.715051 0.361718
vn -0.749183 -0.633649 0.192906
vn -0.876163 -0.476598 0.072058
vn 0.761978 -0.242678 -0.600414
vn 0.762357 -0.174468 -0.623195
vn 0.761278 -0.158055 -0.628867
vn 0.711268 -0.282272 -0.643755
vn -0.174464 -0.934542 0.310151
vn -0.017685 -0.972226 0.233376
vn -0.388533 0.742928 0.545068
vn -0.390478 0.732121 0.558144
vn -0.085809 0.683775 0.724630
vn 0.904842 0.306884 -0.295098
vn -0.860692 0.412217 0.298810
vn -0.851918 0.437125 0.288371
vn -0.845993 0.459581 0.270335
vn -0.210663 0.599729 -0.771976
vn -0.114852 0.558020 -0.821841
vn 0.047583 0.810380 -0.583969
vn -0.555988 0.536497 -0.634861
vn -0.484142 0.541320 -0.687444
vn 0.159213 0.972773 0.168414
vn 0.231823 0.971926 0.040230
vn -0.887597 0.345785 -0.304309
vn 0.016849 0.496241 0.868021
vn -0.078130 0.461031 0.883938
vn -0.003791 -0.445047 0.895499
vn 0.050818 -0.186275 0.981182
vn 0.024446 -0.236516 0.971320
s 1
f 8/1/1 1/2/2 98/3/3
f 28/4/4 33/5/5 20/6/6
f 10/7/7 25/8/7 24/9/7
f 76/10/8 12/11/9 11/12/10
f 87/13/11 75/10/11 91/14/11
f 92/15/12 16/3/13 70/2/14
f 62/16/15 31/17/16 37/18/17
f 49/19/18 5/20/19 136/21/20
f 110/4/21 73/22/22 19/23/23
f 54/24/24 121/25/25 38/26/26
f 80/8/27 36/27/28 23/28/29
f 42/29/30 26/25/30 2/24/30
f 126/30/31 45/31/32 116/32/33
f 55/24/34 144/33/35 52/29/36
f 50/34/37 119/35/38 155/20/39
f 117/28/40 40/36/41 139/37/42
f 124/38/43 102/39/44 44/40/45
f 128/17/46 32/41/46 125/30/46
f 93/14/47 69/42/48 67/43/49
f 65/44/50 72/22/51 111/4/52
f 7/43/53 71/42/54 74/22/55
f 114/18/56 15/10/57 61/16/58
f 99/3/59 97/45/60 105/46/61
f 9/16/62 77/10/63 6/44/64
f 46/47/65 147/40/66 4/48/67
f 101/49/68 145/50/69 103/39/70
f 138/21/71 135/51/72 154/52/73
f 156/20/74 159/19/75 157/34/76
f 148/40/77 58/53/78 150/48/79
f 118/28/80 120/35/81 158/34/82
f 152/47/83 133/31/84 108/5/85
f 63/16/86 66/44/87 107/6/88
f 104/46/89 8/1/1 98/3/3
f 151/47/90 33/5/5 28/4/4
f 146/40/91 151/47/90 28/4/4
f 29/38/92 146/40/91 28/4/4
f 13/14/93 76/10/8 11/12/10
f 85/54/94 27/45/95 92/15/12
f 27/45/95 16/3/13 92/15/12
f 37/18/17 31/17/16 21/55/96
f 31/17/16 30/30/97 21/55/96
f 30/30/97 22/32/98 21/55/96
f 149/56/99 49/19/18 136/21/20
f 110/4/21 19/23/23 18/49/100
f 123/38/101 110/4/21 18/49/100
f 17/39/102 123/38/101 18/49/100
f 121/25/25 96/45/103 86/54/104
f 38/26/26 121/25/25 39/37/105
f 39/37/105 121/25/25 89/9/106
f 121/25/25 86/54/104 89/9/106
f 86/54/104 83/57/107 78/7/108
f 89/9/106 86/54/104 78/7/108
f 36/27/28 35/51/109 23/28/29
f 35/51/109 34/35/110 23/28/29
f 45/31/32 47/58/111 112/55/112
f 116/32/33 45/31/32 112/55/112
f 55/24/34 51/59/113 144/33/35
f 51/59/113 43/60/114 144/33/35
f 43/60/114 3/61/115 144/33/35
f 119/35/38 134/51/116 155/20/39
f 134/51/116 48/21/117 155/20/39
f 82/8/118 117/28/40 139/37/42
f 90/9/119 82/8/118 139/37/42
f 102/39/44 59/62/120 57/53/121
f 44/40/45 102/39/44 57/53/121
f 14/13/122 93/14/47 67/43/49
f 106/6/123 65/44/50 111/4/52
f 64/44/124 7/43/53 74/22/55
f 114/18/56 84/11/125 15/10/57
f 94/63/126 81/64/127 79/65/128
f 114/18/56 94/63/126 79/65/128
f 84/11/125 114/18/56 79/65/128
f 105/46/61 97/45/60 100/66/129
f 97/45/60 122/25/130 100/66/129
f 122/25/130 53/29/131 100/66/129
f 53/29/131 41/33/132 100/66/129
f 77/10/63 88/13/133 6/44/64
f 88/13/133 68/43/134 6/44/64
f 132/31/135 46/47/65 4/48/67
f 153/58/136 132/31/135 4/48/67
f 137/67/137 153/58/136 4/48/67
f 145/50/69 60/62/138 103/39/70
f 154/52/73 135/51/72 113/68/139
f 135/51/72 95/27/140 113/68/139
f 95/27/140 115/69/141 113/68/139
f 157/34/76 140/37/142 141/36/143
f 157/34/76 159/19/75 140/37/142
f 159/19/75 161/59/144 56/24/145
f 140/37/142 159/19/75 143/26/146
f 159/19/75 56/24/145 143/26/146
f 58/53/78 162/70/147 160/71/148
f 150/48/79 58/53/78 160/71/148
f 142/36/149 118/28/80 158/34/82
f 133/31/84 127/30/150 130/41/151
f 108/5/85 133/31/84 130/41/151
f 129/17/152 63/16/86 107/6/88
f 131/41/153 129/17/152 107/6/88
f 109/5/154 131/41/153 107/6/88
